<svg width="38" height="25" viewBox="0 0 38 25" fill="none" xmlns="http://www.w3.org/2000/svg">
<path d="M31.5431 5.20768L30.2549 6.49585L31.3654 7.60635L32.6536 6.31817L31.5431 5.20768Z" fill="#231F20"/>
<path d="M36.2213 0.519655L32.2568 4.48413L33.3673 5.59463L37.3318 1.63015L36.2213 0.519655Z" fill="#231F20"/>
<path d="M4.83315 12.5888L3.72266 13.6993L11.3962 21.3729L12.5067 20.2624L4.83315 12.5888Z" fill="#231F20"/>
<path d="M33.2715 1.67676e-06L28.5186 4.75293L29.6291 5.86343L34.382 1.1105L33.2715 1.67676e-06Z" fill="#231F20"/>
<path d="M13.9234 21.5671L14.1904 21.3001L14.426 21.0646L14.5359 20.9546L15.6353 19.8553L16.2634 19.2271L17.3628 18.1278L28.8901 6.60044L27.7908 5.5011L16.766 16.5259L11.2222 22.054L10.9395 22.3367L1.28107 12.6625L0.166016 13.7775L10.7982 24.4097L10.9395 24.551L12.7613 22.7293L13.9234 21.5671Z" fill="#231F20"/>
<path d="M18.6801 20.2792L19.1041 19.8552L20.2977 18.6616L30.6315 8.34356L29.5164 7.22852L18.0048 18.7558L16.8897 19.8552L16.2773 20.4834L15.1622 21.5827L14.4869 22.258L14.1257 21.8968L13.0264 22.9961L14.3456 24.3311L14.4869 24.4724L15.9318 23.0433L18.6801 20.2792Z" fill="#231F20"/>
</svg>
