<svg width="18" height="18" viewBox="0 0 18 18" fill="none" xmlns="http://www.w3.org/2000/svg">
<path d="M9.00012 1C9.55323 1 10.0001 1.4478 10.0001 1.99997V3.11494C10.0501 3.1215 10.097 3.12869 10.147 3.13588C10.4782 3.18525 11.4657 3.34431 11.8719 3.44712C12.3782 3.58274 12.7313 4.12804 12.5938 4.6624C12.4594 5.19676 11.9157 5.52175 11.3782 5.38738C11.0876 5.28425 10.2032 5.16551 9.85322 5.11551C8.85013 4.96551 7.99078 5.04051 7.40017 5.26551C6.82893 5.48425 6.59175 5.79362 6.52894 6.14048C6.46832 6.47485 6.51425 6.66547 6.56925 6.78421C6.62831 6.90921 6.74362 7.04983 6.9733 7.20295C7.48141 7.53732 8.25639 7.76231 9.26261 8.03418L9.35011 8.05918C10.2376 8.29979 11.3251 8.59666 12.1313 9.13102C12.5719 9.42476 12.9875 9.82163 13.2438 10.3716C13.5031 10.9278 13.5594 11.5528 13.4406 12.1903C13.2219 13.4059 12.3782 14.1996 11.3876 14.6121C10.9626 14.7871 10.4938 14.8996 10.0001 14.9559V15.9996C10.0001 16.5527 9.55323 16.9996 9.00012 16.9996C8.44701 16.9996 8.00015 16.5527 8.00015 15.9996V14.909C7.98765 14.909 7.97203 14.8777 7.95953 14.9027H7.95328C7.19392 14.784 5.9399 14.4559 5.09398 14.0809C4.58931 13.8559 4.36213 13.2653 4.5865 12.759C4.81086 12.2559 5.40179 12.0278 5.87833 12.2528C6.55957 12.5434 7.63454 12.8278 8.25639 12.9247C9.25636 13.0747 10.0782 12.9872 10.6345 12.7622C11.1626 12.5466 11.4032 12.2341 11.4719 11.8591C11.5313 11.5247 11.4876 11.3341 11.4313 11.2153C11.3719 11.0903 11.2563 10.9497 11.0282 10.7966C10.5188 10.4622 9.74385 10.2372 8.73763 9.96537L8.65013 9.94037C7.76266 9.69976 6.67456 9.40289 5.86771 8.86853C5.42678 8.57479 5.01367 8.17792 4.75712 7.62794C4.49681 7.0717 4.44025 6.44672 4.56118 5.78112C4.78243 4.56552 5.65803 3.79023 6.68644 3.39775C7.0933 3.24244 7.53454 3.14025 8.00015 3.08525V1.99997C8.00015 1.4478 8.44701 1 9.00012 1Z"/>
</svg>
