<svg width="20" height="25" viewBox="0 0 20 25" fill="none" xmlns="http://www.w3.org/2000/svg">
<path d="M16.4769 0.807678H6.24618C5.47093 0.807678 4.72743 1.11564 4.17925 1.66383C3.63107 2.21201 3.3231 2.95551 3.3231 3.73076C2.54785 3.73076 1.80436 4.03872 1.25617 4.5869C0.70799 5.13509 0.400024 5.87858 0.400024 6.65383V21.2692C0.400024 22.0445 0.70799 22.788 1.25617 23.3361C1.80436 23.8843 2.54785 24.1923 3.3231 24.1923H13.5539C14.3291 24.1923 15.0726 23.8843 15.6208 23.3361C16.169 22.788 16.4769 22.0445 16.4769 21.2692C17.2522 21.2692 17.9957 20.9613 18.5439 20.4131C19.0921 19.8649 19.4 19.1214 19.4 18.3461V3.73076C19.4 2.95551 19.0921 2.21201 18.5439 1.66383C17.9957 1.11564 17.2522 0.807678 16.4769 0.807678V0.807678ZM16.4769 19.8077V6.65383C16.4769 5.87858 16.169 5.13509 15.6208 4.5869C15.0726 4.03872 14.3291 3.73076 13.5539 3.73076H4.78464C4.78464 3.34313 4.93862 2.97138 5.21271 2.69729C5.48681 2.4232 5.85855 2.26922 6.24618 2.26922H16.4769C16.8646 2.26922 17.2363 2.4232 17.5104 2.69729C17.7845 2.97138 17.9385 3.34313 17.9385 3.73076V18.3461C17.9385 18.7338 17.7845 19.1055 17.5104 19.3796C17.2363 19.6537 16.8646 19.8077 16.4769 19.8077ZM1.86156 6.65383C1.86156 6.26621 2.01555 5.89446 2.28964 5.62037C2.56373 5.34628 2.93548 5.19229 3.3231 5.19229H13.5539C13.9415 5.19229 14.3132 5.34628 14.5873 5.62037C14.8614 5.89446 15.0154 6.26621 15.0154 6.65383V21.2692C15.0154 21.6568 14.8614 22.0286 14.5873 22.3027C14.3132 22.5768 13.9415 22.7308 13.5539 22.7308H3.3231C2.93548 22.7308 2.56373 22.5768 2.28964 22.3027C2.01555 22.0286 1.86156 21.6568 1.86156 21.2692V6.65383Z"/>
</svg>
