<svg width="18" height="18" viewBox="0 0 18 18" fill="none" xmlns="http://www.w3.org/2000/svg">
<path d="M14.6667 6.875H8.29167C7.50926 6.875 6.875 7.50926 6.875 8.29167V14.6667C6.875 15.4491 7.50926 16.0833 8.29167 16.0833H14.6667C15.4491 16.0833 16.0833 15.4491 16.0833 14.6667V8.29167C16.0833 7.50926 15.4491 6.875 14.6667 6.875Z" stroke-width="1.41667" stroke-linecap="round" stroke-linejoin="round"/>
<path d="M4.04187 11.1253H3.33354C2.95781 11.1253 2.59748 10.9761 2.3318 10.7104C2.06613 10.4447 1.91687 10.0844 1.91687 9.70866V3.33366C1.91687 2.95794 2.06613 2.5976 2.3318 2.33192C2.59748 2.06625 2.95781 1.91699 3.33354 1.91699H9.70854C10.0843 1.91699 10.4446 2.06625 10.7103 2.33192C10.9759 2.5976 11.1252 2.95794 11.1252 3.33366V4.04199" stroke-width="1.41667" stroke-linecap="round" stroke-linejoin="round"/>
</svg>
