<svg width="12" height="12" viewBox="0 0 12 12" fill="none" xmlns="http://www.w3.org/2000/svg">
<g clip-path="url(#clip0_766_15577)">
<path d="M6.30005 0.474976V10.925" stroke="white" stroke-width="1.2" stroke-linecap="round" stroke-linejoin="round"/>
<path d="M8.67504 2.375H5.11254C4.67162 2.375 4.24876 2.55016 3.93698 2.86194C3.6252 3.17371 3.45004 3.59658 3.45004 4.0375C3.45004 4.47842 3.6252 4.90129 3.93698 5.21306C4.24876 5.52484 4.67162 5.7 5.11254 5.7H7.48754C7.92847 5.7 8.35133 5.87516 8.66311 6.18693C8.97489 6.49871 9.15004 6.92158 9.15004 7.3625C9.15004 7.80342 8.97489 8.22629 8.66311 8.53806C8.35133 8.84984 7.92847 9.025 7.48754 9.025H3.45004" stroke="white" stroke-width="1.2" stroke-linecap="round" stroke-linejoin="round"/>
</g>
<defs>
<clipPath id="clip0_766_15577">
<rect width="11.4" height="11.4" fill="white" transform="translate(0.600037)"/>
</clipPath>
</defs>
</svg>
