<svg width="4" height="14" viewBox="0 0 4 14" xmlns="http://www.w3.org/2000/svg">
<path d="M3.23077 12.3846C3.23077 12.813 3.06058 13.2239 2.75763 13.5269C2.45469 13.8298 2.04381 14 1.61538 14C1.18696 14 0.776078 13.8298 0.473135 13.5269C0.170192 13.2239 0 12.813 0 12.3846C0 11.9562 0.170192 11.5453 0.473135 11.2424C0.776078 10.9394 1.18696 10.7692 1.61538 10.7692C2.04381 10.7692 2.45469 10.9394 2.75763 11.2424C3.06058 11.5453 3.23077 11.9562 3.23077 12.3846ZM3.23077 7C3.23077 7.42843 3.06058 7.83931 2.75763 8.14225C2.45469 8.44519 2.04381 8.61539 1.61538 8.61539C1.18696 8.61539 0.776078 8.44519 0.473135 8.14225C0.170192 7.83931 0 7.42843 0 7C0 6.57157 0.170192 6.16069 0.473135 5.85775C0.776078 5.55481 1.18696 5.38462 1.61538 5.38462C2.04381 5.38462 2.45469 5.55481 2.75763 5.85775C3.06058 6.16069 3.23077 6.57157 3.23077 7ZM3.23077 1.61538C3.23077 2.04381 3.06058 2.45469 2.75763 2.75763C2.45469 3.06058 2.04381 3.23077 1.61538 3.23077C1.18696 3.23077 0.776078 3.06058 0.473135 2.75763C0.170192 2.45469 0 2.04381 0 1.61538C0 1.18696 0.170192 0.776079 0.473135 0.473135C0.776078 0.170192 1.18696 0 1.61538 0C2.04381 0 2.45469 0.170192 2.75763 0.473135C3.06058 0.776079 3.23077 1.18696 3.23077 1.61538Z" />
</svg>
