<svg width="23" height="22" viewBox="0 0 23 22" fill="none" xmlns="http://www.w3.org/2000/svg">
<path d="M2.875 1.375C2.49375 1.375 2.12812 1.51987 1.85853 1.77773C1.58895 2.03559 1.4375 2.38533 1.4375 2.75V19.25C1.4375 19.6147 1.58895 19.9644 1.85853 20.2223C2.12812 20.4801 2.49375 20.625 2.875 20.625H20.125C20.5062 20.625 20.8719 20.4801 21.1415 20.2223C21.411 19.9644 21.5625 19.6147 21.5625 19.25V2.75C21.5625 2.38533 21.411 2.03559 21.1415 1.77773C20.8719 1.51987 20.5062 1.375 20.125 1.375H13.6562C13.275 1.375 12.9094 1.51987 12.6398 1.77773C12.3702 2.03559 12.2188 2.38533 12.2188 2.75V12.7779L16.0224 9.13825C16.1573 9.00916 16.3404 8.93663 16.5312 8.93663C16.7221 8.93663 16.9052 9.00916 17.0401 9.13825C17.1751 9.26734 17.2509 9.44243 17.2509 9.625C17.2509 9.80757 17.1751 9.98266 17.0401 10.1117L12.0089 14.9242C11.9421 14.9883 11.8628 15.0391 11.7755 15.0737C11.6882 15.1084 11.5945 15.1262 11.5 15.1262C11.4055 15.1262 11.3118 15.1084 11.2245 15.0737C11.1372 15.0391 11.0579 14.9883 10.9911 14.9242L5.95988 10.1117C5.89305 10.0478 5.84004 9.97194 5.80387 9.88843C5.76771 9.80491 5.74909 9.7154 5.74909 9.625C5.74909 9.5346 5.76771 9.44509 5.80387 9.36157C5.84004 9.27806 5.89305 9.20217 5.95988 9.13825C6.0267 9.07433 6.10604 9.02362 6.19335 8.98903C6.28066 8.95444 6.37424 8.93663 6.46875 8.93663C6.56326 8.93663 6.65684 8.95444 6.74415 8.98903C6.83146 9.02362 6.9108 9.07433 6.97762 9.13825L10.7812 12.7779V2.75C10.7812 2.02065 11.0842 1.32118 11.6233 0.805456C12.1625 0.289731 12.8938 0 13.6562 0L20.125 0C20.8875 0 21.6188 0.289731 22.1579 0.805456C22.6971 1.32118 23 2.02065 23 2.75V19.25C23 19.9793 22.6971 20.6788 22.1579 21.1945C21.6188 21.7103 20.8875 22 20.125 22H2.875C2.1125 22 1.38124 21.7103 0.842068 21.1945C0.302901 20.6788 0 19.9793 0 19.25V2.75C0 2.02065 0.302901 1.32118 0.842068 0.805456C1.38124 0.289731 2.1125 0 2.875 0L6.46875 0C6.65937 0 6.84219 0.0724328 6.97698 0.201364C7.11177 0.330295 7.1875 0.505164 7.1875 0.6875C7.1875 0.869836 7.11177 1.0447 6.97698 1.17364C6.84219 1.30257 6.65937 1.375 6.46875 1.375H2.875Z" fill="#5682C3"/>
</svg>
