<svg width="32" height="32" viewBox="0 0 32 32" fill="none" xmlns="http://www.w3.org/2000/svg">
<path d="M0.25 16C0.25 19.1151 1.17372 22.1602 2.90435 24.7502C4.63499 27.3403 7.0948 29.359 9.97274 30.5511C12.8507 31.7432 16.0175 32.0551 19.0727 31.4474C22.1279 30.8397 24.9343 29.3396 27.1369 27.1369C29.3396 24.9343 30.8397 22.1279 31.4474 19.0727C32.0551 16.0175 31.7432 12.8507 30.5511 9.97274C29.359 7.0948 27.3403 4.63499 24.7502 2.90435C22.1602 1.17372 19.1151 0.25 16 0.25C11.8228 0.25 7.81677 1.90937 4.86307 4.86307C1.90937 7.81677 0.25 11.8228 0.25 16ZM26.2937 24.7188L7.28125 5.70625C9.86947 3.55187 13.1694 2.4426 16.5334 2.59614C19.8975 2.74969 23.0826 4.15496 25.4638 6.53616C27.845 8.91736 29.2503 12.1025 29.4039 15.4666C29.5574 18.8306 28.4481 22.1305 26.2937 24.7188ZM7.27 26.305C4.54562 23.9914 2.84988 20.6919 2.55463 17.13C2.25938 13.568 3.38872 10.0343 5.695 7.30375L24.6962 26.305C22.2598 28.3638 19.173 29.4933 15.9831 29.4933C12.7933 29.4933 9.70649 28.3638 7.27 26.305Z" fill="#ED4971"/>
</svg>
