<svg width="36" height="36" viewBox="0 0 36 36" fill="none" xmlns="http://www.w3.org/2000/svg">
<path d="M2.25 18C2.25 21.1151 3.17372 24.1602 4.90435 26.7502C6.63499 29.3403 9.0948 31.359 11.9727 32.5511C14.8507 33.7432 18.0175 34.0551 21.0727 33.4474C24.1279 32.8397 26.9343 31.3396 29.1369 29.1369C31.3396 26.9343 32.8397 24.1279 33.4474 21.0727C34.0551 18.0175 33.7432 14.8507 32.5511 11.9727C31.359 9.0948 29.3403 6.63499 26.7502 4.90435C24.1602 3.17372 21.1151 2.25 18 2.25C13.8228 2.25 9.81677 3.90937 6.86307 6.86307C3.90937 9.81677 2.25 13.8228 2.25 18ZM28.2937 26.7188L9.28125 7.70625C11.8695 5.55187 15.1694 4.4426 18.5334 4.59614C21.8975 4.74969 25.0826 6.15496 27.4638 8.53616C29.845 10.9174 31.2503 14.1025 31.4039 17.4666C31.5574 20.8306 30.4481 24.1305 28.2937 26.7188ZM9.27 28.305C6.54562 25.9914 4.84988 22.6919 4.55463 19.13C4.25938 15.568 5.38872 12.0343 7.695 9.30375L26.6962 28.305C24.2598 30.3638 21.173 31.4933 17.9831 31.4933C14.7933 31.4933 11.7065 30.3638 9.27 28.305Z"/>
</svg>
