<svg width="32" height="32" viewBox="-2 -2 36 36" fill="none" xmlns="http://www.w3.org/2000/svg">
<path d="M13.3947 23.9097V16.7534H11V13.9097H13.3947V11.669C13.3947 9.23467 14.8808 7.90967 17.0507 7.90967C18.0904 7.90967 18.9833 7.98779 19.2424 8.02217V10.5659H17.7376C16.5574 10.5659 16.3295 11.1284 16.3295 11.9503V13.9097H18.9927L18.6274 16.7534H16.3295V23.9097"/>
<path d="M16 30C8.26801 30 2 23.732 2 16H-2C-2 25.9411 6.05887 34 16 34V30ZM30 16C30 23.732 23.732 30 16 30V34C25.9411 34 34 25.9411 34 16H30ZM16 2C23.732 2 30 8.26801 30 16H34C34 6.05887 25.9411 -2 16 -2V2ZM16 -2C6.05887 -2 -2 6.05887 -2 16H2C2 8.26801 8.26801 2 16 2V-2Z"/>
</svg>
