<svg width="18" height="17" viewBox="0 0 18 17" fill="none" xmlns="http://www.w3.org/2000/svg">
<path d="M9.00003 15.5835C12.912 15.5835 16.0834 12.4122 16.0834 8.5002C16.0834 4.58819 12.912 1.41687 9.00003 1.41687C5.08801 1.41687 1.91669 4.58819 1.91669 8.5002C1.91669 12.4122 5.08801 15.5835 9.00003 15.5835Z" stroke-width="1.5" stroke-linecap="round" stroke-linejoin="round"/>
<path d="M6.93864 6.37528C7.10517 5.90188 7.43387 5.50269 7.86652 5.24842C8.29917 4.99414 8.80785 4.9012 9.30247 4.98604C9.79709 5.07088 10.2457 5.32803 10.5689 5.71195C10.8921 6.09587 11.069 6.58178 11.0682 7.08361C11.0682 8.50028 8.94322 9.20861 8.94322 9.20861" stroke-width="1.5" stroke-linecap="round" stroke-linejoin="round"/>
<path d="M8.99999 12.0419H9.00664" stroke-width="1.5" stroke-linecap="round" stroke-linejoin="round"/>
</svg>
