<svg width="17" height="18" viewBox="0 0 17 18" fill="none" xmlns="http://www.w3.org/2000/svg">
<path d="M8.50003 16.0835C12.412 16.0835 15.5834 12.9122 15.5834 9.0002C15.5834 5.08819 12.412 1.91687 8.50003 1.91687C4.58801 1.91687 1.4167 5.08819 1.4167 9.0002C1.4167 12.9122 4.58801 16.0835 8.50003 16.0835Z" stroke="#383857" stroke-width="1.5" stroke-linecap="round" stroke-linejoin="round"/>
<path d="M6.43864 6.87528C6.60517 6.40188 6.93387 6.00269 7.36652 5.74842C7.79918 5.49414 8.30786 5.4012 8.80247 5.48604C9.29709 5.57088 9.74572 5.82803 10.0689 6.21195C10.3921 6.59587 10.569 7.08178 10.5682 7.58361C10.5682 9.00028 8.44322 9.70861 8.44322 9.70861" stroke="#383857" stroke-width="1.5" stroke-linecap="round" stroke-linejoin="round"/>
<path d="M8.49999 12.5419H8.50664" stroke="#383857" stroke-width="1.5" stroke-linecap="round" stroke-linejoin="round"/>
</svg>
