<svg width="18" height="17" viewBox="0 0 18 17" fill="none" xmlns="http://www.w3.org/2000/svg">
<path d="M13.9582 2.12518H4.04151C3.2591 2.12518 2.62484 2.75945 2.62484 3.54185V13.4585C2.62484 14.2409 3.2591 14.8752 4.04151 14.8752H13.9582C14.7406 14.8752 15.3748 14.2409 15.3748 13.4585V3.54185C15.3748 2.75945 14.7406 2.12518 13.9582 2.12518Z" stroke-width="1.41667" stroke-linecap="round" stroke-linejoin="round"/>
<path d="M6.5211 7.0835C7.1079 7.0835 7.5836 6.6078 7.5836 6.021C7.5836 5.43419 7.1079 4.9585 6.5211 4.9585C5.93429 4.9585 5.4586 5.43419 5.4586 6.021C5.4586 6.6078 5.93429 7.0835 6.5211 7.0835Z" stroke-width="1.41667" stroke-linecap="round" stroke-linejoin="round"/>
<path d="M15.3751 10.625L11.8334 7.08337L4.04172 14.875" stroke-width="1.41667" stroke-linecap="round" stroke-linejoin="round"/>
</svg>
