<svg width="34" height="33" viewBox="0 0 34 33" fill="none" xmlns="http://www.w3.org/2000/svg">
<g clip-path="url(#clip0_547_3740)">
<path fill-rule="evenodd" clip-rule="evenodd" d="M13.4957 8.051C14.4021 8.00927 14.6911 8 17 8C19.3089 8 19.5979 8.01005 20.5035 8.051C21.4092 8.09195 22.0274 8.23645 22.5683 8.44586C23.1347 8.65991 23.6485 8.9945 24.0735 9.42723C24.5063 9.85145 24.8401 10.3645 25.0534 10.9317C25.2635 11.4726 25.4073 12.0908 25.449 12.9949C25.4907 13.9029 25.5 14.1919 25.5 16.5C25.5 18.8089 25.49 19.0979 25.449 20.0043C25.408 20.9084 25.2635 21.5266 25.0534 22.0675C24.8401 22.6348 24.5057 23.1487 24.0735 23.5735C23.6485 24.0063 23.1347 24.3401 22.5683 24.5534C22.0274 24.7635 21.4092 24.9073 20.5051 24.949C19.5979 24.9907 19.3089 25 17 25C14.6911 25 14.4021 24.99 13.4957 24.949C12.5916 24.908 11.9734 24.7635 11.4325 24.5534C10.8653 24.3401 10.3513 24.0057 9.92645 23.5735C9.49402 23.1491 9.15938 22.6354 8.94586 22.0683C8.73645 21.5274 8.59273 20.9092 8.551 20.0051C8.50927 19.0971 8.5 18.8081 8.5 16.5C8.5 14.1911 8.51005 13.9021 8.551 12.9965C8.59195 12.0908 8.73645 11.4726 8.94586 10.9317C9.15969 10.3646 9.49459 9.85092 9.92723 9.42645C10.3515 8.99411 10.8649 8.65948 11.4317 8.44586C11.9726 8.23645 12.5908 8.09273 13.4949 8.051H13.4957ZM20.4348 9.581C19.5384 9.54005 19.2695 9.53155 17 9.53155C14.7305 9.53155 14.4616 9.54005 13.5652 9.581C12.7361 9.61886 12.2864 9.75718 11.9865 9.87386C11.5901 10.0284 11.3065 10.2115 11.009 10.509C10.727 10.7834 10.51 11.1174 10.3739 11.4865C10.2572 11.7864 10.1189 12.2361 10.081 13.0652C10.04 13.9616 10.0315 14.2305 10.0315 16.5C10.0315 18.7695 10.04 19.0384 10.081 19.9348C10.1189 20.7639 10.2572 21.2136 10.3739 21.5135C10.5099 21.882 10.727 22.2166 11.009 22.491C11.2834 22.773 11.618 22.9901 11.9865 23.1261C12.2864 23.2428 12.7361 23.3811 13.5652 23.419C14.4616 23.46 14.7297 23.4685 17 23.4685C19.2703 23.4685 19.5384 23.46 20.4348 23.419C21.2639 23.3811 21.7136 23.2428 22.0135 23.1261C22.4099 22.9716 22.6935 22.7885 22.991 22.491C23.273 22.2166 23.4901 21.882 23.6261 21.5135C23.7428 21.2136 23.8811 20.7639 23.919 19.9348C23.96 19.0384 23.9685 18.7695 23.9685 16.5C23.9685 14.2305 23.96 13.9616 23.919 13.0652C23.8811 12.2361 23.7428 11.7864 23.6261 11.4865C23.4716 11.0901 23.2885 10.8065 22.991 10.509C22.7166 10.2271 22.3826 10.01 22.0135 9.87386C21.7136 9.75718 21.2639 9.61886 20.4348 9.581ZM15.9143 19.1203C16.5206 19.3727 17.1958 19.4068 17.8244 19.2167C18.4531 19.0266 18.9963 18.6242 19.3612 18.0781C19.726 17.532 19.89 16.8762 19.8251 16.2227C19.7602 15.5691 19.4704 14.9584 19.0052 14.4948C18.7087 14.1984 18.3501 13.9715 17.9553 13.8303C17.5606 13.6892 17.1394 13.6373 16.7222 13.6785C16.305 13.7196 15.9021 13.8528 15.5425 14.0683C15.1829 14.2839 14.8756 14.5765 14.6426 14.9251C14.4097 15.2736 14.257 15.6695 14.1954 16.0842C14.1338 16.4989 14.165 16.9221 14.2866 17.3234C14.4082 17.7246 14.6173 18.0938 14.8987 18.4046C15.1802 18.7153 15.527 18.9597 15.9143 19.1203ZM13.9106 13.4106C14.3163 13.0049 14.798 12.6831 15.328 12.4636C15.8581 12.244 16.4263 12.131 17 12.131C17.5737 12.131 18.1419 12.244 18.672 12.4636C19.202 12.6831 19.6837 13.0049 20.0894 13.4106C20.4951 13.8163 20.8169 14.298 21.0364 14.828C21.256 15.3581 21.369 15.9263 21.369 16.5C21.369 17.0737 21.256 17.6419 21.0364 18.172C20.8169 18.702 20.4951 19.1837 20.0894 19.5894C19.27 20.4087 18.1587 20.869 17 20.869C15.8413 20.869 14.73 20.4087 13.9106 19.5894C13.0913 18.77 12.631 17.6587 12.631 16.5C12.631 15.3413 13.0913 14.23 13.9106 13.4106ZM22.338 12.7816C22.4385 12.6868 22.519 12.5728 22.5747 12.4463C22.6304 12.3198 22.6601 12.1834 22.6621 12.0452C22.6641 11.907 22.6384 11.7698 22.5864 11.6417C22.5345 11.5136 22.4573 11.3973 22.3596 11.2996C22.2619 11.2018 22.1455 11.1247 22.0175 11.0728C21.8894 11.0208 21.7522 10.9951 21.614 10.9971C21.4758 10.9991 21.3394 11.0288 21.2129 11.0845C21.0864 11.1402 20.9724 11.2206 20.8775 11.3212C20.6931 11.5167 20.5921 11.7764 20.596 12.0452C20.6 12.3139 20.7085 12.5706 20.8985 12.7607C21.0886 12.9507 21.3452 13.0592 21.614 13.0631C21.8828 13.0671 22.1425 12.9661 22.338 12.7816Z" fill="white"/>
</g>
<rect x="1.5" y="1" width="31" height="31" rx="15.5" stroke="white" stroke-width="2"/>
<defs>
<clipPath id="clip0_547_3740">
<rect width="17" height="17" fill="white" transform="translate(8.5 8)"/>
</clipPath>
</defs>
</svg>
