<svg width="32" height="32" viewBox="-2 -2 36 36" fill="none" xmlns="http://www.w3.org/2000/svg">
<path d="M12.3175 21.6668H9.5532V12.765H12.3175V21.6668ZM10.9338 11.5508C10.0501 11.5508 9.33301 10.8186 9.33301 9.93469C9.33301 9.05076 10.0501 8.3335 10.9338 8.3335C11.8176 8.3335 12.5347 9.05076 12.5347 9.93469C12.5347 10.8186 11.8176 11.5508 10.9338 11.5508ZM22.6634 21.6668H19.9051V17.3335C19.9051 16.3008 19.8842 14.9764 18.4679 14.9764C17.0307 14.9764 16.8105 16.0984 16.8105 17.2591V21.6668H14.0492V12.765H16.7004V13.9793H16.7391C17.1081 13.2799 18.0096 12.5418 19.3546 12.5418C22.1516 12.5418 22.6663 14.3841 22.6663 16.7769V21.6668H22.6634Z" />
<path d="M16 30C8.26801 30 2 23.732 2 16H-2C-2 25.9411 6.05887 34 16 34V30ZM30 16C30 23.732 23.732 30 16 30V34C25.9411 34 34 25.9411 34 16H30ZM16 2C23.732 2 30 8.26801 30 16H34C34 6.05887 25.9411 -2 16 -2V2ZM16 -2C6.05887 -2 -2 6.05887 -2 16H2C2 8.26801 8.26801 2 16 2V-2Z" />
</svg>
