<svg width="32" height="32" viewBox="-2 -2 36 36" fill="none" xmlns="http://www.w3.org/2000/svg">
<path d="M18.8436 14.0643C20.8274 16.0501 20.8001 19.2339 18.8555 21.1893C18.8519 21.1933 18.8476 21.1976 18.8436 21.2016L16.6123 23.4329C14.6444 25.4008 11.4426 25.4005 9.47499 23.4329C7.50704 21.4652 7.50704 18.2631 9.47499 16.2955L10.707 15.0635C11.0337 14.7368 11.5964 14.9539 11.6133 15.4156C11.6348 16.0041 11.7403 16.5952 11.935 17.1661C12.0009 17.3594 11.9538 17.5733 11.8094 17.7177L11.3749 18.1522C10.4443 19.0828 10.4151 20.598 11.3365 21.5376C12.267 22.4865 13.7964 22.4922 14.734 21.5546L16.9653 19.3236C17.9013 18.3876 17.8974 16.8747 16.9653 15.9426C16.8424 15.8199 16.7186 15.7246 16.6219 15.6581C16.5535 15.6111 16.497 15.5488 16.457 15.4761C16.417 15.4034 16.3944 15.3224 16.3913 15.2395C16.3781 14.8886 16.5024 14.5271 16.7797 14.2498L17.4787 13.5508C17.662 13.3674 17.9496 13.3449 18.1622 13.4933C18.4056 13.6633 18.6336 13.8543 18.8436 14.0643ZM23.5231 9.38455C21.5554 7.41687 18.3537 7.4166 16.3857 9.38455L14.1545 11.6158C14.1505 11.6198 14.1462 11.6241 14.1425 11.6281C12.1979 13.5835 12.1707 16.7673 14.1545 18.7531C14.3644 18.9631 14.5924 19.1541 14.8358 19.3241C15.0484 19.4725 15.336 19.4499 15.5193 19.2666L16.2183 18.5675C16.4956 18.2903 16.6199 17.9287 16.6068 17.5779C16.6036 17.495 16.5811 17.414 16.541 17.3413C16.501 17.2686 16.4445 17.2063 16.3761 17.1593C16.2794 17.0928 16.1556 16.9975 16.0327 16.8748C15.1006 15.9427 15.0967 14.4298 16.0327 13.4937L18.264 11.2628C19.2016 10.3252 20.731 10.3308 21.6615 11.2798C22.5829 12.2194 22.5537 13.7346 21.6231 14.6651L21.1886 15.0997C21.0442 15.2441 20.9971 15.4579 21.063 15.6512C21.2577 16.2221 21.3632 16.8133 21.3847 17.4017C21.4016 17.8635 21.9643 18.0806 22.291 17.7539L23.523 16.5219C25.491 14.5543 25.491 11.3522 23.5231 9.38455Z" />
<path d="M16 30C8.26801 30 2 23.732 2 16H-2C-2 25.9411 6.05887 34 16 34V30ZM30 16C30 23.732 23.732 30 16 30V34C25.9411 34 34 25.9411 34 16H30ZM16 2C23.732 2 30 8.26801 30 16H34C34 6.05887 25.9411 -2 16 -2V2ZM16 -2C6.05887 -2 -2 6.05887 -2 16H2C2 8.26801 8.26801 2 16 2V-2Z" />
</svg>
