<svg width="13" height="14" viewBox="0 0 13 14" fill="none" xmlns="http://www.w3.org/2000/svg">
<path d="M13 7C13 10.5899 10.0899 13.5 6.5 13.5C2.91015 13.5 0 10.5899 0 7C0 3.41015 2.91015 0.5 6.5 0.5C10.0899 0.5 13 3.41015 13 7ZM1.13934 7C1.13934 9.96061 3.53939 12.3607 6.5 12.3607C9.46061 12.3607 11.8607 9.96061 11.8607 7C11.8607 4.03939 9.46061 1.63934 6.5 1.63934C3.53939 1.63934 1.13934 4.03939 1.13934 7Z" fill="#E4E4E4"/>
<path d="M12.4303 7C12.745 7 13.0026 6.74446 12.9751 6.43104C12.8609 5.13158 12.3577 3.89159 11.5246 2.87644C10.5706 1.71398 9.243 0.918274 7.76809 0.624896C6.29317 0.331517 4.76216 0.558621 3.43592 1.26751C2.10968 1.9764 1.07027 3.12322 0.494783 4.51256C-0.0806998 5.9019 -0.156645 7.44779 0.279888 8.88685C0.71642 10.3259 1.63842 11.5691 2.88879 12.4046C4.13916 13.24 5.64054 13.6161 7.13711 13.4687C8.44403 13.34 9.67666 12.819 10.6762 11.9809C10.9173 11.7787 10.9158 11.4158 10.6934 11.1934C10.4709 10.9709 10.1119 10.9736 9.86711 11.1713C9.05685 11.8253 8.06991 12.232 7.02544 12.3348C5.79119 12.4564 4.55298 12.1463 3.52178 11.4572C2.49057 10.7682 1.73018 9.74293 1.37017 8.55612C1.01015 7.3693 1.07279 6.09438 1.5474 4.94856C2.02201 3.80275 2.87923 2.85695 3.973 2.27232C5.06678 1.68769 6.32943 1.50039 7.54581 1.74234C8.7622 1.9843 9.85706 2.64053 10.6438 3.59923C11.3097 4.41053 11.72 5.39594 11.8304 6.43138C11.8638 6.74423 12.1157 7 12.4303 7Z" fill="#295BA6"/>
</svg>
