<svg xmlns="http://www.w3.org/2000/svg" xmlns:xlink="http://www.w3.org/1999/xlink" viewBox="0 0 229 218.25"><defs><style>.cls-1,.cls-4{fill:none;}.cls-2{clip-path:url(#clip-path);}.cls-3{fill:#fbeef2;}.cls-3,.cls-4{stroke:#ed4971;stroke-linecap:round;stroke-linejoin:round;stroke-width:13.95px;}.cls-5{fill:#ed4971;}</style><clipPath id="clip-path" transform="translate(0 0)"><rect class="cls-1" width="229" height="218.29"/></clipPath></defs><g id="Camada_2" data-name="Camada 2"><g id="Camada_1-2" data-name="Camada 1"><g class="cls-2"><path class="cls-3" d="M7,89.88v109c0,6.85,6.34,12.39,14.16,12.39H207.86c7.82,0,14.16-5.55,14.16-12.39V90.4c0-5.52-3.37-10.61-8.83-13.34L114.5,27.73,15.88,76.48C10.38,79.2,7,84.31,7,89.88Z" transform="translate(0 0)"/><path class="cls-4" d="M8,93l107.52,41.55L221,93" transform="translate(0 0)"/><path class="cls-3" d="M114.5,7H54.94A12.24,12.24,0,0,0,42.71,19.21v87.15l71.8,27.73,71.8-27.73V19.21A12.24,12.24,0,0,0,174.08,7Z" transform="translate(0 0)"/><path class="cls-5" d="M126.86,65.47,137,55.31A8.74,8.74,0,0,0,124.65,43L114.5,53.1,104.34,43a8.6,8.6,0,0,0-2.83-1.9,8.71,8.71,0,0,0-6.7,0,8.83,8.83,0,0,0-4.73,4.73,8.71,8.71,0,0,0,0,6.7A8.6,8.6,0,0,0,92,55.31l10.15,10.16L92,75.62a8.71,8.71,0,0,0-1.9,9.53A8.54,8.54,0,0,0,92,88a8.74,8.74,0,0,0,12.36,0L114.5,77.84,124.65,88A8.75,8.75,0,0,0,137,75.62Z" transform="translate(0 0)"/></g></g></g></svg>