<svg xmlns="http://www.w3.org/2000/svg" xmlns:xlink="http://www.w3.org/1999/xlink" viewBox="0 0 228.69 217.95"><defs><style>.cls-1,.cls-4{fill:none;}.cls-2{clip-path:url(#clip-path);}.cls-3{fill:#e9fae5;}.cls-3,.cls-4{stroke:#76de8d;stroke-linecap:round;stroke-linejoin:round;stroke-width:13.93px;}.cls-5{fill:#76de8d;}</style><clipPath id="clip-path" transform="translate(0 0)"><rect class="cls-1" width="228.69" height="218"/></clipPath></defs><g id="Camada_2" data-name="Camada 2"><g id="Camada_1-2" data-name="Camada 1"><g class="cls-2"><path class="cls-3" d="M7,89.76V198.61C7,205.46,13.29,211,21.1,211H207.58c7.81,0,14.15-5.54,14.15-12.38V90.28c0-5.51-3.37-10.59-8.82-13.32L114.35,27.7,15.86,76.38C10.36,79.1,7,84.2,7,89.76Z" transform="translate(0 0)"/><path class="cls-4" d="M8,92.85l107.38,41.49L220.66,92.85" transform="translate(0 0)"/><path class="cls-3" d="M114.35,7H54.87A12.22,12.22,0,0,0,42.65,19.19v87l71.71,27.7,71.7-27.7v-87A12.24,12.24,0,0,0,173.85,7Z" transform="translate(0 0)"/><path class="cls-5" d="M144.11,45.14a8.75,8.75,0,0,0-12.35,0L105.4,71.5,96.93,63A8.74,8.74,0,0,0,84.55,75.38L99.17,90l0,0a8.75,8.75,0,0,0,12.38,0l0,0,32.5-32.5a8.73,8.73,0,0,0,0-12.36Z" transform="translate(0 0)"/></g></g></g></svg>