<svg width="18" height="14" viewBox="0 0 18 14" fill="none" xmlns="http://www.w3.org/2000/svg">
<path d="M13.3721 4.48225C13.0615 4.32862 12.6618 4.32862 12.3067 4.48225L9.8212 5.75101L8.13462 6.55801L5.69328 7.82763C5.38268 7.98127 4.98304 7.98127 4.62792 7.82763L2.7201 6.82817C2.55785 6.74539 2.42336 6.62738 2.32991 6.4858C2.23645 6.34421 2.18728 6.18396 2.18725 6.02088V4.09789C2.18725 3.79034 2.36498 3.48278 2.7201 3.2906L4.62792 2.32969C4.93852 2.17576 5.33816 2.17576 5.69328 2.32969L7.6011 3.32915C7.76339 3.41189 7.89792 3.52989 7.99138 3.67148C8.08484 3.81307 8.13398 3.97335 8.13395 4.13644V5.40491L9.82053 4.55907V3.25234C9.82053 2.94479 9.64314 2.63724 9.28801 2.44505L5.73746 0.638878C5.42686 0.484957 5.02755 0.484957 4.67243 0.638878L1.03252 2.48332C0.677394 2.63724 0.5 2.94479 0.5 3.25234V6.86556C0.5 7.17311 0.677394 7.47979 1.03252 7.67284L4.62792 9.47989C4.93852 9.63381 5.33816 9.63381 5.69328 9.47989L8.13462 8.24968L9.8212 7.40414L12.2625 6.17393C12.5731 6.0203 12.9728 6.0203 13.3279 6.17393L15.2357 7.13514C15.3982 7.21796 15.533 7.33613 15.6265 7.47794C15.72 7.61975 15.7691 7.78027 15.7689 7.94358V9.86542C15.7689 10.173 15.5915 10.4805 15.2364 10.6727L13.3721 11.6339C13.0615 11.7875 12.6618 11.7875 12.3067 11.6339L10.3989 10.6727C10.2367 10.5899 10.1022 10.4719 10.0089 10.3303C9.91546 10.1887 9.86635 10.0285 9.86638 9.86542V8.63405L8.1788 9.47989V10.7484C8.1788 11.0559 8.35653 11.3635 8.71165 11.5556L12.3067 13.3624C12.6177 13.5163 13.017 13.5163 13.3721 13.3624L16.9675 11.5554C17.1297 11.4726 17.2641 11.3545 17.3575 11.213C17.4509 11.0714 17.5 10.9111 17.5 10.7481V7.09572C17.5 6.78816 17.3226 6.48061 16.9675 6.28843L13.3721 4.48225Z" />
</svg>
