<svg width="18" height="19" viewBox="0 0 18 19" fill="none" xmlns="http://www.w3.org/2000/svg">
<path d="M16.6592 1L10.0182 6.31244L11.2532 3.18165L16.6592 1Z" fill="#E17726" stroke="#E17726" stroke-width="0.25" stroke-linecap="round" stroke-linejoin="round"/>
<path d="M1.34082 1L7.92275 6.36202L6.74695 3.18164L1.34082 1Z" fill="#E27625" stroke="#E27625" stroke-width="0.25" stroke-linecap="round" stroke-linejoin="round"/>
<path d="M14.268 13.3176L12.501 16.2359L16.2846 17.3622L17.3685 13.3814L14.268 13.3176Z" fill="#E27625" stroke="#E27625" stroke-width="0.25" stroke-linecap="round" stroke-linejoin="round"/>
<path d="M0.637817 13.3814L1.71509 17.3622L5.49216 16.2359L3.73171 13.3176L0.637817 13.3814Z" fill="#E27625" stroke="#E27625" stroke-width="0.25" stroke-linecap="round" stroke-linejoin="round"/>
<path d="M5.28854 8.38777L4.23755 10.1019L7.98175 10.2861L7.85696 5.9299L5.28854 8.38777Z" fill="#E27625" stroke="#E27625" stroke-width="0.25" stroke-linecap="round" stroke-linejoin="round"/>
<path d="M12.7112 8.38774L10.1035 5.88028L10.0181 10.2861L13.7622 10.1019L12.7112 8.38774Z" fill="#E27625" stroke="#E27625" stroke-width="0.25" stroke-linecap="round" stroke-linejoin="round"/>
<path d="M5.49231 16.2362L7.75851 15.0533L5.80762 13.41L5.49231 16.2362Z" fill="#E27625" stroke="#E27625" stroke-width="0.25" stroke-linecap="round" stroke-linejoin="round"/>
<path d="M10.2415 15.0533L12.5011 16.2362L12.1923 13.41L10.2415 15.0533Z" fill="#E27625" stroke="#E27625" stroke-width="0.25" stroke-linecap="round" stroke-linejoin="round"/>
<path d="M12.5011 16.2367L10.2415 15.0538L10.4254 16.6404L10.4056 17.3134L12.5011 16.2367Z" fill="#D5BFB2" stroke="#D5BFB2" stroke-width="0.25" stroke-linecap="round" stroke-linejoin="round"/>
<path d="M5.49231 16.2367L7.59434 17.3134L7.58119 16.6404L7.75851 15.0538L5.49231 16.2367Z" fill="#D5BFB2" stroke="#D5BFB2" stroke-width="0.25" stroke-linecap="round" stroke-linejoin="round"/>
<path d="M7.63357 12.3616L5.75488 11.7666L7.08177 11.1079L7.63357 12.3616Z" fill="#233447" stroke="#233447" stroke-width="0.25" stroke-linecap="round" stroke-linejoin="round"/>
<path d="M10.3662 12.3616L10.918 11.1079L12.2515 11.7666L10.3662 12.3616Z" fill="#233447" stroke="#233447" stroke-width="0.25" stroke-linecap="round" stroke-linejoin="round"/>
<path d="M5.49223 16.2359L5.82069 13.3176L3.73181 13.3814L5.49223 16.2359Z" fill="#CC6228" stroke="#CC6228" stroke-width="0.25" stroke-linecap="round" stroke-linejoin="round"/>
<path d="M12.1792 13.3176L12.5011 16.2359L14.2681 13.3814L12.1792 13.3176Z" fill="#CC6228" stroke="#CC6228" stroke-width="0.25" stroke-linecap="round" stroke-linejoin="round"/>
<path d="M13.7622 10.1017L10.0181 10.2859L10.3662 12.3614L10.918 11.1076L12.2515 11.7663L13.7622 10.1017Z" fill="#CC6228" stroke="#CC6228" stroke-width="0.25" stroke-linecap="round" stroke-linejoin="round"/>
<path d="M5.75493 11.7663L7.08182 11.1076L7.63362 12.3614L7.98175 10.2859L4.23755 10.1017L5.75493 11.7663Z" fill="#CC6228" stroke="#CC6228" stroke-width="0.25" stroke-linecap="round" stroke-linejoin="round"/>
<path d="M4.23767 10.1017L5.80762 13.4096L5.75504 11.7663L4.23767 10.1017Z" fill="#E27525" stroke="#E27525" stroke-width="0.25" stroke-linecap="round" stroke-linejoin="round"/>
<path d="M12.2515 11.7663L12.1924 13.4096L13.7623 10.1017L12.2515 11.7663Z" fill="#E27525" stroke="#E27525" stroke-width="0.25" stroke-linecap="round" stroke-linejoin="round"/>
<path d="M7.98197 10.286L7.63379 12.3614L8.07389 14.8122L8.17244 11.5822L7.98197 10.286Z" fill="#E27525" stroke="#E27525" stroke-width="0.25" stroke-linecap="round" stroke-linejoin="round"/>
<path d="M10.0182 10.286L9.83423 11.5752L9.9262 14.8122L10.3663 12.3614L10.0182 10.286Z" fill="#E27525" stroke="#E27525" stroke-width="0.25" stroke-linecap="round" stroke-linejoin="round"/>
<path d="M10.3663 12.3617L9.92615 14.8125L10.2415 15.0533L12.1924 13.41L12.2515 11.7667L10.3663 12.3617Z" fill="#F5841F" stroke="#F5841F" stroke-width="0.25" stroke-linecap="round" stroke-linejoin="round"/>
<path d="M5.75488 11.7667L5.80747 13.41L7.75836 15.0533L8.07367 14.8125L7.63357 12.3617L5.75488 11.7667Z" fill="#F5841F" stroke="#F5841F" stroke-width="0.25" stroke-linecap="round" stroke-linejoin="round"/>
<path d="M10.4058 17.3129L10.4254 16.64L10.2547 16.4842H7.74542L7.58119 16.64L7.59434 17.3129L5.49231 16.2363L6.22801 16.8879L7.71913 18H10.2744L11.772 16.8879L12.5012 16.2363L10.4058 17.3129Z" fill="#C0AC9D" stroke="#C0AC9D" stroke-width="0.25" stroke-linecap="round" stroke-linejoin="round"/>
<path d="M10.2415 15.0534L9.92621 14.8126H8.07382L7.75855 15.0534L7.58118 16.64L7.74541 16.4842H10.2547L10.4255 16.64L10.2415 15.0534Z" fill="#161616" stroke="#161616" stroke-width="0.25" stroke-linecap="round" stroke-linejoin="round"/>
<path d="M16.9416 6.65951L17.4999 3.72706L16.6591 1L10.2415 6.13539L12.7113 8.38783L16.1993 9.48576L16.9679 8.51536L16.6329 8.25325L17.1649 7.72913L16.7577 7.38911L17.2898 6.94994L16.9416 6.65951Z" fill="#763E1A" stroke="#763E1A" stroke-width="0.25" stroke-linecap="round" stroke-linejoin="round"/>
<path d="M0.5 3.72706L1.06492 6.65951L0.703634 6.94994L1.24227 7.38911L0.835008 7.72913L1.36708 8.25325L1.03207 8.51536L1.80062 9.48576L5.28867 8.38783L7.75849 6.13539L1.34081 1L0.5 3.72706Z" fill="#763E1A" stroke="#763E1A" stroke-width="0.25" stroke-linecap="round" stroke-linejoin="round"/>
<path d="M16.1993 9.48557L12.7113 8.3877L13.7623 10.1019L12.1924 13.4097L14.2681 13.3814H17.3686L16.1993 9.48557Z" fill="#F5841F" stroke="#F5841F" stroke-width="0.25" stroke-linecap="round" stroke-linejoin="round"/>
<path d="M5.28849 8.3877L1.80049 9.48557L0.637817 13.3814H3.73171L5.80742 13.4097L4.23751 10.1019L5.28849 8.3877Z" fill="#F5841F" stroke="#F5841F" stroke-width="0.25" stroke-linecap="round" stroke-linejoin="round"/>
<path d="M10.0181 10.2863L10.2414 6.13543L11.253 3.18173H6.74683L7.7584 6.13543L7.98174 10.2863L8.06714 11.5896L8.07371 14.8125H9.92611L9.93268 11.5896L10.0181 10.2863Z" fill="#F5841F" stroke="#F5841F" stroke-width="0.25" stroke-linecap="round" stroke-linejoin="round"/>
</svg>
