<svg width="17" height="18" viewBox="0 0 17 18" fill="none" xmlns="http://www.w3.org/2000/svg">
<path d="M13.4582 2.62524H3.54151C2.7591 2.62524 2.12484 3.25951 2.12484 4.04191V13.9586C2.12484 14.741 2.7591 15.3752 3.54151 15.3752H13.4582C14.2406 15.3752 14.8748 14.741 14.8748 13.9586V4.04191C14.8748 3.25951 14.2406 2.62524 13.4582 2.62524Z" stroke="#353945" stroke-width="1.41667" stroke-linecap="round" stroke-linejoin="round"/>
<path d="M6.0211 7.5835C6.6079 7.5835 7.0836 7.1078 7.0836 6.521C7.0836 5.93419 6.6079 5.4585 6.0211 5.4585C5.43429 5.4585 4.9586 5.93419 4.9586 6.521C4.9586 7.1078 5.43429 7.5835 6.0211 7.5835Z" stroke="#353945" stroke-width="1.41667" stroke-linecap="round" stroke-linejoin="round"/>
<path d="M14.8751 11.125L11.3334 7.58337L3.54172 15.375" stroke="#353945" stroke-width="1.41667" stroke-linecap="round" stroke-linejoin="round"/>
</svg>
