<svg width="16" height="23" viewBox="0 0 16 23" fill="none" xmlns="http://www.w3.org/2000/svg">
<mask id="path-1-inside-1_7360_17288" fill="white">
<path d="M12.6217 7.40367C13.0602 7.02513 13.1132 6.3559 12.6759 5.9759C11.7805 5.1979 10.7052 4.64558 9.53992 4.37348C8.0325 4.02148 6.45227 4.15654 5.02645 4.75925C3.60062 5.36196 2.40263 6.40127 1.60472 7.72776C0.80681 9.05425 0.450074 10.5996 0.585802 12.1416C0.72153 13.6836 1.34273 15.1429 2.36009 16.3096C3.37746 17.4763 4.73858 18.2904 6.24777 18.6347C7.75695 18.9791 9.33647 18.8361 10.7592 18.2261C11.859 17.7547 12.8214 17.023 13.5671 16.1005C13.9313 15.65 13.7622 15.0003 13.2643 14.7042C12.7663 14.4081 12.1294 14.5811 11.7398 15.0099C11.2394 15.5608 10.6241 16.0015 9.93261 16.2979C8.91773 16.733 7.79102 16.835 6.71449 16.5894C5.63795 16.3437 4.66703 15.763 3.94132 14.9308C3.21562 14.0985 2.7725 13.0576 2.67568 11.9577C2.57886 10.8577 2.83333 9.75538 3.4025 8.80916C3.97167 7.86295 4.82622 7.12158 5.84329 6.69166C6.86037 6.26173 7.98757 6.16539 9.06285 6.41648C9.79548 6.58756 10.4783 6.91391 11.0673 7.36892C11.5257 7.7231 12.1831 7.7822 12.6217 7.40367Z"/>
</mask>
<path d="M12.6217 7.40367C13.0602 7.02513 13.1132 6.3559 12.6759 5.9759C11.7805 5.1979 10.7052 4.64558 9.53992 4.37348C8.0325 4.02148 6.45227 4.15654 5.02645 4.75925C3.60062 5.36196 2.40263 6.40127 1.60472 7.72776C0.80681 9.05425 0.450074 10.5996 0.585802 12.1416C0.72153 13.6836 1.34273 15.1429 2.36009 16.3096C3.37746 17.4763 4.73858 18.2904 6.24777 18.6347C7.75695 18.9791 9.33647 18.8361 10.7592 18.2261C11.859 17.7547 12.8214 17.023 13.5671 16.1005C13.9313 15.65 13.7622 15.0003 13.2643 14.7042C12.7663 14.4081 12.1294 14.5811 11.7398 15.0099C11.2394 15.5608 10.6241 16.0015 9.93261 16.2979C8.91773 16.733 7.79102 16.835 6.71449 16.5894C5.63795 16.3437 4.66703 15.763 3.94132 14.9308C3.21562 14.0985 2.7725 13.0576 2.67568 11.9577C2.57886 10.8577 2.83333 9.75538 3.4025 8.80916C3.97167 7.86295 4.82622 7.12158 5.84329 6.69166C6.86037 6.26173 7.98757 6.16539 9.06285 6.41648C9.79548 6.58756 10.4783 6.91391 11.0673 7.36892C11.5257 7.7231 12.1831 7.7822 12.6217 7.40367Z" fill="#272727" stroke="#5682C3" stroke-width="4.18182" mask="url(#path-1-inside-1_7360_17288)"/>
<line x1="9.96635" y1="1.04545" x2="9.96635" y2="5.22727" stroke="#5682C3" stroke-width="2.09091" stroke-linecap="round"/>
<line x1="9.96635" y1="17.7727" x2="9.96635" y2="21.9546" stroke="#5682C3" stroke-width="2.09091" stroke-linecap="round"/>
<line x1="5.78471" y1="1.04545" x2="5.78471" y2="5.22727" stroke="#5682C3" stroke-width="2.09091" stroke-linecap="round"/>
<line x1="5.78471" y1="17.7727" x2="5.78471" y2="21.9546" stroke="#5682C3" stroke-width="2.09091" stroke-linecap="round"/>
</svg>
