<svg width="15" height="16" viewBox="0 0 15 16" fill="none" xmlns="http://www.w3.org/2000/svg">
<path d="M13.1191 7.99935L14.4976 7.2227L14.1911 4.42279L11.3406 2.88843L10.4295 3.42903V2.04674L7.52665 1L4.57431 2.04631V3.42559L3.65749 2.88843L0.806552 4.42279L0.5 7.2227L1.88137 8.00065L0.50283 8.7773L0.809382 11.5776L3.65985 13.1116L4.57148 12.5774V13.9537L7.52382 15L10.4266 13.9533V12.568L11.343 13.1116L14.1934 11.5776L14.5 8.7773L13.1191 7.99935ZM11.235 12.7661L7.52665 10.5654L3.76879 12.7674L3.55798 10.3862L7.50212 8.07603L11.4463 10.3862L11.235 12.7661ZM3.41932 10.1867L0.8905 8.83631L4.83229 6.61577V2.31036L7.39884 3.37648L7.39648 7.85677L3.41932 10.1867ZM11.584 10.1867L7.6554 7.88563L7.65776 3.3739L10.171 2.31165V6.61577L14.1128 8.83631L11.584 10.1867ZM14.2241 7.0995L12.8724 7.86065L10.5488 6.55158L13.9605 4.69072L14.2241 7.0995ZM11.3468 3.16584L13.8152 4.49472L10.4285 6.3418V3.71032L11.3468 3.16584ZM9.97152 2.1359L7.52523 3.16972L5.03603 2.1359L7.52523 1.25371L9.97152 2.1359ZM4.57384 3.70601V6.3418L1.18243 4.49429L3.65136 3.16541L4.57384 3.70601ZM0.773538 7.0995L1.03717 4.69072L4.45358 6.55201L2.12756 7.86237L0.773538 7.0995ZM0.793347 9.05815L3.29906 10.3961L3.50798 12.7558L1.05368 11.4346L0.793347 9.05815ZM4.82993 12.4258L7.39648 10.9216V14.7015L4.82993 13.7922V12.4258ZM10.1682 13.7926L7.6554 14.6985V10.9233L10.1682 12.4146V13.7926ZM13.9496 11.4351L11.4953 12.7562L11.7042 10.3965L14.21 9.05858L13.9496 11.4351Z" fill="white" stroke="black" stroke-width="0.2"/>
</svg>
