<svg width="31" height="35" viewBox="0 0 31 35" fill="none" xmlns="http://www.w3.org/2000/svg">
<path d="M27.3836 17.4986L30.375 15.6534L29.7098 9.00121L23.5243 5.3558L21.547 6.64019V3.35604L15.2479 0.869141L8.8413 3.35502V6.632L6.85178 5.3558L0.665221 9.00121L0 15.6534L2.99759 17.5017L0.00614025 19.3469L0.671362 26.0002L6.8569 29.6446L8.83516 28.3755V31.6453L15.2418 34.1312L21.5409 31.6443V28.353L23.5294 29.6446L29.7149 26.0002L30.3801 19.3469L27.3836 17.4986ZM23.295 28.8238L15.2479 23.5951L7.09331 28.8269L6.63584 23.1694L15.1947 17.6808L23.7535 23.1694L23.295 28.8238ZM6.33495 22.6956L0.84739 19.4871L9.40111 14.2114V3.98237L14.9706 6.51533L14.9654 17.1599L6.33495 22.6956ZM24.0524 22.6956L15.5273 17.2285L15.5324 6.50919L20.9862 3.98545V14.2114L29.5399 19.4871L24.0524 22.6956ZM29.7814 15.3607L26.8483 17.1691L21.806 14.0589L29.2094 9.63778L29.7814 15.3607ZM23.5376 6.01488L28.8941 9.17213L21.545 13.5605V7.30848L23.5376 6.01488ZM20.5533 3.56789L15.2448 6.02409L9.84323 3.56789L15.2448 1.47193L20.5533 3.56789ZM8.84028 7.29825V13.5605L1.48089 9.1711L6.83848 6.01386L8.84028 7.29825ZM0.593581 15.3607L1.16567 9.63778L8.57931 14.06L3.53181 17.1732L0.593581 15.3607ZM0.636566 20.0142L6.07398 23.1929L6.52736 28.7992L1.20149 25.6604L0.636566 20.0142ZM9.396 28.0153L14.9654 24.4415V33.422L9.396 31.2616V28.0153ZM20.9801 31.2626L15.5273 33.4148V24.4456L20.9801 27.9887V31.2626ZM29.1858 25.6614L23.86 28.8002L24.3133 23.194L29.7507 20.0152L29.1858 25.6614Z"/>
</svg>
