<svg width="244" height="60" viewBox="0 0 244 60" fill="none" xmlns="http://www.w3.org/2000/svg">
<path d="M94.6497 25.3655C94.6497 33.5843 88.9637 38.7441 81.9393 38.7441C78.9284 38.7441 76.4915 37.8359 74.7248 36.0211V47.5833H65.6457V12.417H74.2947V14.9978C76.0152 12.9431 78.5481 11.9868 81.9393 11.9868C88.9637 11.9868 94.6497 17.1485 94.6497 25.3655ZM85.4746 25.3655C85.4746 21.4481 83.0858 19.2014 80.0268 19.2014C76.9678 19.2014 74.579 21.4462 74.579 25.3655C74.579 29.2829 76.9678 31.5296 80.0268 31.5296C83.0858 31.5296 85.4746 29.2847 85.4746 25.3655Z" />
<path d="M98.8509 12.417H107.928V38.314H98.8509V12.417Z" />
<path d="M130.241 38.314L125.605 31.5296L120.636 38.314H110.792L120.636 25.3655L111.08 12.417H121.306L125.893 18.9632L130.671 12.417H140.274L130.719 25.0314L140.608 38.314H130.241Z" />
<path d="M184.852 12.417L175.631 38.314H166.84L161.966 24.2191L156.9 38.314H148.109L138.888 12.417H147.489L152.793 28.0885L158.287 12.417H166.027L171.379 28.2325L176.873 12.417H184.852Z" />
<path d="M210.983 23.9333V38.3144H202.526V34.9693C201.236 37.4541 198.657 38.7445 194.881 38.7445C188.671 38.7445 185.23 35.2573 185.23 30.7657C185.23 25.988 188.717 23.025 196.744 23.025H201.904C201.762 20.3962 199.993 18.9156 196.41 18.9156C193.925 18.9156 191.154 19.7759 189.387 21.1605L186.33 14.9963C189.293 13.0376 193.689 11.9854 197.75 11.9854C206.157 11.9872 210.983 15.7145 210.983 23.9333ZM201.906 30.0014V27.7566H197.988C195.073 27.7566 194.023 28.807 194.023 30.3836C194.023 31.9121 195.265 33.0124 197.414 33.0124C199.421 33.0106 201.189 32.0561 201.906 30.0014Z" />
<path d="M243.521 12.4169L232.341 39.3644C229.618 46.0528 225.794 48.0115 220.683 48.0115C217.96 48.0115 214.901 47.1032 213.182 45.6706L216.335 39.3164C217.385 40.2708 218.916 40.8449 220.348 40.8449C222.115 40.8449 223.119 40.1766 223.884 38.6462L212.8 12.415H222.117L228.471 28.2305L234.874 12.415H243.521V12.4169Z" />
<path d="M49.396 29.9972L54.7922 26.6687L53.5922 14.6691L42.4344 8.09329L38.8677 10.4101V4.48601L27.505 0L15.9484 4.48417V10.3954L12.3596 8.09329L1.19996 14.6691L0 26.6687L5.40722 30.0028L0.0110761 33.3313L1.21104 45.3328L12.3689 51.9067L15.9374 49.6175V55.5158L27.4939 60L38.8567 55.514V49.5769L42.4436 51.9067L53.6014 45.3328L54.8014 33.3313L49.396 29.9972ZM42.0209 50.4261L27.505 40.9944L12.7953 50.4317L11.9701 40.2265L27.409 30.3258L42.8479 40.2265L42.0209 50.4261ZM11.4273 39.3717L1.52857 33.5842L16.9582 24.0676V5.61582L27.0047 10.1849L26.9955 29.3862L11.4273 39.3717ZM43.387 39.3717L28.009 29.5099L28.0182 10.1738L37.8561 5.62137V24.0676L53.2858 33.5842L43.387 39.3717ZM53.7214 26.1407L48.4305 29.4028L39.3348 23.7925L52.6895 15.8174L53.7214 26.1407ZM42.4584 9.28218L52.1209 14.9774L38.864 22.8934V11.6156L42.4584 9.28218ZM37.0752 4.86816L27.4995 9.29879L17.7558 4.86816L27.4995 1.08735L37.0752 4.86816ZM15.9466 11.5972V22.8934L2.6713 14.9755L12.3356 9.28033L15.9466 11.5972ZM1.07073 26.1407L2.1027 15.8174L15.4758 23.7943L6.37088 29.4102L1.07073 26.1407ZM1.14827 34.5349L10.9566 40.2689L11.7744 50.3818L2.16732 44.7199L1.14827 34.5349ZM16.949 48.9677L26.9955 42.5212V58.7207L16.949 54.8235V48.9677ZM37.845 54.8254L28.009 58.7077V42.5285L37.845 48.9197V54.8254ZM52.647 44.7217L43.0399 50.3837L43.8577 40.2708L53.666 34.5368L52.647 44.7217Z" />
</svg>
