<svg width="172" height="71" viewBox="0 0 172 71" fill="none" xmlns="http://www.w3.org/2000/svg">
<path d="M164.442 0H7.75782C5.72725 0 3.77986 0.831978 2.34403 2.31291C0.908206 3.79384 0.101567 5.80241 0.101567 7.89676V43.3767C0.100479 44.4144 0.29771 45.4422 0.681986 46.4013C1.06626 47.3603 1.63004 48.2319 2.3411 48.9661C3.05216 49.7003 3.89654 50.2827 4.82598 50.6801C5.75542 51.0775 6.75169 51.282 7.75782 51.282H66.1522C66.6603 51.2799 67.1484 51.4856 67.5097 51.854L84.6762 69.5598C85.0374 69.9289 85.5252 70.136 86.0337 70.136C86.5421 70.136 87.0299 69.9289 87.3911 69.5598L104.566 51.854C104.744 51.67 104.955 51.5247 105.189 51.4264C105.422 51.3282 105.672 51.2791 105.923 51.282H164.343C165.349 51.282 166.345 51.0775 167.274 50.6801C168.204 50.2827 169.048 49.7003 169.759 48.9661C170.47 48.2319 171.034 47.3603 171.418 46.4013C171.803 45.4422 172 44.4144 171.999 43.3767V7.89676C172.006 6.86616 171.817 5.84412 171.441 4.88917C171.065 3.93421 170.51 3.0651 169.809 2.33159C169.107 1.59808 168.271 1.01457 167.35 0.614484C166.43 0.214397 165.441 0.0055834 164.442 0ZM36.9757 35.8556C35.7921 36.6239 34.3353 36.8459 30.1223 36.8459C27.2419 36.8459 26.2818 36.6837 25.0651 35.9922C24.6384 35.6997 24.2723 35.3227 23.9881 34.883C23.7039 34.4433 23.5073 33.9498 23.4097 33.431C23.195 32.3239 23.0951 31.1964 23.1117 30.0674H25.4375C25.4375 32.3725 25.5038 32.7908 25.9093 33.5591C26.4639 34.6433 27.1426 34.8055 30.8755 34.8055C35.8418 34.8055 36.3963 34.353 36.3963 30.3919C36.3963 28.5991 36.0487 27.771 35.1217 27.3868C34.534 27.1307 34.534 27.1307 30.7514 26.9002C26.9688 26.6697 26.6129 26.6526 25.6031 26.166C23.9477 25.3123 23.2441 23.8696 23.2441 21.1804C23.2441 18.6876 23.7408 17.1851 24.8002 16.3484C25.8597 15.5118 27.4654 15.102 30.9997 15.102C34.9065 15.102 36.4874 15.5203 37.4475 16.8607C38.1014 17.757 38.3414 18.8498 38.3414 20.7621V21.1206H36.0239C36.0239 19.5498 35.9245 18.9437 35.5852 18.3632C35.0306 17.4412 34.0705 17.1851 31.2811 17.1851C28.0531 17.1851 26.9688 17.3729 26.3149 18.1412C25.7417 18.9551 25.4768 19.9571 25.57 20.9584C25.57 22.8793 26.0087 23.8354 27.0598 24.2537C27.7468 24.5098 27.8875 24.5355 31.3391 24.6977C35.1548 24.894 36.3053 25.116 37.2323 25.8843C38.3166 26.738 38.7139 28.0527 38.7139 30.6138C38.6808 33.525 38.1924 35.0616 36.9509 35.8897L36.9757 35.8556ZM56.9647 35.1811C56.137 36.2739 54.7051 36.7178 51.9985 36.8117C51.2205 36.8117 49.9789 36.8117 48.8946 36.8117C45.9811 36.8117 44.8058 36.5556 43.498 35.6592C42.9626 35.2179 42.5172 34.6716 42.1877 34.0517C41.8581 33.4319 41.6508 32.7509 41.5777 32.048C41.3469 30.0222 41.2336 27.9839 41.2384 25.9441C41.2384 21.2743 41.2384 20.8218 41.4536 19.6096C41.619 18.5304 42.1147 17.5341 42.8682 16.7661C43.6217 15.9982 44.5936 15.4988 45.6418 15.3411C47.3939 15.0633 49.1674 14.9547 50.9391 15.0167C53.5463 15.0167 54.5065 15.1789 55.5576 15.785C56.1317 16.1431 56.6106 16.6426 56.9515 17.2385C57.2924 17.8345 57.4847 18.5084 57.511 19.1998C57.5772 19.8742 57.6103 20.2925 57.6683 21.7609H55.3921C55.3921 19.4901 55.2679 18.8498 54.8955 18.1754C54.374 17.3217 53.4718 17.057 50.9308 17.057C48.0504 17.057 46.188 17.2192 45.4431 17.5351C44.1436 18.1412 43.738 19.2937 43.738 22.589C43.738 34.6092 43.738 34.7116 49.474 34.7116C55.0527 34.7116 55.6735 34.2933 55.6735 30.648V29.5296H57.9663C57.9331 33.3286 57.809 34.0969 56.9399 35.2153L56.9647 35.1811ZM75.4391 36.6239L73.825 32.1163H63.3546L61.7737 36.6239H59.2906L66.8475 15.2813H70.1583L77.8808 36.6239H75.4391ZM97.638 36.6239H93.7975L85.1149 22.1109L83.7244 19.712L83.0125 18.5339L82.3255 17.3729H82.2676V18.1754V36.658H79.9418V15.3154H83.7575L91.2896 28.0356L93.2761 31.3651L94.2693 33.0725L95.2294 34.7287H95.2874V33.9347V15.3325H97.6049L97.638 36.6239ZM131.979 36.6239H129.654V17.6631V17.0229H129.596C129.496 17.3473 129.405 17.5692 129.314 17.8253C129.223 18.0814 129.157 18.1754 128.851 19.0034L121.807 36.658H119.456L112.421 19.2339L112.024 18.2266L111.833 17.7144L111.651 17.2363H111.585V17.8168V36.658H109.259V15.3154H113.331L118.852 29.1284L119.721 31.3309L120.152 32.4493L120.59 33.5676H120.648L121.087 32.4493L121.517 31.3309L122.386 29.1284L127.874 15.3154H131.963L131.979 36.6239ZM149.163 17.3729H138.212V24.6037H148.691V26.6185H138.212V34.5409H149.163V36.6239H135.919V15.2813H149.163V17.3729Z"/>
</svg>
