<svg width="17" height="18" viewBox="0 0 17 18" fill="none" xmlns="http://www.w3.org/2000/svg">
<g clip-path="url(#clip0_2583_844)">
<path d="M8.50001 11.1251C9.67361 11.1251 10.625 10.1737 10.625 9.00012C10.625 7.82652 9.67361 6.87512 8.50001 6.87512C7.32641 6.87512 6.37501 7.82652 6.37501 9.00012C6.37501 10.1737 7.32641 11.1251 8.50001 11.1251Z" stroke="#353945" stroke-width="1.5" stroke-linecap="round" stroke-linejoin="round"/>
<path d="M13.7417 11.1252C13.6474 11.3388 13.6193 11.5758 13.6609 11.8056C13.7026 12.0354 13.8121 12.2474 13.9754 12.4143L14.0179 12.4568C14.1496 12.5884 14.2541 12.7446 14.3254 12.9166C14.3967 13.0886 14.4334 13.2729 14.4334 13.4591C14.4334 13.6453 14.3967 13.8296 14.3254 14.0016C14.2541 14.1736 14.1496 14.3298 14.0179 14.4614C13.8864 14.5931 13.7301 14.6976 13.5581 14.7689C13.3862 14.8402 13.2018 14.8769 13.0156 14.8769C12.8295 14.8769 12.6451 14.8402 12.4731 14.7689C12.3012 14.6976 12.1449 14.5931 12.0133 14.4614L11.9708 14.4189C11.8039 14.2556 11.5919 14.1461 11.3621 14.1044C11.1323 14.0627 10.8953 14.0909 10.6817 14.1852C10.4722 14.275 10.2935 14.424 10.1676 14.6141C10.0418 14.8041 9.97426 15.0268 9.97335 15.2547V15.3752C9.97335 15.7509 9.82409 16.1112 9.55842 16.3769C9.29274 16.6426 8.9324 16.7918 8.55668 16.7918C8.18096 16.7918 7.82062 16.6426 7.55495 16.3769C7.28927 16.1112 7.14001 15.7509 7.14001 15.3752V15.3114C7.13453 15.077 7.05864 14.8496 6.92221 14.6588C6.78578 14.4681 6.59512 14.3228 6.37501 14.2418C6.16137 14.1475 5.92438 14.1194 5.6946 14.1611C5.46482 14.2027 5.25279 14.3123 5.08585 14.4756L5.04335 14.5181C4.91178 14.6498 4.75554 14.7543 4.58356 14.8256C4.41157 14.8969 4.22723 14.9336 4.04106 14.9336C3.85488 14.9336 3.67054 14.8969 3.49856 14.8256C3.32658 14.7543 3.17034 14.6498 3.03876 14.5181C2.90705 14.3865 2.80256 14.2303 2.73126 14.0583C2.65997 13.8863 2.62328 13.702 2.62328 13.5158C2.62328 13.3296 2.65997 13.1453 2.73126 12.9733C2.80256 12.8013 2.90705 12.6451 3.03876 12.5135L3.08126 12.471C3.24456 12.3041 3.3541 12.092 3.39577 11.8622C3.43743 11.6325 3.4093 11.3955 3.31501 11.1818C3.22522 10.9723 3.07613 10.7937 2.88609 10.6678C2.69606 10.5419 2.47336 10.4744 2.24543 10.4735H2.12501C1.74929 10.4735 1.38896 10.3242 1.12328 10.0586C0.857604 9.79289 0.708348 9.43255 0.708348 9.05683C0.708348 8.68111 0.857604 8.32077 1.12328 8.0551C1.38896 7.78942 1.74929 7.64016 2.12501 7.64016H2.18876C2.42322 7.63468 2.6506 7.55879 2.84135 7.42236C3.0321 7.28593 3.1774 7.09527 3.25835 6.87516C3.35264 6.66152 3.38076 6.42453 3.3391 6.19475C3.29744 5.96497 3.1879 5.75294 3.0246 5.586L2.9821 5.5435C2.85038 5.41193 2.74589 5.25568 2.6746 5.0837C2.6033 4.91172 2.56661 4.72738 2.56661 4.5412C2.56661 4.35503 2.6033 4.17069 2.6746 3.99871C2.74589 3.82673 2.85038 3.67048 2.9821 3.53891C3.11367 3.4072 3.26991 3.3027 3.44189 3.23141C3.61387 3.16012 3.79822 3.12342 3.98439 3.12342C4.17056 3.12342 4.35491 3.16012 4.52689 3.23141C4.69887 3.3027 4.85511 3.4072 4.98668 3.53891L5.02918 3.58141C5.19612 3.74471 5.40815 3.85425 5.63793 3.89592C5.86771 3.93758 6.1047 3.90945 6.31835 3.81516H6.37501C6.58452 3.72537 6.76319 3.57628 6.88905 3.38624C7.0149 3.1962 7.08244 2.97351 7.08335 2.74558V2.62516C7.08335 2.24944 7.2326 1.8891 7.49828 1.62343C7.76396 1.35775 8.12429 1.2085 8.50001 1.2085C8.87574 1.2085 9.23607 1.35775 9.50175 1.62343C9.76743 1.8891 9.91668 2.24944 9.91668 2.62516V2.68891C9.91759 2.91684 9.98513 3.13954 10.111 3.32958C10.2368 3.51961 10.4155 3.66871 10.625 3.7585C10.8387 3.85279 11.0757 3.88091 11.3054 3.83925C11.5352 3.79759 11.7472 3.68804 11.9142 3.52475L11.9567 3.48225C12.0883 3.35053 12.2445 3.24604 12.4165 3.17474C12.5885 3.10345 12.7728 3.06676 12.959 3.06676C13.1451 3.06676 13.3295 3.10345 13.5015 3.17474C13.6735 3.24604 13.8297 3.35053 13.9613 3.48225C14.093 3.61382 14.1975 3.77006 14.2688 3.94204C14.3401 4.11402 14.3768 4.29837 14.3768 4.48454C14.3768 4.67071 14.3401 4.85506 14.2688 5.02704C14.1975 5.19902 14.093 5.35526 13.9613 5.48683L13.9188 5.52933C13.7555 5.69627 13.6459 5.9083 13.6043 6.13808C13.5626 6.36786 13.5907 6.60485 13.685 6.8185V6.87516C13.7748 7.08467 13.9239 7.26334 14.1139 7.3892C14.304 7.51505 14.5267 7.58259 14.7546 7.5835H14.875C15.2507 7.5835 15.6111 7.73275 15.8767 7.99843C16.1424 8.26411 16.2917 8.62444 16.2917 9.00016C16.2917 9.37589 16.1424 9.73622 15.8767 10.0019C15.6111 10.2676 15.2507 10.4168 14.875 10.4168H14.8113C14.5833 10.4177 14.3606 10.4853 14.1706 10.6111C13.9806 10.737 13.8315 10.9157 13.7417 11.1252V11.1252Z" stroke="#353945" stroke-width="1.5" stroke-linecap="round" stroke-linejoin="round"/>
</g>
<defs>
<clipPath id="clip0_2583_844">
<rect y="0.5" width="17" height="17" fill="white"/>
</clipPath>
</defs>
</svg>
