<svg width="18" height="17" viewBox="0 0 18 17" fill="none" xmlns="http://www.w3.org/2000/svg">
<g clip-path="url(#clip0_1649_569)">
<path d="M9.00001 10.6252C10.1736 10.6252 11.125 9.67379 11.125 8.50018C11.125 7.32658 10.1736 6.37518 9.00001 6.37518C7.8264 6.37518 6.87501 7.32658 6.87501 8.50018C6.87501 9.67379 7.8264 10.6252 9.00001 10.6252Z" stroke-width="1.5" stroke-linecap="round" stroke-linejoin="round"/>
<path d="M14.2417 10.6252C14.1474 10.8388 14.1193 11.0758 14.1609 11.3056C14.2026 11.5354 14.3121 11.7474 14.4754 11.9143L14.5179 11.9568C14.6497 12.0884 14.7541 12.2446 14.8254 12.4166C14.8967 12.5886 14.9334 12.7729 14.9334 12.9591C14.9334 13.1453 14.8967 13.3296 14.8254 13.5016C14.7541 13.6736 14.6497 13.8298 14.5179 13.9614C14.3864 14.0931 14.2301 14.1976 14.0581 14.2689C13.8862 14.3402 13.7018 14.3769 13.5156 14.3769C13.3295 14.3769 13.1451 14.3402 12.9731 14.2689C12.8012 14.1976 12.6449 14.0931 12.5134 13.9614L12.4709 13.9189C12.3039 13.7556 12.0919 13.6461 11.8621 13.6044C11.6323 13.5627 11.3953 13.5909 11.1817 13.6852C10.9722 13.775 10.7935 13.924 10.6677 14.1141C10.5418 14.3041 10.4743 14.5268 10.4734 14.7547V14.8752C10.4734 15.2509 10.3241 15.6112 10.0584 15.8769C9.79274 16.1426 9.43241 16.2918 9.05668 16.2918C8.68096 16.2918 8.32063 16.1426 8.05495 15.8769C7.78927 15.6112 7.64002 15.2509 7.64002 14.8752V14.8114C7.63453 14.577 7.55864 14.3496 7.42221 14.1588C7.28578 13.9681 7.09512 13.8228 6.87502 13.7418C6.66137 13.6475 6.42438 13.6194 6.1946 13.6611C5.96482 13.7027 5.75279 13.8123 5.58585 13.9756L5.54335 14.0181C5.41178 14.1498 5.25554 14.2543 5.08356 14.3256C4.91158 14.3969 4.72723 14.4336 4.54106 14.4336C4.35489 14.4336 4.17054 14.3969 3.99856 14.3256C3.82658 14.2543 3.67034 14.1498 3.53877 14.0181C3.40705 13.8865 3.30256 13.7303 3.23127 13.5583C3.15997 13.3863 3.12328 13.202 3.12328 13.0158C3.12328 12.8296 3.15997 12.6453 3.23127 12.4733C3.30256 12.3013 3.40705 12.1451 3.53877 12.0135L3.58127 11.971C3.74456 11.8041 3.85411 11.592 3.89577 11.3622C3.93743 11.1325 3.90931 10.8955 3.81502 10.6818C3.72523 10.4723 3.57614 10.2937 3.3861 10.1678C3.19606 10.0419 2.97337 9.97441 2.74543 9.9735H2.62502C2.24929 9.9735 1.88896 9.82424 1.62328 9.55856C1.35761 9.29289 1.20835 8.93255 1.20835 8.55683C1.20835 8.18111 1.35761 7.82077 1.62328 7.5551C1.88896 7.28942 2.24929 7.14016 2.62502 7.14016H2.68877C2.92322 7.13468 3.1506 7.05879 3.34135 6.92236C3.5321 6.78593 3.6774 6.59527 3.75835 6.37516C3.85264 6.16152 3.88077 5.92453 3.8391 5.69475C3.79744 5.46497 3.6879 5.25294 3.5246 5.086L3.4821 5.0435C3.35038 4.91193 3.24589 4.75568 3.1746 4.5837C3.10331 4.41172 3.06661 4.22738 3.06661 4.0412C3.06661 3.85503 3.10331 3.67069 3.1746 3.49871C3.24589 3.32673 3.35038 3.17048 3.4821 3.03891C3.61367 2.9072 3.76991 2.8027 3.94189 2.73141C4.11387 2.66012 4.29822 2.62342 4.48439 2.62342C4.67056 2.62342 4.85491 2.66012 5.02689 2.73141C5.19887 2.8027 5.35511 2.9072 5.48668 3.03891L5.52918 3.08141C5.69612 3.24471 5.90815 3.35425 6.13793 3.39592C6.36771 3.43758 6.60471 3.40945 6.81835 3.31516H6.87502C7.08452 3.22537 7.2632 3.07628 7.38905 2.88624C7.5149 2.6962 7.58244 2.47351 7.58335 2.24558V2.12516C7.58335 1.74944 7.73261 1.3891 7.99828 1.12343C8.26396 0.857752 8.62429 0.708496 9.00002 0.708496C9.37574 0.708496 9.73608 0.857752 10.0018 1.12343C10.2674 1.3891 10.4167 1.74944 10.4167 2.12516V2.18891C10.4176 2.41684 10.4851 2.63954 10.611 2.82958C10.7368 3.01961 10.9155 3.16871 11.125 3.2585C11.3387 3.35279 11.5757 3.38091 11.8054 3.33925C12.0352 3.29759 12.2472 3.18804 12.4142 3.02475L12.4567 2.98225C12.5883 2.85053 12.7445 2.74604 12.9165 2.67474C13.0885 2.60345 13.2728 2.56676 13.459 2.56676C13.6451 2.56676 13.8295 2.60345 14.0015 2.67474C14.1735 2.74604 14.3297 2.85053 14.4613 2.98225C14.593 3.11382 14.6975 3.27006 14.7688 3.44204C14.8401 3.61402 14.8768 3.79837 14.8768 3.98454C14.8768 4.17071 14.8401 4.35506 14.7688 4.52704C14.6975 4.69902 14.593 4.85526 14.4613 4.98683L14.4188 5.02933C14.2555 5.19627 14.1459 5.4083 14.1043 5.63808C14.0626 5.86786 14.0907 6.10485 14.185 6.3185V6.37516C14.2748 6.58467 14.4239 6.76334 14.6139 6.8892C14.804 7.01505 15.0267 7.08259 15.2546 7.0835H15.375C15.7507 7.0835 16.1111 7.23275 16.3768 7.49843C16.6424 7.76411 16.7917 8.12444 16.7917 8.50016C16.7917 8.87589 16.6424 9.23622 16.3768 9.5019C16.1111 9.76757 15.7507 9.91683 15.375 9.91683H15.3113C15.0833 9.91774 14.8606 9.98528 14.6706 10.1111C14.4806 10.237 14.3315 10.4157 14.2417 10.6252V10.6252Z" stroke-width="1.5" stroke-linecap="round" stroke-linejoin="round"/>
</g>
<defs>
<clipPath id="clip0_1649_569">
<rect x="0.5" width="17" height="17" fill="white"/>
</clipPath>
</defs>
</svg>
