<svg width="24" height="24" viewBox="0 0 24 24" fill="none" xmlns="http://www.w3.org/2000/svg">
<path d="M9.00073 22.0002C9.55302 22.0002 10.0007 21.5525 10.0007 21.0002C10.0007 20.448 9.55302 20.0002 9.00073 20.0002C8.44845 20.0002 8.00073 20.448 8.00073 21.0002C8.00073 21.5525 8.44845 22.0002 9.00073 22.0002Z"  stroke-width="2" stroke-linecap="round" stroke-linejoin="round"/>
<path d="M19.9995 22.0002C20.5518 22.0002 20.9995 21.5525 20.9995 21.0002C20.9995 20.448 20.5518 20.0002 19.9995 20.0002C19.4472 20.0002 18.9995 20.448 18.9995 21.0002C18.9995 21.5525 19.4472 22.0002 19.9995 22.0002Z"  stroke-width="2" stroke-linecap="round" stroke-linejoin="round"/>
<path d="M0.999512 1H4.99951L7.67951 14.39C7.77096 14.8504 8.02142 15.264 8.38706 15.5583C8.75269 15.8526 9.21021 16.009 9.67951 16H19.3995C19.8688 16.009 20.3263 15.8526 20.692 15.5583C21.0576 15.264 21.3081 14.8504 21.3995 14.39L22.9995 6H5.99951"  stroke-width="2" stroke-linecap="round" stroke-linejoin="round"/>
</svg>
