<svg width="32" height="32" viewBox="-2 -2 36 36" fill="none" xmlns="http://www.w3.org/2000/svg">
<g clip-path="url(#clip0_1598_1718)">
<path d="M22.7525 12.5374C22.7633 12.6885 22.7633 12.8395 22.7633 12.9905C22.7633 17.5964 19.2576 22.9036 12.8503 22.9036C10.8763 22.9036 9.04252 22.3318 7.5 21.3395C7.78047 21.3718 8.05011 21.3826 8.34137 21.3826C9.97015 21.3826 11.4695 20.8325 12.6669 19.8941C11.1351 19.8617 9.85151 18.8585 9.40925 17.4778C9.625 17.5101 9.84072 17.5317 10.0673 17.5317C10.3801 17.5317 10.6929 17.4886 10.9841 17.4131C9.3877 17.0895 8.19033 15.6872 8.19033 13.9937V13.9505C8.65414 14.2094 9.19353 14.3712 9.76518 14.3928C8.82673 13.7671 8.21191 12.6992 8.21191 11.4911C8.21191 10.8439 8.38446 10.2506 8.68651 9.73288C10.4016 11.8471 12.9797 13.2278 15.8705 13.3788C15.8166 13.1199 15.7842 12.8503 15.7842 12.5806C15.7842 10.6605 17.3375 9.09647 19.2683 9.09647C20.2715 9.09647 21.1776 9.51716 21.814 10.1967C22.6014 10.0457 23.3565 9.75446 24.0253 9.35536C23.7664 10.1644 23.2163 10.844 22.4936 11.2754C23.1948 11.1999 23.8743 11.0057 24.4999 10.7361C24.0254 11.4264 23.4321 12.0412 22.7525 12.5374V12.5374Z" />
</g>
<path d="M16 30C8.26801 30 2 23.732 2 16H-2C-2 25.9411 6.05887 34 16 34V30ZM30 16C30 23.732 23.732 30 16 30V34C25.9411 34 34 25.9411 34 16H30ZM16 2C23.732 2 30 8.26801 30 16H34C34 6.05887 25.9411 -2 16 -2V2ZM16 -2C6.05887 -2 -2 6.05887 -2 16H2C2 8.26801 8.26801 2 16 2V-2Z" />
<defs>
<clipPath id="clip0_1598_1718">
<rect width="17" height="17" fill="white" transform="translate(7.5 7.5)"/>
</clipPath>
</defs>
</svg>
