<svg width="25" height="25" viewBox="0 0 25 25" fill="none" xmlns="http://www.w3.org/2000/svg">
<g clip-path="url(#clip0_9477_244927)">
<path d="M17.2665 21.0014L17.2662 19.0014C17.2661 17.9405 16.8445 16.9231 16.0942 16.1731C15.344 15.4231 14.3265 15.0018 13.2656 15.0019L5.26563 15.0031C4.20476 15.0033 3.1874 15.4248 2.43737 16.1751C1.68733 16.9254 1.26605 17.9428 1.26621 19.0037L1.2665 21.0037" stroke-width="2.12592" stroke-linecap="round" stroke-linejoin="round"/>
<path d="M9.26679 11.0027C11.4759 11.0024 13.2665 9.21124 13.2662 7.0021C13.2659 4.79296 11.4748 3.00236 9.26563 3.00268C7.05649 3.003 5.26589 4.79413 5.26621 7.00327C5.26653 9.21241 7.05765 11.003 9.26679 11.0027Z" stroke-width="2.12592" stroke-linecap="round" stroke-linejoin="round"/>
<path d="M23.2665 21.0004L23.2662 19.0004C23.2654 18.1141 22.9703 17.2532 22.4272 16.5528C21.8841 15.8524 21.1238 15.3522 20.2656 15.1308" stroke-width="2.12592" stroke-linecap="round" stroke-linejoin="round"/>
<path d="M16.2656 3.13153C17.1261 3.35171 17.8888 3.852 18.4335 4.55353C18.9782 5.25506 19.2739 6.11792 19.274 7.00609C19.2742 7.89426 18.9787 8.75722 18.4342 9.4589C17.8897 10.1606 17.1271 10.6611 16.2668 10.8815" stroke-width="2.12592" stroke-linecap="round" stroke-linejoin="round"/>
</g>
<defs>
<clipPath id="clip0_9477_244927">
<rect width="24" height="24" fill="white" transform="translate(0.265625 0.00390625)"/>
</clipPath>
</defs>
</svg>
