<svg width="113" height="106" viewBox="0 0 113 106" fill="none" xmlns="http://www.w3.org/2000/svg">
<g clip-path="url(#clip0_995_22626)">
<path d="M53.8323 105.997C39.682 105.997 25.5317 105.997 11.3813 105.997C6.08782 105.997 2.17075 103.351 0.607781 98.7858C0.191111 97.5301 -0.0142776 96.2142 -3.9897e-05 94.8914C-3.9897e-05 74.9538 -3.9897e-05 55.0173 -3.9897e-05 35.0818C-3.9897e-05 28.4488 4.55058 23.9701 11.2173 23.9572C12.5423 23.9572 13.8673 23.8994 15.1858 23.9765C16.0059 24.0246 16.3597 23.7421 16.6588 22.9844C19.0032 17.0417 21.3959 11.1053 23.7822 5.18825C25.0332 2.08042 27.3133 0.321036 30.674 0.0224531C32.0601 -0.0995484 33.3626 0.266456 34.6393 0.796199C52.8739 8.38383 71.1096 15.9672 89.3464 23.5463C90.0084 23.8197 90.7172 23.9625 91.4336 23.9668C93.9163 24.015 96.4087 23.7742 98.8818 24.1242C101.285 24.4672 103.491 25.6421 105.114 27.4437C106.738 29.2452 107.676 31.5589 107.764 33.9806C107.867 37.981 107.816 41.9845 107.793 45.9881C107.793 46.7362 107.919 47.0893 108.774 47.2434C111.228 47.6929 112.955 49.7669 112.955 52.3996C113.006 60.7663 113.006 69.1331 112.955 77.4998C112.955 80.2352 111.231 82.229 108.568 82.7427C107.845 82.8807 107.787 83.205 107.79 83.7829C107.803 87.4215 107.803 91.0602 107.79 94.6988C107.79 101.56 103.387 105.971 96.5341 105.978C82.3023 106.003 68.0684 106.01 53.8323 105.997Z" fill="#18253A"/>
<path d="M53.9062 100.886C39.7109 100.886 25.5166 100.886 11.3234 100.886C8.7249 100.886 6.72455 99.9994 5.57645 97.585C5.2053 96.6958 5.03933 95.7346 5.09084 94.7726C5.09084 74.8799 5.09084 54.9862 5.09084 35.0914C5.09084 31.2708 7.41277 29.0138 11.2591 29.0138C39.6862 29.0138 68.1134 29.0063 96.5405 28.9913C100.557 28.9913 102.905 31.8808 102.731 35.1781C102.545 38.7707 102.654 42.3794 102.731 45.9816C102.731 46.9191 102.452 47.0861 101.586 47.0829C94.4105 47.0486 87.2281 47.0486 80.0393 47.0829C72.7776 47.1214 67.1979 50.2356 63.7568 56.6375C57.968 67.3736 64.49 80.4342 76.5435 82.5885C77.8095 82.7821 79.0903 82.8627 80.3706 82.8293C87.4264 82.8453 94.4855 82.8582 101.541 82.8132C102.506 82.8132 102.722 83.1022 102.712 84.0172C102.661 87.8185 102.712 91.623 102.686 95.4243C102.714 96.7743 102.223 98.0837 101.316 99.085C100.409 100.086 99.1526 100.704 97.8044 100.812C97.248 100.863 96.6852 100.882 96.1257 100.882L53.9062 100.886Z" fill="white"/>
<path d="M107.803 52.5024C108.041 52.8684 107.935 53.2793 107.935 53.671C107.935 61.233 107.935 68.7938 107.935 76.3537C107.935 77.8626 107.899 77.8979 106.382 77.8979C97.8056 77.8979 89.2296 77.8979 80.6537 77.8979C75.4052 77.8979 71.1472 76.0133 68.4168 71.342C64.1814 64.0957 68.1531 54.647 76.3121 52.5505C77.4359 52.2503 78.5931 52.0928 79.7564 52.0818C84.6029 52.1043 89.4462 52.2198 94.2926 52.3001C95.1256 52.4767 95.9714 52.3418 96.814 52.3836H105.323C106.15 52.4478 106.989 52.2487 107.803 52.5024Z" />
<path d="M76.6078 23.9186C76.2637 24.2397 75.8457 24.0471 75.4694 24.0824C68.198 24.7438 61.3191 23.3247 54.5076 20.7306C48.0756 18.2745 41.4218 16.3289 34.8708 14.1489C33.0602 13.5485 31.6323 13.5068 30.7737 15.9468C29.915 18.3868 28.9438 20.7306 28.0401 23.1321C27.8053 23.7742 27.5384 24.137 26.7537 24.0952C25.3965 24.0342 24.0297 24.0631 22.6662 24.0952C21.9844 24.0952 21.7014 23.9893 22.023 23.2123C24.2388 17.7544 26.3967 12.2515 28.6222 6.78707C29.2396 5.26526 30.3234 4.86073 31.9314 5.3969C35.5204 6.56233 38.9133 8.13872 42.3673 9.63163C44.9143 10.7329 47.5321 11.6607 50.0856 12.717C52.6391 13.7733 55.2569 14.9355 57.8554 16.0142C60.9942 17.3177 64.1491 18.5827 67.2879 19.8669C70.3592 21.1351 73.4208 22.4354 76.4824 23.7196C76.5403 23.7356 76.5628 23.8352 76.6078 23.9186Z" />
<path d="M47.8538 23.9379H33.1825L34.6329 20.0018C34.7937 19.5683 35.0928 19.517 35.4948 19.6518L47.886 23.7581L47.8538 23.9379Z" fill="white"/>
<path d="M101.014 52.4959H96.6821C96.6049 52.451 96.576 52.4092 96.6017 52.3643C96.6274 52.3194 96.6531 52.2969 96.6789 52.2969H101.011C101.091 52.3386 101.117 52.3803 101.091 52.4253C101.065 52.4702 101.04 52.4959 101.014 52.4959Z" />
<path d="M101.014 52.4959C101.014 52.4285 101.014 52.3643 101.014 52.3H105.343C105.423 52.3418 105.452 52.3835 105.426 52.4253C105.401 52.467 105.375 52.4927 105.349 52.4927L101.014 52.4959Z" />
<path d="M96.6788 52.3C96.6788 52.3675 96.6788 52.4317 96.6788 52.4991C95.8845 52.4124 95.0548 52.7078 94.2861 52.3H96.6788Z" />
<path d="M105.346 52.4927C105.346 52.4285 105.346 52.3643 105.346 52.3001C106.169 52.345 107.025 52.0047 107.809 52.5023L105.346 52.4927Z" />
<path d="M28.3296 49.6096C31.5777 49.6096 34.8248 49.6096 38.0708 49.6096C39.9039 49.6096 41.0745 50.6048 41.0874 52.1363C41.1002 53.6677 39.9328 54.7047 38.1094 54.7047C31.5316 54.7047 24.956 54.7047 18.3825 54.7047C16.5784 54.7047 15.3884 53.642 15.4174 52.1363C15.4463 50.6305 16.6202 49.6352 18.4661 49.632C21.7529 49.6128 25.0407 49.6053 28.3296 49.6096Z" fill="#18253A"/>
<path d="M23.1775 39.3327C24.7855 39.3327 26.3935 39.3102 27.9757 39.3327C29.6577 39.3648 30.7447 40.344 30.7897 41.8112C30.8347 43.3555 29.7896 44.4471 28.0497 44.476C24.7694 44.5231 21.4891 44.5231 18.2088 44.476C16.5172 44.4503 15.3627 43.2817 15.4205 41.8241C15.4784 40.3665 16.6008 39.3648 18.257 39.3359C19.9133 39.307 21.547 39.3327 23.1775 39.3327Z" fill="#18253A"/>
<path d="M79.6824 57.3021C81.2013 57.3205 82.6809 57.7875 83.9344 58.6442C85.1879 59.5008 86.1593 60.7088 86.7261 62.1159C87.2929 63.5229 87.4297 65.066 87.1193 66.5505C86.8089 68.035 86.0652 69.3946 84.9819 70.4578C83.8986 71.5209 82.5242 72.2401 81.0321 72.5246C79.5399 72.8091 77.9968 72.6461 76.5973 72.0564C75.1978 71.4666 74.0045 70.4763 73.1679 69.2105C72.3314 67.9446 71.8889 66.4598 71.8965 64.9433C71.9194 62.901 72.7512 60.9508 74.2102 59.519C75.6691 58.0871 77.6365 57.2901 79.6824 57.3021Z" fill="#18253A"/>
<path d="M80.3706 62.5707C81.6828 63.1904 82.4385 64.3526 82.2005 65.38C81.9368 66.5197 80.8177 67.5278 79.721 67.6274C78.6244 67.7269 77.4184 66.8376 77.055 65.6304C76.6755 64.3654 77.3926 63.1165 78.8141 62.5804C79.3215 62.4295 79.8614 62.4262 80.3706 62.5707Z" />
<path d="M80.3706 62.5706H78.8141C79.0402 62.4062 79.3127 62.3176 79.5924 62.3176C79.8721 62.3176 80.1445 62.4062 80.3706 62.5706Z" />
</g>
<defs>
<clipPath id="clip0_995_22626">
<rect width="113" height="106" fill="white"/>
</clipPath>
</defs>
</svg>
