<svg width="32" height="32" viewBox="-2 -2 36 36" fill="none" xmlns="http://www.w3.org/2000/svg">
<path d="M21.596 10.325C20.1004 8.825 18.1086 8 15.9919 8C11.623 8 8.06782 11.5571 8.06782 15.9286C8.06782 17.325 8.4319 18.6893 9.12437 19.8929L8 24L12.2012 22.8964C13.3577 23.5286 14.6606 23.8607 15.9884 23.8607H15.9919C20.3574 23.8607 23.991 20.3036 23.991 15.9321C23.991 13.8143 23.0915 11.825 21.596 10.325ZM15.9919 22.525C14.8069 22.525 13.6468 22.2071 12.6367 21.6071L12.3975 21.4643L9.90607 22.1179L10.57 19.6857L10.4129 19.4357C9.75259 18.3857 9.40635 17.175 9.40635 15.9286C9.40635 12.2964 12.3618 9.33929 15.9955 9.33929C17.7552 9.33929 19.4079 10.025 20.6501 11.2714C21.8922 12.5179 22.6561 14.1714 22.6525 15.9321C22.6525 19.5679 19.6221 22.525 15.9919 22.525ZM19.6042 17.5893C19.4079 17.4893 18.4334 17.0107 18.2514 16.9464C18.0694 16.8786 17.9373 16.8464 17.8052 17.0464C17.6732 17.2464 17.2948 17.6893 17.177 17.825C17.0628 17.9571 16.945 17.975 16.7487 17.875C15.585 17.2929 14.8212 16.8357 14.0538 15.5179C13.8503 15.1679 14.2572 15.1929 14.6356 14.4357C14.6998 14.3036 14.6677 14.1893 14.6177 14.0893C14.5677 13.9893 14.1715 13.0143 14.0073 12.6179C13.8467 12.2321 13.6825 12.2857 13.5612 12.2786C13.4469 12.2714 13.3149 12.2714 13.1828 12.2714C13.0507 12.2714 12.8366 12.3214 12.6545 12.5179C12.4725 12.7179 11.9621 13.1964 11.9621 14.1714C11.9621 15.1464 12.6724 16.0893 12.7688 16.2214C12.8687 16.3536 14.1644 18.3536 16.1526 19.2143C17.409 19.7571 17.9016 19.8036 18.5298 19.7107C18.9117 19.6536 19.7006 19.2321 19.8648 18.7679C20.029 18.3036 20.029 17.9071 19.979 17.825C19.9326 17.7357 19.8005 17.6857 19.6042 17.5893Z" />
<path d="M16 30C8.26801 30 2 23.732 2 16H-2C-2 25.9411 6.05887 34 16 34V30ZM30 16C30 23.732 23.732 30 16 30V34C25.9411 34 34 25.9411 34 16H30ZM16 2C23.732 2 30 8.26801 30 16H34C34 6.05887 25.9411 -2 16 -2V2ZM16 -2C6.05887 -2 -2 6.05887 -2 16H2C2 8.26801 8.26801 2 16 2V-2Z" />
</svg>
