<svg width="19" height="18" viewBox="0 0 19 18" fill="none" xmlns="http://www.w3.org/2000/svg">
<g clip-path="url(#clip0_1377_1512)">
<path fill-rule="evenodd" clip-rule="evenodd" d="M7.77339 13.5C8.61285 13.5 9.44409 13.34 10.2196 13.029C10.9952 12.7181 11.6999 12.2623 12.2935 11.6877C12.8871 11.1132 13.3579 10.4311 13.6792 9.68035C14.0004 8.92965 14.1658 8.12505 14.1658 7.3125C14.1658 6.49995 14.0004 5.69535 13.6792 4.94465C13.3579 4.19394 12.8871 3.51184 12.2935 2.93728C11.6999 2.36271 10.9952 1.90695 10.2196 1.596C9.44409 1.28504 8.61285 1.125 7.77339 1.125C6.07802 1.125 4.45209 1.7769 3.25329 2.93728C2.05448 4.09766 1.381 5.67147 1.381 7.3125C1.381 8.95353 2.05448 10.5273 3.25329 11.6877C4.45209 12.8481 6.07802 13.5 7.77339 13.5ZM15.328 7.3125C15.328 9.2519 14.5321 11.1119 13.1153 12.4832C11.6986 13.8546 9.777 14.625 7.77339 14.625C5.76977 14.625 3.84822 13.8546 2.43145 12.4832C1.01468 11.1119 0.21875 9.2519 0.21875 7.3125C0.21875 5.3731 1.01468 3.51314 2.43145 2.14178C3.84822 0.770422 5.76977 0 7.77339 0C9.777 0 11.6986 0.770422 13.1153 2.14178C14.5321 3.51314 15.328 5.3731 15.328 7.3125Z"/>
<path d="M12.2402 13.2097C12.2751 13.2547 12.3123 13.2974 12.3541 13.3391L16.8288 17.6703C17.0467 17.8814 17.3424 18 17.6507 18.0002C17.959 18.0003 18.2547 17.8818 18.4728 17.6709C18.6909 17.4599 18.8135 17.1738 18.8136 16.8753C18.8137 16.5769 18.6913 16.2906 18.4734 16.0796L13.9987 11.7483C13.9572 11.7076 13.9125 11.67 13.8651 11.6358C13.4091 12.2375 12.8612 12.7686 12.2402 13.2108V13.2097Z"/>
<path fill-rule="evenodd" clip-rule="evenodd" d="M7.77296 3.375C7.92708 3.375 8.07489 3.43426 8.18388 3.53975C8.29286 3.64524 8.35408 3.78832 8.35408 3.9375V6.75H11.2597C11.4138 6.75 11.5616 6.80926 11.6706 6.91475C11.7796 7.02024 11.8408 7.16332 11.8408 7.3125C11.8408 7.46168 11.7796 7.60476 11.6706 7.71025C11.5616 7.81574 11.4138 7.875 11.2597 7.875H8.35408V10.6875C8.35408 10.8367 8.29286 10.9798 8.18388 11.0852C8.07489 11.1907 7.92708 11.25 7.77296 11.25C7.61883 11.25 7.47102 11.1907 7.36204 11.0852C7.25306 10.9798 7.19183 10.8367 7.19183 10.6875V7.875H4.2862C4.13208 7.875 3.98427 7.81574 3.87529 7.71025C3.7663 7.60476 3.70508 7.46168 3.70508 7.3125C3.70508 7.16332 3.7663 7.02024 3.87529 6.91475C3.98427 6.80926 4.13208 6.75 4.2862 6.75H7.19183V3.9375C7.19183 3.78832 7.25306 3.64524 7.36204 3.53975C7.47102 3.43426 7.61883 3.375 7.77296 3.375Z"/>
</g>
<defs>
<clipPath id="clip0_1377_1512">
<rect width="18.596" height="18" fill="white" transform="translate(0.21875)"/>
</clipPath>
</defs>
</svg>
