<svg width="38" height="23" viewBox="0 0 38 23" fill="none" xmlns="http://www.w3.org/2000/svg">
<path d="M31.0556 6.33809L29.8643 7.52942L30.8913 8.55642L32.0826 7.3651L31.0556 6.33809Z" fill="#231F20"/>
<path d="M36.4708 0.893428L33.585 3.7793L34.612 4.8063L37.4978 1.92043L36.4708 0.893428Z" fill="#231F20"/>
<path d="M32.913 4.45833L31.7217 5.64966L32.7487 6.67666L33.94 5.48533L32.913 4.45833Z" fill="#231F20"/>
<path d="M29.3495 4.81601L28.1582 6.00732L29.1852 7.03432L30.3765 5.84301L29.3495 4.81601Z" fill="#231F20"/>
<path d="M33.6762 0.480825L30.0098 4.14722L31.0368 5.17422L34.7032 1.50783L33.6762 0.480825Z" fill="#231F20"/>
<path d="M4.64712 11.6424L3.62012 12.6694L10.7167 19.766L11.7437 18.739L4.64712 11.6424Z" fill="#231F20"/>
<path d="M30.9483 -5.30297e-05L26.5527 4.39551L27.5797 5.42251L31.9753 1.02695L30.9483 -5.30297e-05Z" fill="#231F20"/>
<path d="M7.89516 11.614L6.86816 12.641L12.3523 18.1252L13.3793 17.0982L7.89516 11.614Z" fill="#231F20"/>
<path d="M13.055 19.9454L13.3019 19.6985L13.5198 19.4807L13.6215 19.379L14.6382 18.3623L15.2191 17.7814L16.2358 16.7647L26.8964 6.10408L25.8797 5.0874L15.6839 15.2832L10.5569 20.3957L10.2955 20.6571L1.36324 11.7103L0.332031 12.7415L10.1648 22.5743L10.2955 22.705L11.9803 21.0202L13.055 19.9454Z" fill="#231F20"/>
<path d="M19.4609 19.9745L30.2086 9.22676L29.192 8.19556L18.4297 18.9578L16.9918 20.3957L16.832 20.5555L16.498 20.2069L15.4668 21.2236L16.7013 22.4581L16.832 22.5888L18.0085 21.4124L19.4609 19.9745Z" fill="#231F20"/>
<path d="M17.4562 18.7546L17.8483 18.3625L18.9521 17.2586L28.5089 7.71638L27.4777 6.68518L16.8316 17.3458L15.8004 18.3625L15.234 18.9434L14.2028 19.9601L13.5783 20.5846L13.2442 20.2506L12.2275 21.2673L13.4476 22.5018L13.5783 22.6325L14.9145 21.3108L17.4562 18.7546Z" fill="#231F20"/>
</svg>
