<svg width="38" height="22" viewBox="0 0 38 22" fill="none" xmlns="http://www.w3.org/2000/svg">
<path d="M30.1595 7.28606L29.0518 8.3938L30.0067 9.34874L31.1144 8.241L30.1595 7.28606Z" fill="#231F20"/>
<path d="M33.6312 3.82256L32.5234 4.9303L33.4784 5.88524L34.5861 4.7775L33.6312 3.82256Z" fill="#231F20"/>
<path d="M28.5648 5.8936L27.457 7.00134L28.412 7.95629L29.5197 6.84855L28.5648 5.8936Z" fill="#231F20"/>
<path d="M31.8802 5.54729L30.7725 6.65503L31.7274 7.60997L32.8351 6.50223L31.8802 5.54729Z" fill="#231F20"/>
<path d="M33.6043 0.831011L30.9209 3.5144L31.8758 4.46935L34.5592 1.78596L33.6043 0.831011Z" fill="#231F20"/>
<path d="M30.2952 4.14543L29.1875 5.25317L30.1424 6.20812L31.2502 5.10038L30.2952 4.14543Z" fill="#231F20"/>
<path d="M26.9837 4.47808L25.876 5.58582L26.8309 6.54076L27.9387 5.43303L26.9837 4.47808Z" fill="#231F20"/>
<path d="M10.0135 10.7977L9.05859 11.7527L12.6683 15.3624L13.6232 14.4074L10.0135 10.7977Z" fill="#231F20"/>
<path d="M18.3251 19.1135L18.001 18.8029L17.0557 19.7482L17.3663 20.0723L18.3251 21.0177L29.3587 9.97062L28.4133 9.02527L18.3251 19.1135Z" fill="#231F20"/>
<path d="M31.0058 0.447047L27.5967 3.8562L28.5516 4.81115L31.9608 1.40199L31.0058 0.447047Z" fill="#231F20"/>
<path d="M36.2113 1.21861L34.2441 3.18579L35.1991 4.14074L37.1663 2.17355L36.2113 1.21861Z" fill="#231F20"/>
<path d="M4.01256 10.8253L3.05762 11.7803L9.65629 18.3789L10.6112 17.424L4.01256 10.8253Z" fill="#231F20"/>
<path d="M28.469 -5.72446e-06L24.3818 4.08716L25.3368 5.0421L29.4239 0.95494L28.469 -5.72446e-06Z" fill="#231F20"/>
<path d="M7.03405 10.7992L6.0791 11.7542L11.1785 16.8536L12.1335 15.8986L7.03405 10.7992Z" fill="#231F20"/>
<path d="M11.8304 18.5462L12.0599 18.3166L12.2625 18.114L12.357 18.0195L13.3024 17.0741L13.8426 16.5339L14.7879 15.5886L24.7006 5.67594L23.7552 4.73059L14.2748 14.2111L9.50749 18.9648L9.26441 19.2079L0.958861 10.8889L0 11.8477L9.14287 20.9906L9.26441 21.1121L10.831 19.5455L11.8304 18.5462Z" fill="#231F20"/>
<path d="M17.7871 18.5731L27.7808 8.57946L26.8354 7.62061L16.8283 17.6278L15.4913 18.9648L15.3427 19.1133L15.0321 18.7892L14.0732 19.7346L15.2212 20.8825L15.3427 21.004L16.4366 19.9101L17.7871 18.5731Z" fill="#231F20"/>
<path d="M15.9223 17.4387L16.287 17.0741L17.3134 16.0477L26.1996 7.17492L25.2408 6.21606L15.3416 16.1287L14.3828 17.0741L13.8561 17.6143L12.8972 18.5596L12.3165 19.1403L12.0059 18.8297L11.0605 19.775L12.195 20.923L12.3165 21.0445L13.559 19.8156L15.9223 17.4387Z" fill="#231F20"/>
</svg>
