<svg width="13" height="12" viewBox="0 0 13 12" fill="none" xmlns="http://www.w3.org/2000/svg">
<path d="M7.03997 0.367009C6.79942 -0.0476292 6.20058 -0.0476292 5.96003 0.367009L4.26559 3.28712C4.14674 3.49195 3.94131 3.63173 3.70715 3.66709L0.531695 4.1467C-0.00164377 4.22726 -0.188726 4.90066 0.226637 5.24478L2.59222 7.20463C2.81119 7.38606 2.91415 7.67224 2.86096 7.95156L2.24216 11.2012C2.14433 11.7149 2.68361 12.114 3.14632 11.8704L6.1364 10.296C6.36396 10.1762 6.63598 10.1762 6.8636 10.296L9.85369 11.8704C10.3164 12.114 10.8557 11.7149 10.7578 11.2012L10.1391 7.95156C10.0859 7.67224 10.1888 7.38606 10.4078 7.20463L12.7734 5.24478C13.1887 4.90066 13.0017 4.22726 12.4683 4.1467L9.29287 3.66709C9.05869 3.63173 8.85329 3.49195 8.73442 3.28712L7.03997 0.367009Z" fill="#F5CB27"/>
</svg>
