<svg width="580" height="389" viewBox="0 0 580 389" fill="none" xmlns="http://www.w3.org/2000/svg">
<rect width="580" height="389" rx="8" fill="#35394C"/>
<circle cx="33.5" cy="91.5" r="16.5" fill="#4E8EEE"/>
<rect x="17" y="60" width="33" height="3" fill="#4E8EEE"/>
<path d="M66 24C66 19.5817 69.5817 16 74 16H152V352H66V24Z" fill="#5682C3"/>
<rect x="66" y="352" width="86" height="37" fill="#466BA4"/>
<path d="M497 41H580V381C580 385.418 576.418 389 572 389H497V41Z" fill="#5682C3"/>
<rect x="160" y="361" width="329" height="20" rx="4" fill="#466BA4"/>
<rect x="187" y="235" width="70" height="6" rx="3" fill="#5682C3"/>
<rect x="187" y="106" width="70" height="6" rx="3" fill="#5682C3"/>
<rect x="94" y="361" width="44" height="4" rx="2" fill="#95A9C8"/>
<rect x="94" y="367" width="21" height="4" rx="2" fill="#95A9C8"/>
<rect x="160" y="255" width="302" height="6" rx="3" fill="#5682C3"/>
<rect x="160" y="126" width="302" height="6" rx="3" fill="#5682C3"/>
<rect x="160" y="265" width="302" height="6" rx="3" fill="#5682C3"/>
<rect x="160" y="136" width="302" height="6" rx="3" fill="#5682C3"/>
<rect x="160" y="275" width="302" height="6" rx="3" fill="#5682C3"/>
<rect x="160" y="146" width="302" height="6" rx="3" fill="#5682C3"/>
<rect x="160" y="285" width="278" height="6" rx="3" fill="#5682C3"/>
<rect x="160" y="156" width="278" height="6" rx="3" fill="#5682C3"/>
<rect x="160" y="295" width="217" height="6" rx="3" fill="#5682C3"/>
<rect x="160" y="166" width="217" height="6" rx="3" fill="#5682C3"/>
<rect x="160" y="305" width="157" height="6" rx="3" fill="#5682C3"/>
<rect x="160" y="176" width="157" height="6" rx="3" fill="#5682C3"/>
<rect x="160" y="315" width="73" height="6" rx="3" fill="#5682C3"/>
<rect x="160" y="186" width="73" height="6" rx="3" fill="#5682C3"/>
<rect x="160" y="328" width="73" height="19" rx="4" fill="#5682C3"/>
<rect x="160" y="199" width="43" height="19" rx="4" fill="#5682C3"/>
<circle cx="169.5" cy="238.5" r="9.5" fill="#4E8EEE"/>
<circle cx="169.5" cy="109.5" r="9.5" fill="#4E8EEE"/>
<path d="M123.417 379.667C123.477 379.667 123.535 379.688 123.581 379.728C123.627 379.768 123.656 379.823 123.664 379.883L123.667 379.917V380.083C123.667 380.651 123.452 381.198 123.066 381.614C122.679 382.03 122.15 382.285 121.584 382.327L121.583 383.083C121.583 383.147 121.559 383.207 121.516 383.254C121.473 383.3 121.414 383.328 121.35 383.333C121.287 383.337 121.225 383.317 121.176 383.277C121.126 383.237 121.094 383.18 121.086 383.117L121.083 383.083V382.327C120.531 382.286 120.012 382.042 119.628 381.643C119.244 381.243 119.021 380.716 119.001 380.162L119 380.083V379.917C119 379.853 119.024 379.792 119.067 379.746C119.111 379.7 119.17 379.671 119.233 379.667C119.296 379.663 119.359 379.683 119.408 379.723C119.457 379.763 119.489 379.82 119.498 379.883L119.5 379.917V380.083C119.5 380.535 119.675 380.969 119.987 381.295C120.3 381.621 120.727 381.813 121.178 381.832L121.25 381.833H121.417C121.868 381.833 122.303 381.659 122.628 381.346C122.954 381.033 123.147 380.606 123.165 380.155L123.167 380.083V379.917C123.167 379.85 123.193 379.787 123.24 379.74C123.287 379.693 123.35 379.667 123.417 379.667ZM121.333 376.667C121.687 376.667 122.026 376.807 122.276 377.057C122.526 377.307 122.667 377.646 122.667 378V380C122.667 380.353 122.526 380.693 122.276 380.943C122.026 381.193 121.687 381.333 121.333 381.333C120.98 381.333 120.641 381.193 120.391 380.943C120.14 380.693 120 380.353 120 380V378C120 377.646 120.14 377.307 120.391 377.057C120.641 376.807 120.98 376.667 121.333 376.667Z" fill="#95A9C8"/>
<path d="M134.333 380.167V382.5C134.333 382.677 134.263 382.847 134.138 382.972C134.013 383.097 133.843 383.167 133.667 383.167H133C132.823 383.167 132.654 383.097 132.529 382.972C132.404 382.847 132.333 382.677 132.333 382.5V380.833C132.333 380.657 132.404 380.487 132.529 380.362C132.654 380.237 132.823 380.167 133 380.167H133.667C133.667 379.46 133.386 378.781 132.886 378.281C132.385 377.781 131.707 377.5 131 377.5C130.293 377.5 129.614 377.781 129.114 378.281C128.614 378.781 128.333 379.46 128.333 380.167H129C129.177 380.167 129.346 380.237 129.471 380.362C129.596 380.487 129.667 380.657 129.667 380.833V382.5C129.667 382.677 129.596 382.847 129.471 382.972C129.346 383.097 129.177 383.167 129 383.167H128.333C128.156 383.167 127.987 383.097 127.862 382.972C127.737 382.847 127.667 382.677 127.667 382.5V380.167C127.667 378.326 129.159 376.833 131 376.833C132.841 376.833 134.333 378.326 134.333 380.167Z" fill="#95A9C8"/>
<path d="M142.94 383.333H141.727C141.651 383.333 141.577 383.307 141.518 383.26C141.459 383.212 141.417 383.145 141.401 383.071L141.265 382.443C141.084 382.364 140.913 382.265 140.754 382.148L140.141 382.343C140.069 382.366 139.991 382.363 139.92 382.336C139.849 382.308 139.789 382.257 139.751 382.192L139.143 381.141C139.106 381.075 139.092 380.998 139.103 380.923C139.115 380.848 139.152 380.78 139.208 380.728L139.683 380.295C139.661 380.099 139.661 379.9 139.683 379.704L139.208 379.272C139.152 379.22 139.115 379.152 139.103 379.076C139.092 379.001 139.106 378.924 139.143 378.859L139.75 377.808C139.788 377.742 139.848 377.691 139.918 377.663C139.989 377.636 140.068 377.633 140.14 377.657L140.752 377.852C140.834 377.792 140.918 377.736 141.006 377.685C141.09 377.638 141.177 377.595 141.265 377.556L141.401 376.929C141.418 376.855 141.459 376.788 141.518 376.74C141.577 376.693 141.651 376.667 141.727 376.667H142.94C143.016 376.667 143.09 376.693 143.149 376.74C143.208 376.788 143.249 376.855 143.265 376.929L143.403 377.557C143.583 377.636 143.755 377.735 143.914 377.852L144.527 377.657C144.6 377.634 144.678 377.637 144.749 377.664C144.819 377.691 144.879 377.742 144.917 377.808L145.523 378.859C145.601 378.995 145.574 379.167 145.459 379.272L144.984 379.706C145.006 379.902 145.006 380.1 144.984 380.296L145.459 380.73C145.574 380.836 145.601 381.007 145.523 381.143L144.917 382.194C144.879 382.259 144.819 382.31 144.748 382.338C144.677 382.365 144.599 382.368 144.527 382.345L143.914 382.15C143.755 382.267 143.584 382.366 143.403 382.445L143.265 383.071C143.249 383.145 143.208 383.212 143.149 383.259C143.09 383.307 143.016 383.333 142.94 383.333ZM142.332 378.667C141.978 378.667 141.639 378.807 141.389 379.057C141.139 379.307 140.999 379.646 140.999 380C140.999 380.353 141.139 380.693 141.389 380.943C141.639 381.193 141.978 381.333 142.332 381.333C142.686 381.333 143.025 381.193 143.275 380.943C143.525 380.693 143.665 380.353 143.665 380C143.665 379.646 143.525 379.307 143.275 379.057C143.025 378.807 142.686 378.667 142.332 378.667Z" fill="#95A9C8"/>
<circle cx="80" cy="366" r="10" fill="#95A9C8"/>
<path d="M80 365.417C80.4614 365.417 80.9126 365.28 81.2963 365.023C81.68 364.767 81.9791 364.403 82.1557 363.976C82.3323 363.55 82.3785 363.081 82.2885 362.628C82.1984 362.176 81.9762 361.76 81.6499 361.433C81.3236 361.107 80.9078 360.885 80.4552 360.795C80.0025 360.705 79.5334 360.751 79.107 360.928C78.6807 361.104 78.3163 361.403 78.0599 361.787C77.8035 362.171 77.6666 362.622 77.6666 363.083C77.6666 363.702 77.9125 364.296 78.35 364.733C78.7876 365.171 79.3811 365.417 80 365.417ZM83.5 371.25C83.6547 371.25 83.803 371.189 83.9124 371.079C84.0218 370.97 84.0833 370.821 84.0833 370.667C84.0833 369.584 83.6531 368.545 82.8873 367.779C82.1215 367.014 81.0829 366.583 80 366.583C78.917 366.583 77.8784 367.014 77.1126 367.779C76.3468 368.545 75.9166 369.584 75.9166 370.667C75.9166 370.821 75.9781 370.97 76.0875 371.079C76.1969 371.189 76.3452 371.25 76.5 371.25H83.5Z" fill="#295BA6"/>
<path d="M74.259 52.557C74.259 52.081 74.3687 51.654 74.588 51.276C74.812 50.898 75.113 50.604 75.491 50.394C75.8737 50.1793 76.2913 50.072 76.744 50.072C77.262 50.072 77.7217 50.2003 78.123 50.457C78.529 50.709 78.823 51.0683 79.005 51.535H78.046C77.92 51.2783 77.745 51.087 77.521 50.961C77.297 50.835 77.038 50.772 76.744 50.772C76.422 50.772 76.135 50.8443 75.883 50.989C75.631 51.1337 75.4327 51.3413 75.288 51.612C75.148 51.8827 75.078 52.1977 75.078 52.557C75.078 52.9163 75.148 53.2313 75.288 53.502C75.4327 53.7727 75.631 53.9827 75.883 54.132C76.135 54.2767 76.422 54.349 76.744 54.349C77.038 54.349 77.297 54.286 77.521 54.16C77.745 54.034 77.92 53.8427 78.046 53.586H79.005C78.823 54.0527 78.529 54.412 78.123 54.664C77.7217 54.916 77.262 55.042 76.744 55.042C76.2867 55.042 75.869 54.937 75.491 54.727C75.113 54.5123 74.812 54.216 74.588 53.838C74.3687 53.46 74.259 53.033 74.259 52.557ZM82.1581 55.049C81.7054 55.049 81.2877 54.944 80.9051 54.734C80.5271 54.5193 80.2261 54.223 80.0021 53.845C79.7827 53.4623 79.6731 53.033 79.6731 52.557C79.6731 52.081 79.7827 51.654 80.0021 51.276C80.2261 50.898 80.5271 50.604 80.9051 50.394C81.2877 50.1793 81.7054 50.072 82.1581 50.072C82.6154 50.072 83.0331 50.1793 83.4111 50.394C83.7937 50.604 84.0947 50.898 84.3141 51.276C84.5334 51.654 84.6431 52.081 84.6431 52.557C84.6431 53.033 84.5334 53.4623 84.3141 53.845C84.0947 54.223 83.7937 54.5193 83.4111 54.734C83.0331 54.944 82.6154 55.049 82.1581 55.049ZM82.1581 54.356C82.4801 54.356 82.7671 54.2837 83.0191 54.139C83.2711 53.9897 83.4671 53.7797 83.6071 53.509C83.7517 53.2337 83.8241 52.9163 83.8241 52.557C83.8241 52.1977 83.7517 51.8827 83.6071 51.612C83.4671 51.3413 83.2711 51.1337 83.0191 50.989C82.7671 50.8443 82.4801 50.772 82.1581 50.772C81.8361 50.772 81.5491 50.8443 81.2971 50.989C81.0451 51.1337 80.8467 51.3413 80.7021 51.612C80.5621 51.8827 80.4921 52.1977 80.4921 52.557C80.4921 52.9163 80.5621 53.2337 80.7021 53.509C80.8467 53.7797 81.0451 53.9897 81.2971 54.139C81.5491 54.2837 81.8361 54.356 82.1581 54.356ZM89.4253 55H88.6273L86.2263 51.367V55H85.4283V50.128H86.2263L88.6273 53.754V50.128H89.4253V55ZM91.2712 50.779V52.207H92.9512V52.858H91.2712V54.349H93.1612V55H90.4732V50.128H93.1612V50.779H91.2712ZM93.8781 52.557C93.8781 52.081 93.9878 51.654 94.2071 51.276C94.4311 50.898 94.7321 50.604 95.1101 50.394C95.4928 50.1793 95.9105 50.072 96.3631 50.072C96.8811 50.072 97.3408 50.2003 97.7421 50.457C98.1481 50.709 98.4421 51.0683 98.6241 51.535H97.6651C97.5391 51.2783 97.3641 51.087 97.1401 50.961C96.9161 50.835 96.6571 50.772 96.3631 50.772C96.0411 50.772 95.7541 50.8443 95.5021 50.989C95.2501 51.1337 95.0518 51.3413 94.9071 51.612C94.7671 51.8827 94.6971 52.1977 94.6971 52.557C94.6971 52.9163 94.7671 53.2313 94.9071 53.502C95.0518 53.7727 95.2501 53.9827 95.5021 54.132C95.7541 54.2767 96.0411 54.349 96.3631 54.349C96.6571 54.349 96.9161 54.286 97.1401 54.16C97.3641 54.034 97.5391 53.8427 97.6651 53.586H98.6241C98.4421 54.0527 98.1481 54.412 97.7421 54.664C97.3408 54.916 96.8811 55.042 96.3631 55.042C95.9058 55.042 95.4881 54.937 95.1101 54.727C94.7321 54.5123 94.4311 54.216 94.2071 53.838C93.9878 53.46 93.8781 53.033 93.8781 52.557ZM102.701 50.135V50.786H101.406V55H100.608V50.786H99.3062V50.135H102.701ZM104.307 50.779V52.207H105.987V52.858H104.307V54.349H106.197V55H103.509V50.128H106.197V50.779H104.307ZM110.602 55.049C110.275 55.049 109.981 54.993 109.72 54.881C109.458 54.7643 109.253 54.601 109.104 54.391C108.954 54.181 108.88 53.936 108.88 53.656H109.734C109.752 53.866 109.834 54.0387 109.979 54.174C110.128 54.3093 110.336 54.377 110.602 54.377C110.877 54.377 111.092 54.3117 111.246 54.181C111.4 54.0457 111.477 53.873 111.477 53.663C111.477 53.4997 111.428 53.3667 111.33 53.264C111.236 53.1613 111.117 53.082 110.973 53.026C110.833 52.97 110.637 52.9093 110.385 52.844C110.067 52.76 109.808 52.676 109.608 52.592C109.412 52.5033 109.244 52.368 109.104 52.186C108.964 52.004 108.894 51.7613 108.894 51.458C108.894 51.178 108.964 50.933 109.104 50.723C109.244 50.513 109.44 50.352 109.692 50.24C109.944 50.128 110.235 50.072 110.567 50.072C111.038 50.072 111.423 50.191 111.722 50.429C112.025 50.6623 112.193 50.9843 112.226 51.395H111.344C111.33 51.2177 111.246 51.066 111.092 50.94C110.938 50.814 110.735 50.751 110.483 50.751C110.254 50.751 110.067 50.8093 109.923 50.926C109.778 51.0427 109.706 51.2107 109.706 51.43C109.706 51.5793 109.75 51.703 109.839 51.801C109.932 51.8943 110.049 51.969 110.189 52.025C110.329 52.081 110.52 52.1417 110.763 52.207C111.085 52.2957 111.346 52.3843 111.547 52.473C111.752 52.5617 111.925 52.6993 112.065 52.886C112.209 53.068 112.282 53.313 112.282 53.621C112.282 53.8683 112.214 54.1017 112.079 54.321C111.948 54.5403 111.754 54.7177 111.498 54.853C111.246 54.9837 110.947 55.049 110.602 55.049ZM114.021 50.779V52.207H115.701V52.858H114.021V54.349H115.911V55H113.223V50.128H115.911V50.779H114.021ZM117.685 50.135V53.236C117.685 53.6047 117.781 53.8823 117.972 54.069C118.168 54.2557 118.439 54.349 118.784 54.349C119.134 54.349 119.405 54.2557 119.596 54.069C119.792 53.8823 119.89 53.6047 119.89 53.236V50.135H120.688V53.222C120.688 53.6187 120.602 53.9547 120.429 54.23C120.256 54.5053 120.025 54.7107 119.736 54.846C119.447 54.9813 119.127 55.049 118.777 55.049C118.427 55.049 118.107 54.9813 117.818 54.846C117.533 54.7107 117.307 54.5053 117.139 54.23C116.971 53.9547 116.887 53.6187 116.887 53.222V50.135H117.685ZM126.689 50.135V50.786H125.394V55H124.596V50.786H123.294V50.135H126.689ZM129.716 55.049C129.263 55.049 128.845 54.944 128.463 54.734C128.085 54.5193 127.784 54.223 127.56 53.845C127.34 53.4623 127.231 53.033 127.231 52.557C127.231 52.081 127.34 51.654 127.56 51.276C127.784 50.898 128.085 50.604 128.463 50.394C128.845 50.1793 129.263 50.072 129.716 50.072C130.173 50.072 130.591 50.1793 130.969 50.394C131.351 50.604 131.652 50.898 131.872 51.276C132.091 51.654 132.201 52.081 132.201 52.557C132.201 53.033 132.091 53.4623 131.872 53.845C131.652 54.223 131.351 54.5193 130.969 54.734C130.591 54.944 130.173 55.049 129.716 55.049ZM129.716 54.356C130.038 54.356 130.325 54.2837 130.577 54.139C130.829 53.9897 131.025 53.7797 131.165 53.509C131.309 53.2337 131.382 52.9163 131.382 52.557C131.382 52.1977 131.309 51.8827 131.165 51.612C131.025 51.3413 130.829 51.1337 130.577 50.989C130.325 50.8443 130.038 50.772 129.716 50.772C129.394 50.772 129.107 50.8443 128.855 50.989C128.603 51.1337 128.404 51.3413 128.26 51.612C128.12 51.8827 128.05 52.1977 128.05 52.557C128.05 52.9163 128.12 53.2337 128.26 53.509C128.404 53.7797 128.603 53.9897 128.855 54.139C129.107 54.2837 129.394 54.356 129.716 54.356ZM135.667 55L133.784 52.823V55H132.986V50.135H133.784V52.354L135.674 50.135H136.675L134.561 52.571L136.71 55H135.667ZM138.214 50.779V52.207H139.894V52.858H138.214V54.349H140.104V55H137.416V50.128H140.104V50.779H138.214ZM145.084 55H144.286L141.885 51.367V55H141.087V50.128H141.885L144.286 53.754V50.128H145.084V55Z" fill="#0E3D85"/>
<path d="M78.606 67.794L78.347 69.005H79.271V69.705H78.2L77.92 71H77.157L77.437 69.705H76.065L75.785 71H75.022L75.302 69.705H74.217V69.005H75.449L75.708 67.794H74.63V67.094H75.855L76.128 65.82H76.891L76.618 67.094H77.99L78.263 65.82H79.026L78.753 67.094H79.684V67.794H78.606ZM77.843 67.794H76.471L76.212 69.005H77.584L77.843 67.794ZM80.3635 69.068C80.3635 68.6713 80.4428 68.3237 80.6015 68.025C80.7648 67.7217 80.9888 67.4883 81.2735 67.325C81.5582 67.1617 81.8848 67.08 82.2535 67.08C82.7202 67.08 83.1052 67.192 83.4085 67.416C83.7165 67.6353 83.9242 67.9503 84.0315 68.361H83.1705C83.1005 68.1697 82.9885 68.0203 82.8345 67.913C82.6805 67.8057 82.4868 67.752 82.2535 67.752C81.9268 67.752 81.6655 67.8687 81.4695 68.102C81.2782 68.3307 81.1825 68.6527 81.1825 69.068C81.1825 69.4833 81.2782 69.8077 81.4695 70.041C81.6655 70.2743 81.9268 70.391 82.2535 70.391C82.7155 70.391 83.0212 70.188 83.1705 69.782H84.0315C83.9195 70.174 83.7095 70.4867 83.4015 70.72C83.0935 70.9487 82.7108 71.063 82.2535 71.063C81.8848 71.063 81.5582 70.9813 81.2735 70.818C80.9888 70.65 80.7648 70.4167 80.6015 70.118C80.4428 69.8147 80.3635 69.4647 80.3635 69.068ZM86.4998 71.063C86.1358 71.063 85.8068 70.9813 85.5128 70.818C85.2188 70.65 84.9878 70.4167 84.8198 70.118C84.6518 69.8147 84.5678 69.4647 84.5678 69.068C84.5678 68.676 84.6541 68.3283 84.8268 68.025C84.9994 67.7217 85.2351 67.4883 85.5338 67.325C85.8324 67.1617 86.1661 67.08 86.5348 67.08C86.9034 67.08 87.2371 67.1617 87.5358 67.325C87.8344 67.4883 88.0701 67.7217 88.2428 68.025C88.4154 68.3283 88.5018 68.676 88.5018 69.068C88.5018 69.46 88.4131 69.8077 88.2358 70.111C88.0584 70.4143 87.8158 70.65 87.5078 70.818C87.2044 70.9813 86.8684 71.063 86.4998 71.063ZM86.4998 70.37C86.7051 70.37 86.8964 70.321 87.0738 70.223C87.2558 70.125 87.4028 69.978 87.5148 69.782C87.6268 69.586 87.6828 69.348 87.6828 69.068C87.6828 68.788 87.6291 68.5523 87.5218 68.361C87.4144 68.165 87.2721 68.018 87.0948 67.92C86.9174 67.822 86.7261 67.773 86.5208 67.773C86.3154 67.773 86.1241 67.822 85.9468 67.92C85.7741 68.018 85.6364 68.165 85.5338 68.361C85.4311 68.5523 85.3798 68.788 85.3798 69.068C85.3798 69.4833 85.4848 69.8053 85.6948 70.034C85.9094 70.258 86.1778 70.37 86.4998 70.37ZM91.2366 67.08C91.54 67.08 91.8106 67.143 92.0486 67.269C92.2913 67.395 92.4803 67.5817 92.6156 67.829C92.751 68.0763 92.8186 68.375 92.8186 68.725V71H92.0276V68.844C92.0276 68.4987 91.9413 68.235 91.7686 68.053C91.596 67.8663 91.3603 67.773 91.0616 67.773C90.763 67.773 90.525 67.8663 90.3476 68.053C90.175 68.235 90.0886 68.4987 90.0886 68.844V71H89.2906V67.143H90.0886V67.584C90.2193 67.4253 90.385 67.3017 90.5856 67.213C90.791 67.1243 91.008 67.08 91.2366 67.08ZM97.3715 68.977C97.3715 69.1217 97.3622 69.2523 97.3435 69.369H94.3965C94.4199 69.677 94.5342 69.9243 94.7395 70.111C94.9449 70.2977 95.1969 70.391 95.4955 70.391C95.9249 70.391 96.2282 70.2113 96.4055 69.852H97.2665C97.1499 70.2067 96.9375 70.4983 96.6295 70.727C96.3262 70.951 95.9482 71.063 95.4955 71.063C95.1269 71.063 94.7955 70.9813 94.5015 70.818C94.2122 70.65 93.9835 70.4167 93.8155 70.118C93.6522 69.8147 93.5705 69.4647 93.5705 69.068C93.5705 68.6713 93.6499 68.3237 93.8085 68.025C93.9719 67.7217 94.1982 67.4883 94.4875 67.325C94.7815 67.1617 95.1175 67.08 95.4955 67.08C95.8595 67.08 96.1839 67.1593 96.4685 67.318C96.7532 67.4767 96.9749 67.7007 97.1335 67.99C97.2922 68.2747 97.3715 68.6037 97.3715 68.977ZM96.5385 68.725C96.5339 68.431 96.4289 68.1953 96.2235 68.018C96.0182 67.8407 95.7639 67.752 95.4605 67.752C95.1852 67.752 94.9495 67.8407 94.7535 68.018C94.5575 68.1907 94.4409 68.4263 94.4035 68.725H96.5385ZM97.8908 69.068C97.8908 68.6713 97.9702 68.3237 98.1288 68.025C98.2922 67.7217 98.5162 67.4883 98.8008 67.325C99.0855 67.1617 99.4122 67.08 99.7808 67.08C100.248 67.08 100.633 67.192 100.936 67.416C101.244 67.6353 101.452 67.9503 101.559 68.361H100.698C100.628 68.1697 100.516 68.0203 100.362 67.913C100.208 67.8057 100.014 67.752 99.7808 67.752C99.4542 67.752 99.1928 67.8687 98.9968 68.102C98.8055 68.3307 98.7098 68.6527 98.7098 69.068C98.7098 69.4833 98.8055 69.8077 98.9968 70.041C99.1928 70.2743 99.4542 70.391 99.7808 70.391C100.243 70.391 100.549 70.188 100.698 69.782H101.559C101.447 70.174 101.237 70.4867 100.929 70.72C100.621 70.9487 100.238 71.063 99.7808 71.063C99.4122 71.063 99.0855 70.9813 98.8008 70.818C98.5162 70.65 98.2922 70.4167 98.1288 70.118C97.9702 69.8147 97.8908 69.4647 97.8908 69.068ZM103.285 67.794V69.929C103.285 70.0737 103.318 70.1787 103.383 70.244C103.453 70.3047 103.57 70.335 103.733 70.335H104.223V71H103.593C103.234 71 102.958 70.916 102.767 70.748C102.576 70.58 102.48 70.307 102.48 69.929V67.794H102.025V67.143H102.48V66.184H103.285V67.143H104.223V67.794H103.285ZM108.494 68.977C108.494 69.1217 108.484 69.2523 108.466 69.369H105.519C105.542 69.677 105.656 69.9243 105.862 70.111C106.067 70.2977 106.319 70.391 106.618 70.391C107.047 70.391 107.35 70.2113 107.528 69.852H108.389C108.272 70.2067 108.06 70.4983 107.752 70.727C107.448 70.951 107.07 71.063 106.618 71.063C106.249 71.063 105.918 70.9813 105.624 70.818C105.334 70.65 105.106 70.4167 104.938 70.118C104.774 69.8147 104.693 69.4647 104.693 69.068C104.693 68.6713 104.772 68.3237 104.931 68.025C105.094 67.7217 105.32 67.4883 105.61 67.325C105.904 67.1617 106.24 67.08 106.618 67.08C106.982 67.08 107.306 67.1593 107.591 67.318C107.875 67.4767 108.097 67.7007 108.256 67.99C108.414 68.2747 108.494 68.6037 108.494 68.977ZM107.661 68.725C107.656 68.431 107.551 68.1953 107.346 68.018C107.14 67.8407 106.886 67.752 106.583 67.752C106.307 67.752 106.072 67.8407 105.876 68.018C105.68 68.1907 105.563 68.4263 105.526 68.725H107.661ZM112.24 68.13V68.802H109.363V68.13H112.24ZM114.774 71.063C114.47 71.063 114.197 71.0093 113.955 70.902C113.717 70.79 113.528 70.6407 113.388 70.454C113.248 70.2627 113.173 70.0503 113.164 69.817H113.99C114.004 69.9803 114.081 70.118 114.221 70.23C114.365 70.3373 114.545 70.391 114.76 70.391C114.984 70.391 115.156 70.349 115.278 70.265C115.404 70.1763 115.467 70.0643 115.467 69.929C115.467 69.7843 115.397 69.677 115.257 69.607C115.121 69.537 114.904 69.46 114.606 69.376C114.316 69.2967 114.081 69.2197 113.899 69.145C113.717 69.0703 113.558 68.956 113.423 68.802C113.292 68.648 113.227 68.445 113.227 68.193C113.227 67.9877 113.287 67.801 113.409 67.633C113.53 67.4603 113.703 67.325 113.927 67.227C114.155 67.129 114.417 67.08 114.711 67.08C115.149 67.08 115.502 67.192 115.768 67.416C116.038 67.6353 116.183 67.9363 116.202 68.319H115.404C115.39 68.1463 115.32 68.0087 115.194 67.906C115.068 67.8033 114.897 67.752 114.683 67.752C114.473 67.752 114.312 67.7917 114.2 67.871C114.088 67.9503 114.032 68.0553 114.032 68.186C114.032 68.2887 114.069 68.375 114.144 68.445C114.218 68.515 114.309 68.571 114.417 68.613C114.524 68.6503 114.683 68.6993 114.893 68.76C115.173 68.8347 115.401 68.9117 115.579 68.991C115.761 69.0657 115.917 69.1777 116.048 69.327C116.178 69.4763 116.246 69.6747 116.251 69.922C116.251 70.1413 116.19 70.3373 116.069 70.51C115.947 70.6827 115.775 70.818 115.551 70.916C115.331 71.014 115.072 71.063 114.774 71.063ZM120.648 68.977C120.648 69.1217 120.639 69.2523 120.62 69.369H117.673C117.696 69.677 117.811 69.9243 118.016 70.111C118.221 70.2977 118.473 70.391 118.772 70.391C119.201 70.391 119.505 70.2113 119.682 69.852H120.543C120.426 70.2067 120.214 70.4983 119.906 70.727C119.603 70.951 119.225 71.063 118.772 71.063C118.403 71.063 118.072 70.9813 117.778 70.818C117.489 70.65 117.26 70.4167 117.092 70.118C116.929 69.8147 116.847 69.4647 116.847 69.068C116.847 68.6713 116.926 68.3237 117.085 68.025C117.248 67.7217 117.475 67.4883 117.764 67.325C118.058 67.1617 118.394 67.08 118.772 67.08C119.136 67.08 119.46 67.1593 119.745 67.318C120.03 67.4767 120.251 67.7007 120.41 67.99C120.569 68.2747 120.648 68.6037 120.648 68.977ZM119.815 68.725C119.81 68.431 119.705 68.1953 119.5 68.018C119.295 67.8407 119.04 67.752 118.737 67.752C118.462 67.752 118.226 67.8407 118.03 68.018C117.834 68.1907 117.717 68.4263 117.68 68.725H119.815Z" fill="#0E3D85"/>
<circle cx="33.5" cy="36.5" r="16.5" fill="#4E8EEE"/>
<g clip-path="url(#clip0_1707_101586)">
<path d="M41.4833 28.5012C39.9749 27.7907 38.3792 27.2858 36.7383 27C36.5339 27.372 36.2951 27.8724 36.1304 28.2705C34.3612 28.0027 32.6082 28.0027 30.8716 28.2705C30.707 27.8725 30.4628 27.372 30.2565 27C28.614 27.286 27.0169 27.7921 25.5078 28.5049C22.5049 33.0736 21.6908 37.5286 22.0978 41.9206C24.0895 43.4181 26.0197 44.3278 27.9174 44.923C28.389 44.2701 28.8059 43.5788 29.1638 42.8563C28.4825 42.5951 27.8256 42.2733 27.2011 41.8946C27.3654 41.772 27.5259 41.6441 27.6823 41.5113C31.4667 43.2934 35.5787 43.2934 39.3179 41.5113C39.475 41.6433 39.6354 41.7711 39.7991 41.8946C39.1735 42.2743 38.5155 42.5968 37.8327 42.8582C38.1927 43.5836 38.6088 44.2756 39.0791 44.9248C40.9786 44.3297 42.9106 43.42 44.9024 41.9206C45.38 36.8293 44.0866 32.415 41.4833 28.5011V28.5012ZM29.6794 39.2196C28.5433 39.2196 27.6117 38.1519 27.6117 36.8516C27.6117 35.5514 28.5235 34.4818 29.6794 34.4818C30.8354 34.4818 31.767 35.5495 31.7472 36.8516C31.749 38.1519 30.8354 39.2196 29.6794 39.2196ZM37.3207 39.2196C36.1846 39.2196 35.2531 38.1519 35.2531 36.8516C35.2531 35.5514 36.1648 34.4818 37.3207 34.4818C38.4767 34.4818 39.4083 35.5495 39.3885 36.8516C39.3885 38.1519 38.4767 39.2196 37.3207 39.2196Z" fill="white"/>
</g>
<path d="M66 24C66 19.5817 69.5817 16 74 16H580V41H66V24Z" fill="#295BA6" fill-opacity="0.63"/>
<path d="M81.927 27.584C81.927 27.8313 81.8687 28.0647 81.752 28.284C81.6353 28.5033 81.4487 28.683 81.192 28.823C80.9353 28.9583 80.6063 29.026 80.205 29.026H79.323V31H78.525V26.135H80.205C80.5783 26.135 80.8933 26.2003 81.15 26.331C81.4113 26.457 81.605 26.6297 81.731 26.849C81.8617 27.0683 81.927 27.3133 81.927 27.584ZM80.205 28.375C80.5083 28.375 80.7347 28.3073 80.884 28.172C81.0333 28.032 81.108 27.836 81.108 27.584C81.108 27.052 80.807 26.786 80.205 26.786H79.323V28.375H80.205ZM83.4861 27.703C83.6028 27.507 83.7568 27.3553 83.9481 27.248C84.1441 27.136 84.3751 27.08 84.6411 27.08V27.906H84.4381C84.1254 27.906 83.8874 27.9853 83.7241 28.144C83.5654 28.3027 83.4861 28.578 83.4861 28.97V31H82.6881V27.143H83.4861V27.703ZM85.7806 26.632C85.6359 26.632 85.5146 26.583 85.4166 26.485C85.3186 26.387 85.2696 26.2657 85.2696 26.121C85.2696 25.9763 85.3186 25.855 85.4166 25.757C85.5146 25.659 85.6359 25.61 85.7806 25.61C85.9206 25.61 86.0396 25.659 86.1376 25.757C86.2356 25.855 86.2846 25.9763 86.2846 26.121C86.2846 26.2657 86.2356 26.387 86.1376 26.485C86.0396 26.583 85.9206 26.632 85.7806 26.632ZM86.1726 27.143V31H85.3746V27.143H86.1726ZM91.8893 27.08C92.1926 27.08 92.4633 27.143 92.7013 27.269C92.944 27.395 93.133 27.5817 93.2683 27.829C93.4083 28.0763 93.4783 28.375 93.4783 28.725V31H92.6873V28.844C92.6873 28.4987 92.601 28.235 92.4283 28.053C92.2556 27.8663 92.02 27.773 91.7213 27.773C91.4226 27.773 91.1846 27.8663 91.0073 28.053C90.8346 28.235 90.7483 28.4987 90.7483 28.844V31H89.9573V28.844C89.9573 28.4987 89.871 28.235 89.6983 28.053C89.5256 27.8663 89.29 27.773 88.9913 27.773C88.6926 27.773 88.4546 27.8663 88.2773 28.053C88.1046 28.235 88.0183 28.4987 88.0183 28.844V31H87.2203V27.143H88.0183V27.584C88.149 27.4253 88.3146 27.3017 88.5153 27.213C88.716 27.1243 88.9306 27.08 89.1593 27.08C89.4673 27.08 89.7426 27.1453 89.9853 27.276C90.228 27.4067 90.4146 27.5957 90.5453 27.843C90.662 27.6097 90.844 27.4253 91.0913 27.29C91.3386 27.15 91.6046 27.08 91.8893 27.08ZM98.0288 28.977C98.0288 29.1217 98.0194 29.2523 98.0008 29.369H95.0538C95.0771 29.677 95.1914 29.9243 95.3968 30.111C95.6021 30.2977 95.8541 30.391 96.1528 30.391C96.5821 30.391 96.8854 30.2113 97.0628 29.852H97.9237C97.8071 30.2067 97.5948 30.4983 97.2868 30.727C96.9834 30.951 96.6054 31.063 96.1528 31.063C95.7841 31.063 95.4528 30.9813 95.1588 30.818C94.8694 30.65 94.6408 30.4167 94.4728 30.118C94.3094 29.8147 94.2278 29.4647 94.2278 29.068C94.2278 28.6713 94.3071 28.3237 94.4658 28.025C94.6291 27.7217 94.8554 27.4883 95.1448 27.325C95.4388 27.1617 95.7748 27.08 96.1528 27.08C96.5168 27.08 96.8411 27.1593 97.1258 27.318C97.4104 27.4767 97.6321 27.7007 97.7908 27.99C97.9494 28.2747 98.0288 28.6037 98.0288 28.977ZM97.1958 28.725C97.1911 28.431 97.0861 28.1953 96.8808 28.018C96.6754 27.8407 96.4211 27.752 96.1178 27.752C95.8424 27.752 95.6068 27.8407 95.4108 28.018C95.2148 28.1907 95.0981 28.4263 95.0608 28.725H97.1958ZM100.417 31.049C100.09 31.049 99.7964 30.993 99.5351 30.881C99.2737 30.7643 99.0684 30.601 98.9191 30.391C98.7697 30.181 98.6951 29.936 98.6951 29.656H99.5491C99.5677 29.866 99.6494 30.0387 99.7941 30.174C99.9434 30.3093 100.151 30.377 100.417 30.377C100.692 30.377 100.907 30.3117 101.061 30.181C101.215 30.0457 101.292 29.873 101.292 29.663C101.292 29.4997 101.243 29.3667 101.145 29.264C101.052 29.1613 100.933 29.082 100.788 29.026C100.648 28.97 100.452 28.9093 100.2 28.844C99.8827 28.76 99.6237 28.676 99.4231 28.592C99.2271 28.5033 99.0591 28.368 98.9191 28.186C98.7791 28.004 98.7091 27.7613 98.7091 27.458C98.7091 27.178 98.7791 26.933 98.9191 26.723C99.0591 26.513 99.2551 26.352 99.5071 26.24C99.7591 26.128 100.051 26.072 100.382 26.072C100.853 26.072 101.238 26.191 101.537 26.429C101.84 26.6623 102.008 26.9843 102.041 27.395H101.159C101.145 27.2177 101.061 27.066 100.907 26.94C100.753 26.814 100.55 26.751 100.298 26.751C100.069 26.751 99.8827 26.8093 99.7381 26.926C99.5934 27.0427 99.5211 27.2107 99.5211 27.43C99.5211 27.5793 99.5654 27.703 99.6541 27.801C99.7474 27.8943 99.8641 27.969 100.004 28.025C100.144 28.081 100.335 28.1417 100.578 28.207C100.9 28.2957 101.161 28.3843 101.362 28.473C101.567 28.5617 101.74 28.6993 101.88 28.886C102.025 29.068 102.097 29.313 102.097 29.621C102.097 29.8683 102.029 30.1017 101.894 30.321C101.763 30.5403 101.57 30.7177 101.313 30.853C101.061 30.9837 100.762 31.049 100.417 31.049ZM106.574 28.977C106.574 29.1217 106.564 29.2523 106.546 29.369H103.599C103.622 29.677 103.736 29.9243 103.942 30.111C104.147 30.2977 104.399 30.391 104.698 30.391C105.127 30.391 105.43 30.2113 105.608 29.852H106.469C106.352 30.2067 106.14 30.4983 105.832 30.727C105.528 30.951 105.15 31.063 104.698 31.063C104.329 31.063 103.998 30.9813 103.704 30.818C103.414 30.65 103.186 30.4167 103.018 30.118C102.854 29.8147 102.773 29.4647 102.773 29.068C102.773 28.6713 102.852 28.3237 103.011 28.025C103.174 27.7217 103.4 27.4883 103.69 27.325C103.984 27.1617 104.32 27.08 104.698 27.08C105.062 27.08 105.386 27.1593 105.671 27.318C105.955 27.4767 106.177 27.7007 106.336 27.99C106.494 28.2747 106.574 28.6037 106.574 28.977ZM105.741 28.725C105.736 28.431 105.631 28.1953 105.426 28.018C105.22 27.8407 104.966 27.752 104.663 27.752C104.387 27.752 104.152 27.8407 103.956 28.018C103.76 28.1907 103.643 28.4263 103.606 28.725H105.741ZM107.093 29.054C107.093 28.6667 107.172 28.3237 107.331 28.025C107.494 27.7263 107.714 27.4953 107.989 27.332C108.269 27.164 108.577 27.08 108.913 27.08C109.216 27.08 109.48 27.1407 109.704 27.262C109.933 27.3787 110.115 27.5257 110.25 27.703V27.143H111.055V31H110.25V30.426C110.115 30.608 109.93 30.7597 109.697 30.881C109.464 31.0023 109.198 31.063 108.899 31.063C108.568 31.063 108.264 30.979 107.989 30.811C107.714 30.6383 107.494 30.4003 107.331 30.097C107.172 29.789 107.093 29.4413 107.093 29.054ZM110.25 29.068C110.25 28.802 110.194 28.571 110.082 28.375C109.975 28.179 109.832 28.0297 109.655 27.927C109.478 27.8243 109.286 27.773 109.081 27.773C108.876 27.773 108.684 27.8243 108.507 27.927C108.33 28.025 108.185 28.172 108.073 28.368C107.966 28.5593 107.912 28.788 107.912 29.054C107.912 29.32 107.966 29.5533 108.073 29.754C108.185 29.9547 108.33 30.1087 108.507 30.216C108.689 30.3187 108.88 30.37 109.081 30.37C109.286 30.37 109.478 30.3187 109.655 30.216C109.832 30.1133 109.975 29.964 110.082 29.768C110.194 29.5673 110.25 29.334 110.25 29.068Z" fill="white"/>
<path d="M168.259 337.557C168.259 337.081 168.369 336.654 168.588 336.276C168.812 335.898 169.113 335.604 169.491 335.394C169.874 335.179 170.291 335.072 170.744 335.072C171.262 335.072 171.722 335.2 172.123 335.457C172.529 335.709 172.823 336.068 173.005 336.535H172.046C171.92 336.278 171.745 336.087 171.521 335.961C171.297 335.835 171.038 335.772 170.744 335.772C170.422 335.772 170.135 335.844 169.883 335.989C169.631 336.134 169.433 336.341 169.288 336.612C169.148 336.883 169.078 337.198 169.078 337.557C169.078 337.916 169.148 338.231 169.288 338.502C169.433 338.773 169.631 338.983 169.883 339.132C170.135 339.277 170.422 339.349 170.744 339.349C171.038 339.349 171.297 339.286 171.521 339.16C171.745 339.034 171.92 338.843 172.046 338.586H173.005C172.823 339.053 172.529 339.412 172.123 339.664C171.722 339.916 171.262 340.042 170.744 340.042C170.287 340.042 169.869 339.937 169.491 339.727C169.113 339.512 168.812 339.216 168.588 338.838C168.369 338.46 168.259 338.033 168.259 337.557ZM175.612 340.063C175.248 340.063 174.919 339.981 174.625 339.818C174.331 339.65 174.1 339.417 173.932 339.118C173.764 338.815 173.68 338.465 173.68 338.068C173.68 337.676 173.766 337.328 173.939 337.025C174.112 336.722 174.347 336.488 174.646 336.325C174.945 336.162 175.278 336.08 175.647 336.08C176.016 336.08 176.349 336.162 176.648 336.325C176.947 336.488 177.182 336.722 177.355 337.025C177.528 337.328 177.614 337.676 177.614 338.068C177.614 338.46 177.525 338.808 177.348 339.111C177.171 339.414 176.928 339.65 176.62 339.818C176.317 339.981 175.981 340.063 175.612 340.063ZM175.612 339.37C175.817 339.37 176.009 339.321 176.186 339.223C176.368 339.125 176.515 338.978 176.627 338.782C176.739 338.586 176.795 338.348 176.795 338.068C176.795 337.788 176.741 337.552 176.634 337.361C176.527 337.165 176.384 337.018 176.207 336.92C176.03 336.822 175.838 336.773 175.633 336.773C175.428 336.773 175.236 336.822 175.059 336.92C174.886 337.018 174.749 337.165 174.646 337.361C174.543 337.552 174.492 337.788 174.492 338.068C174.492 338.483 174.597 338.805 174.807 339.034C175.022 339.258 175.29 339.37 175.612 339.37ZM180.349 336.08C180.652 336.08 180.923 336.143 181.161 336.269C181.404 336.395 181.593 336.582 181.728 336.829C181.863 337.076 181.931 337.375 181.931 337.725V340H181.14V337.844C181.14 337.499 181.054 337.235 180.881 337.053C180.708 336.866 180.473 336.773 180.174 336.773C179.875 336.773 179.637 336.866 179.46 337.053C179.287 337.235 179.201 337.499 179.201 337.844V340H178.403V336.143H179.201V336.584C179.332 336.425 179.497 336.302 179.698 336.213C179.903 336.124 180.12 336.08 180.349 336.08ZM184.895 336.08C185.198 336.08 185.469 336.143 185.707 336.269C185.949 336.395 186.138 336.582 186.274 336.829C186.409 337.076 186.477 337.375 186.477 337.725V340H185.686V337.844C185.686 337.499 185.599 337.235 185.427 337.053C185.254 336.866 185.018 336.773 184.72 336.773C184.421 336.773 184.183 336.866 184.006 337.053C183.833 337.235 183.747 337.499 183.747 337.844V340H182.949V336.143H183.747V336.584C183.877 336.425 184.043 336.302 184.244 336.213C184.449 336.124 184.666 336.08 184.895 336.08ZM191.03 337.977C191.03 338.122 191.02 338.252 191.002 338.369H188.055C188.078 338.677 188.192 338.924 188.398 339.111C188.603 339.298 188.855 339.391 189.154 339.391C189.583 339.391 189.886 339.211 190.064 338.852H190.925C190.808 339.207 190.596 339.498 190.288 339.727C189.984 339.951 189.606 340.063 189.154 340.063C188.785 340.063 188.454 339.981 188.16 339.818C187.87 339.65 187.642 339.417 187.474 339.118C187.31 338.815 187.229 338.465 187.229 338.068C187.229 337.671 187.308 337.324 187.467 337.025C187.63 336.722 187.856 336.488 188.146 336.325C188.44 336.162 188.776 336.08 189.154 336.08C189.518 336.08 189.842 336.159 190.127 336.318C190.411 336.477 190.633 336.701 190.792 336.99C190.95 337.275 191.03 337.604 191.03 337.977ZM190.197 337.725C190.192 337.431 190.087 337.195 189.882 337.018C189.676 336.841 189.422 336.752 189.119 336.752C188.843 336.752 188.608 336.841 188.412 337.018C188.216 337.191 188.099 337.426 188.062 337.725H190.197ZM191.549 338.068C191.549 337.671 191.628 337.324 191.787 337.025C191.95 336.722 192.174 336.488 192.459 336.325C192.744 336.162 193.07 336.08 193.439 336.08C193.906 336.08 194.291 336.192 194.594 336.416C194.902 336.635 195.11 336.95 195.217 337.361H194.356C194.286 337.17 194.174 337.02 194.02 336.913C193.866 336.806 193.672 336.752 193.439 336.752C193.112 336.752 192.851 336.869 192.655 337.102C192.464 337.331 192.368 337.653 192.368 338.068C192.368 338.483 192.464 338.808 192.655 339.041C192.851 339.274 193.112 339.391 193.439 339.391C193.901 339.391 194.207 339.188 194.356 338.782H195.217C195.105 339.174 194.895 339.487 194.587 339.72C194.279 339.949 193.896 340.063 193.439 340.063C193.07 340.063 192.744 339.981 192.459 339.818C192.174 339.65 191.95 339.417 191.787 339.118C191.628 338.815 191.549 338.465 191.549 338.068ZM196.943 336.794V338.929C196.943 339.074 196.976 339.179 197.041 339.244C197.111 339.305 197.228 339.335 197.391 339.335H197.881V340H197.251C196.892 340 196.617 339.916 196.425 339.748C196.234 339.58 196.138 339.307 196.138 338.929V336.794H195.683V336.143H196.138V335.184H196.943V336.143H197.881V336.794H196.943ZM206.77 335.135L205.328 340H204.425L203.403 336.318L202.318 340L201.422 340.007L200.043 335.135H200.89L201.898 339.097L202.99 335.135H203.886L204.901 339.076L205.916 335.135H206.77ZM207.162 338.054C207.162 337.667 207.242 337.324 207.4 337.025C207.564 336.726 207.783 336.495 208.058 336.332C208.338 336.164 208.646 336.08 208.982 336.08C209.286 336.08 209.549 336.141 209.773 336.262C210.002 336.379 210.184 336.526 210.319 336.703V336.143H211.124V340H210.319V339.426C210.184 339.608 210 339.76 209.766 339.881C209.533 340.002 209.267 340.063 208.968 340.063C208.637 340.063 208.334 339.979 208.058 339.811C207.783 339.638 207.564 339.4 207.4 339.097C207.242 338.789 207.162 338.441 207.162 338.054ZM210.319 338.068C210.319 337.802 210.263 337.571 210.151 337.375C210.044 337.179 209.902 337.03 209.724 336.927C209.547 336.824 209.356 336.773 209.15 336.773C208.945 336.773 208.754 336.824 208.576 336.927C208.399 337.025 208.254 337.172 208.142 337.368C208.035 337.559 207.981 337.788 207.981 338.054C207.981 338.32 208.035 338.553 208.142 338.754C208.254 338.955 208.399 339.109 208.576 339.216C208.758 339.319 208.95 339.37 209.15 339.37C209.356 339.37 209.547 339.319 209.724 339.216C209.902 339.113 210.044 338.964 210.151 338.768C210.263 338.567 210.319 338.334 210.319 338.068ZM212.97 334.82V340H212.172V334.82H212.97ZM214.816 334.82V340H214.018V334.82H214.816ZM219.399 337.977C219.399 338.122 219.39 338.252 219.371 338.369H216.424C216.447 338.677 216.562 338.924 216.767 339.111C216.972 339.298 217.224 339.391 217.523 339.391C217.952 339.391 218.256 339.211 218.433 338.852H219.294C219.177 339.207 218.965 339.498 218.657 339.727C218.354 339.951 217.976 340.063 217.523 340.063C217.154 340.063 216.823 339.981 216.529 339.818C216.24 339.65 216.011 339.417 215.843 339.118C215.68 338.815 215.598 338.465 215.598 338.068C215.598 337.671 215.677 337.324 215.836 337.025C215.999 336.722 216.226 336.488 216.515 336.325C216.809 336.162 217.145 336.08 217.523 336.08C217.887 336.08 218.211 336.159 218.496 336.318C218.781 336.477 219.002 336.701 219.161 336.99C219.32 337.275 219.399 337.604 219.399 337.977ZM218.566 337.725C218.561 337.431 218.456 337.195 218.251 337.018C218.046 336.841 217.791 336.752 217.488 336.752C217.213 336.752 216.977 336.841 216.781 337.018C216.585 337.191 216.468 337.426 216.431 337.725H218.566ZM221.115 336.794V338.929C221.115 339.074 221.148 339.179 221.213 339.244C221.283 339.305 221.4 339.335 221.563 339.335H222.053V340H221.423C221.064 340 220.789 339.916 220.597 339.748C220.406 339.58 220.31 339.307 220.31 338.929V336.794H219.855V336.143H220.31V335.184H221.115V336.143H222.053V336.794H221.115Z" fill="white"/>
<path d="M169.323 210.356H170.968V211H168.525V206.135H169.323V210.356ZM175.17 208.977C175.17 209.122 175.161 209.252 175.142 209.369H172.195C172.219 209.677 172.333 209.924 172.538 210.111C172.744 210.298 172.996 210.391 173.294 210.391C173.724 210.391 174.027 210.211 174.204 209.852H175.065C174.949 210.207 174.736 210.498 174.428 210.727C174.125 210.951 173.747 211.063 173.294 211.063C172.926 211.063 172.594 210.981 172.3 210.818C172.011 210.65 171.782 210.417 171.614 210.118C171.451 209.815 171.369 209.465 171.369 209.068C171.369 208.671 171.449 208.324 171.607 208.025C171.771 207.722 171.997 207.488 172.286 207.325C172.58 207.162 172.916 207.08 173.294 207.08C173.658 207.08 173.983 207.159 174.267 207.318C174.552 207.477 174.774 207.701 174.932 207.99C175.091 208.275 175.17 208.604 175.17 208.977ZM174.337 208.725C174.333 208.431 174.228 208.195 174.022 208.018C173.817 207.841 173.563 207.752 173.259 207.752C172.984 207.752 172.748 207.841 172.552 208.018C172.356 208.191 172.24 208.426 172.202 208.725H174.337ZM176.887 207.794V209.929C176.887 210.074 176.919 210.179 176.985 210.244C177.055 210.305 177.171 210.335 177.335 210.335H177.825V211H177.195C176.835 211 176.56 210.916 176.369 210.748C176.177 210.58 176.082 210.307 176.082 209.929V207.794H175.627V207.143H176.082V206.184H176.887V207.143H177.825V207.794H176.887ZM179.652 206.107L178.105 206.87V206.282L179.652 205.428V206.107ZM181.649 211.063C181.345 211.063 181.072 211.009 180.83 210.902C180.592 210.79 180.403 210.641 180.263 210.454C180.123 210.263 180.048 210.05 180.039 209.817H180.865C180.879 209.98 180.956 210.118 181.096 210.23C181.24 210.337 181.42 210.391 181.635 210.391C181.859 210.391 182.031 210.349 182.153 210.265C182.279 210.176 182.342 210.064 182.342 209.929C182.342 209.784 182.272 209.677 182.132 209.607C181.996 209.537 181.779 209.46 181.481 209.376C181.191 209.297 180.956 209.22 180.774 209.145C180.592 209.07 180.433 208.956 180.298 208.802C180.167 208.648 180.102 208.445 180.102 208.193C180.102 207.988 180.162 207.801 180.284 207.633C180.405 207.46 180.578 207.325 180.802 207.227C181.03 207.129 181.292 207.08 181.586 207.08C182.024 207.08 182.377 207.192 182.643 207.416C182.913 207.635 183.058 207.936 183.077 208.319H182.279C182.265 208.146 182.195 208.009 182.069 207.906C181.943 207.803 181.772 207.752 181.558 207.752C181.348 207.752 181.187 207.792 181.075 207.871C180.963 207.95 180.907 208.055 180.907 208.186C180.907 208.289 180.944 208.375 181.019 208.445C181.093 208.515 181.184 208.571 181.292 208.613C181.399 208.65 181.558 208.699 181.768 208.76C182.048 208.835 182.276 208.912 182.454 208.991C182.636 209.066 182.792 209.178 182.923 209.327C183.053 209.476 183.121 209.675 183.126 209.922C183.126 210.141 183.065 210.337 182.944 210.51C182.822 210.683 182.65 210.818 182.426 210.916C182.206 211.014 181.947 211.063 181.649 211.063ZM187.36 207.08C187.659 207.08 187.923 207.141 188.151 207.262C188.385 207.379 188.567 207.526 188.697 207.703V207.143H189.502V211.063C189.502 211.418 189.428 211.733 189.278 212.008C189.129 212.288 188.912 212.507 188.627 212.666C188.347 212.825 188.011 212.904 187.619 212.904C187.097 212.904 186.663 212.78 186.317 212.533C185.972 212.29 185.776 211.959 185.729 211.539H186.52C186.581 211.74 186.709 211.901 186.905 212.022C187.106 212.148 187.344 212.211 187.619 212.211C187.941 212.211 188.2 212.113 188.396 211.917C188.597 211.721 188.697 211.436 188.697 211.063V210.419C188.562 210.601 188.378 210.755 188.144 210.881C187.916 211.002 187.654 211.063 187.36 211.063C187.024 211.063 186.716 210.979 186.436 210.811C186.161 210.638 185.942 210.4 185.778 210.097C185.62 209.789 185.54 209.441 185.54 209.054C185.54 208.667 185.62 208.324 185.778 208.025C185.942 207.726 186.161 207.495 186.436 207.332C186.716 207.164 187.024 207.08 187.36 207.08ZM188.697 209.068C188.697 208.802 188.641 208.571 188.529 208.375C188.422 208.179 188.28 208.03 188.102 207.927C187.925 207.824 187.734 207.773 187.528 207.773C187.323 207.773 187.132 207.824 186.954 207.927C186.777 208.025 186.632 208.172 186.52 208.368C186.413 208.559 186.359 208.788 186.359 209.054C186.359 209.32 186.413 209.553 186.52 209.754C186.632 209.955 186.777 210.109 186.954 210.216C187.136 210.319 187.328 210.37 187.528 210.37C187.734 210.37 187.925 210.319 188.102 210.216C188.28 210.113 188.422 209.964 188.529 209.768C188.641 209.567 188.697 209.334 188.697 209.068ZM192.223 211.063C191.859 211.063 191.53 210.981 191.236 210.818C190.942 210.65 190.711 210.417 190.543 210.118C190.375 209.815 190.291 209.465 190.291 209.068C190.291 208.676 190.378 208.328 190.55 208.025C190.723 207.722 190.959 207.488 191.257 207.325C191.556 207.162 191.89 207.08 192.258 207.08C192.627 207.08 192.961 207.162 193.259 207.325C193.558 207.488 193.794 207.722 193.966 208.025C194.139 208.328 194.225 208.676 194.225 209.068C194.225 209.46 194.137 209.808 193.959 210.111C193.782 210.414 193.539 210.65 193.231 210.818C192.928 210.981 192.592 211.063 192.223 211.063ZM192.223 210.37C192.429 210.37 192.62 210.321 192.797 210.223C192.979 210.125 193.126 209.978 193.238 209.782C193.35 209.586 193.406 209.348 193.406 209.068C193.406 208.788 193.353 208.552 193.245 208.361C193.138 208.165 192.996 208.018 192.818 207.92C192.641 207.822 192.45 207.773 192.244 207.773C192.039 207.773 191.848 207.822 191.67 207.92C191.498 208.018 191.36 208.165 191.257 208.361C191.155 208.552 191.103 208.788 191.103 209.068C191.103 209.483 191.208 209.805 191.418 210.034C191.633 210.258 191.901 210.37 192.223 210.37Z" fill="white"/>
<defs>
<clipPath id="clip0_1707_101586">
<rect width="23" height="18" fill="white" transform="translate(22 27)"/>
</clipPath>
</defs>
</svg>
