<svg width="580" height="392" viewBox="0 0 580 392" fill="none" xmlns="http://www.w3.org/2000/svg">
<rect y="3" width="580" height="389" rx="8" fill="#35394C"/>
<rect x="23" y="42" width="86" height="269" rx="8" fill="#5682C3"/>
<rect x="137" y="42" width="420" height="269" rx="8" fill="#5682C3"/>
<path d="M0 8C0 3.58172 3.58172 0 8 0H572C576.418 0 580 3.58172 580 8V25H0V8Z" fill="#295BA6" fill-opacity="0.63"/>
<path d="M580 384C580 388.418 576.418 392 572 392L8 392C3.58173 392 3.13124e-07 388.418 6.99382e-07 384L4.6334e-06 339L580 339L580 384Z" fill="#295BA6" fill-opacity="0.63"/>
<path d="M156.04 284.07C155.573 284.07 155.153 283.99 154.78 283.83C154.407 283.663 154.113 283.43 153.9 283.13C153.687 282.83 153.58 282.48 153.58 282.08H154.8C154.827 282.38 154.943 282.627 155.15 282.82C155.363 283.013 155.66 283.11 156.04 283.11C156.433 283.11 156.74 283.017 156.96 282.83C157.18 282.637 157.29 282.39 157.29 282.09C157.29 281.857 157.22 281.667 157.08 281.52C156.947 281.373 156.777 281.26 156.57 281.18C156.37 281.1 156.09 281.013 155.73 280.92C155.277 280.8 154.907 280.68 154.62 280.56C154.34 280.433 154.1 280.24 153.9 279.98C153.7 279.72 153.6 279.373 153.6 278.94C153.6 278.54 153.7 278.19 153.9 277.89C154.1 277.59 154.38 277.36 154.74 277.2C155.1 277.04 155.517 276.96 155.99 276.96C156.663 276.96 157.213 277.13 157.64 277.47C158.073 277.803 158.313 278.263 158.36 278.85H157.1C157.08 278.597 156.96 278.38 156.74 278.2C156.52 278.02 156.23 277.93 155.87 277.93C155.543 277.93 155.277 278.013 155.07 278.18C154.863 278.347 154.76 278.587 154.76 278.9C154.76 279.113 154.823 279.29 154.95 279.43C155.083 279.563 155.25 279.67 155.45 279.75C155.65 279.83 155.923 279.917 156.27 280.01C156.73 280.137 157.103 280.263 157.39 280.39C157.683 280.517 157.93 280.713 158.13 280.98C158.337 281.24 158.44 281.59 158.44 282.03C158.44 282.383 158.343 282.717 158.15 283.03C157.963 283.343 157.687 283.597 157.32 283.79C156.96 283.977 156.533 284.07 156.04 284.07ZM160.365 277.76C160.158 277.76 159.985 277.69 159.845 277.55C159.705 277.41 159.635 277.237 159.635 277.03C159.635 276.823 159.705 276.65 159.845 276.51C159.985 276.37 160.158 276.3 160.365 276.3C160.565 276.3 160.735 276.37 160.875 276.51C161.015 276.65 161.085 276.823 161.085 277.03C161.085 277.237 161.015 277.41 160.875 277.55C160.735 277.69 160.565 277.76 160.365 277.76ZM160.925 278.49V284H159.785V278.49H160.925ZM165.202 278.4C165.635 278.4 166.022 278.49 166.362 278.67C166.709 278.85 166.979 279.117 167.172 279.47C167.365 279.823 167.462 280.25 167.462 280.75V284H166.332V280.92C166.332 280.427 166.209 280.05 165.962 279.79C165.715 279.523 165.379 279.39 164.952 279.39C164.525 279.39 164.185 279.523 163.932 279.79C163.685 280.05 163.562 280.427 163.562 280.92V284H162.422V278.49H163.562V279.12C163.749 278.893 163.985 278.717 164.272 278.59C164.565 278.463 164.875 278.4 165.202 278.4ZM168.536 281.24C168.536 280.673 168.649 280.177 168.876 279.75C169.109 279.317 169.429 278.983 169.836 278.75C170.243 278.517 170.709 278.4 171.236 278.4C171.903 278.4 172.453 278.56 172.886 278.88C173.326 279.193 173.623 279.643 173.776 280.23H172.546C172.446 279.957 172.286 279.743 172.066 279.59C171.846 279.437 171.569 279.36 171.236 279.36C170.769 279.36 170.396 279.527 170.116 279.86C169.843 280.187 169.706 280.647 169.706 281.24C169.706 281.833 169.843 282.297 170.116 282.63C170.396 282.963 170.769 283.13 171.236 283.13C171.896 283.13 172.333 282.84 172.546 282.26H173.776C173.616 282.82 173.316 283.267 172.876 283.6C172.436 283.927 171.889 284.09 171.236 284.09C170.709 284.09 170.243 283.973 169.836 283.74C169.429 283.5 169.109 283.167 168.876 282.74C168.649 282.307 168.536 281.807 168.536 281.24ZM176.052 279.29C176.219 279.01 176.439 278.793 176.712 278.64C176.992 278.48 177.322 278.4 177.702 278.4V279.58H177.412C176.965 279.58 176.625 279.693 176.392 279.92C176.165 280.147 176.052 280.54 176.052 281.1V284H174.912V278.49H176.052V279.29ZM181.14 284.09C180.62 284.09 180.15 283.973 179.73 283.74C179.31 283.5 178.98 283.167 178.74 282.74C178.5 282.307 178.38 281.807 178.38 281.24C178.38 280.68 178.503 280.183 178.75 279.75C178.997 279.317 179.333 278.983 179.76 278.75C180.187 278.517 180.663 278.4 181.19 278.4C181.717 278.4 182.193 278.517 182.62 278.75C183.047 278.983 183.383 279.317 183.63 279.75C183.877 280.183 184 280.68 184 281.24C184 281.8 183.873 282.297 183.62 282.73C183.367 283.163 183.02 283.5 182.58 283.74C182.147 283.973 181.667 284.09 181.14 284.09ZM181.14 283.1C181.433 283.1 181.707 283.03 181.96 282.89C182.22 282.75 182.43 282.54 182.59 282.26C182.75 281.98 182.83 281.64 182.83 281.24C182.83 280.84 182.753 280.503 182.6 280.23C182.447 279.95 182.243 279.74 181.99 279.6C181.737 279.46 181.463 279.39 181.17 279.39C180.877 279.39 180.603 279.46 180.35 279.6C180.103 279.74 179.907 279.95 179.76 280.23C179.613 280.503 179.54 280.84 179.54 281.24C179.54 281.833 179.69 282.293 179.99 282.62C180.297 282.94 180.68 283.1 181.14 283.1ZM187.907 278.4C188.34 278.4 188.727 278.49 189.067 278.67C189.414 278.85 189.684 279.117 189.877 279.47C190.07 279.823 190.167 280.25 190.167 280.75V284H189.037V280.92C189.037 280.427 188.914 280.05 188.667 279.79C188.42 279.523 188.084 279.39 187.657 279.39C187.23 279.39 186.89 279.523 186.637 279.79C186.39 280.05 186.267 280.427 186.267 280.92V284H185.127V278.49H186.267V279.12C186.454 278.893 186.69 278.717 186.977 278.59C187.27 278.463 187.58 278.4 187.907 278.4ZM192.201 277.76C191.994 277.76 191.821 277.69 191.681 277.55C191.541 277.41 191.471 277.237 191.471 277.03C191.471 276.823 191.541 276.65 191.681 276.51C191.821 276.37 191.994 276.3 192.201 276.3C192.401 276.3 192.571 276.37 192.711 276.51C192.851 276.65 192.921 276.823 192.921 277.03C192.921 277.237 192.851 277.41 192.711 277.55C192.571 277.69 192.401 277.76 192.201 277.76ZM192.761 278.49V284H191.621V278.49H192.761ZM195.268 283.07H197.768V284H193.948V283.07L196.458 279.42H193.948V278.49H197.768V279.42L195.268 283.07ZM198.585 281.22C198.585 280.667 198.698 280.177 198.925 279.75C199.158 279.323 199.472 278.993 199.865 278.76C200.265 278.52 200.705 278.4 201.185 278.4C201.618 278.4 201.995 278.487 202.315 278.66C202.642 278.827 202.902 279.037 203.095 279.29V278.49H204.245V284H203.095V283.18C202.902 283.44 202.638 283.657 202.305 283.83C201.972 284.003 201.592 284.09 201.165 284.09C200.692 284.09 200.258 283.97 199.865 283.73C199.472 283.483 199.158 283.143 198.925 282.71C198.698 282.27 198.585 281.773 198.585 281.22ZM203.095 281.24C203.095 280.86 203.015 280.53 202.855 280.25C202.702 279.97 202.498 279.757 202.245 279.61C201.992 279.463 201.718 279.39 201.425 279.39C201.132 279.39 200.858 279.463 200.605 279.61C200.352 279.75 200.145 279.96 199.985 280.24C199.832 280.513 199.755 280.84 199.755 281.22C199.755 281.6 199.832 281.933 199.985 282.22C200.145 282.507 200.352 282.727 200.605 282.88C200.865 283.027 201.138 283.1 201.425 283.1C201.718 283.1 201.992 283.027 202.245 282.88C202.498 282.733 202.702 282.52 202.855 282.24C203.015 281.953 203.095 281.62 203.095 281.24ZM206.882 279.29C207.049 279.01 207.269 278.793 207.542 278.64C207.822 278.48 208.152 278.4 208.532 278.4V279.58H208.242C207.796 279.58 207.456 279.693 207.222 279.92C206.996 280.147 206.882 280.54 206.882 281.1V284H205.742V278.49H206.882V279.29ZM214.568 284.09C214.048 284.09 213.578 283.973 213.158 283.74C212.738 283.5 212.408 283.167 212.168 282.74C211.928 282.307 211.808 281.807 211.808 281.24C211.808 280.68 211.931 280.183 212.178 279.75C212.424 279.317 212.761 278.983 213.188 278.75C213.614 278.517 214.091 278.4 214.618 278.4C215.144 278.4 215.621 278.517 216.048 278.75C216.474 278.983 216.811 279.317 217.058 279.75C217.304 280.183 217.428 280.68 217.428 281.24C217.428 281.8 217.301 282.297 217.048 282.73C216.794 283.163 216.448 283.5 216.008 283.74C215.574 283.973 215.094 284.09 214.568 284.09ZM214.568 283.1C214.861 283.1 215.134 283.03 215.388 282.89C215.648 282.75 215.858 282.54 216.018 282.26C216.178 281.98 216.258 281.64 216.258 281.24C216.258 280.84 216.181 280.503 216.028 280.23C215.874 279.95 215.671 279.74 215.418 279.6C215.164 279.46 214.891 279.39 214.598 279.39C214.304 279.39 214.031 279.46 213.778 279.6C213.531 279.74 213.334 279.95 213.188 280.23C213.041 280.503 212.968 280.84 212.968 281.24C212.968 281.833 213.118 282.293 213.418 282.62C213.724 282.94 214.108 283.1 214.568 283.1ZM223.422 277.05C224.162 277.05 224.809 277.193 225.362 277.48C225.922 277.76 226.352 278.167 226.652 278.7C226.959 279.227 227.112 279.843 227.112 280.55C227.112 281.257 226.959 281.87 226.652 282.39C226.352 282.91 225.922 283.31 225.362 283.59C224.809 283.863 224.162 284 223.422 284H221.152V277.05H223.422ZM223.422 283.07C224.236 283.07 224.859 282.85 225.292 282.41C225.726 281.97 225.942 281.35 225.942 280.55C225.942 279.743 225.726 279.113 225.292 278.66C224.859 278.207 224.236 277.98 223.422 277.98H222.292V283.07H223.422ZM228.822 277.76C228.616 277.76 228.442 277.69 228.302 277.55C228.162 277.41 228.092 277.237 228.092 277.03C228.092 276.823 228.162 276.65 228.302 276.51C228.442 276.37 228.616 276.3 228.822 276.3C229.022 276.3 229.192 276.37 229.332 276.51C229.472 276.65 229.542 276.823 229.542 277.03C229.542 277.237 229.472 277.41 229.332 277.55C229.192 277.69 229.022 277.76 228.822 277.76ZM229.382 278.49V284H228.242V278.49H229.382ZM232.879 284.09C232.446 284.09 232.056 284.013 231.709 283.86C231.369 283.7 231.099 283.487 230.899 283.22C230.699 282.947 230.592 282.643 230.579 282.31H231.759C231.779 282.543 231.889 282.74 232.089 282.9C232.296 283.053 232.552 283.13 232.859 283.13C233.179 283.13 233.426 283.07 233.599 282.95C233.779 282.823 233.869 282.663 233.869 282.47C233.869 282.263 233.769 282.11 233.569 282.01C233.376 281.91 233.066 281.8 232.639 281.68C232.226 281.567 231.889 281.457 231.629 281.35C231.369 281.243 231.142 281.08 230.949 280.86C230.762 280.64 230.669 280.35 230.669 279.99C230.669 279.697 230.756 279.43 230.929 279.19C231.102 278.943 231.349 278.75 231.669 278.61C231.996 278.47 232.369 278.4 232.789 278.4C233.416 278.4 233.919 278.56 234.299 278.88C234.686 279.193 234.892 279.623 234.919 280.17H233.779C233.759 279.923 233.659 279.727 233.479 279.58C233.299 279.433 233.056 279.36 232.749 279.36C232.449 279.36 232.219 279.417 232.059 279.53C231.899 279.643 231.819 279.793 231.819 279.98C231.819 280.127 231.872 280.25 231.979 280.35C232.086 280.45 232.216 280.53 232.369 280.59C232.522 280.643 232.749 280.713 233.049 280.8C233.449 280.907 233.776 281.017 234.029 281.13C234.289 281.237 234.512 281.397 234.699 281.61C234.886 281.823 234.982 282.107 234.989 282.46C234.989 282.773 234.902 283.053 234.729 283.3C234.556 283.547 234.309 283.74 233.989 283.88C233.676 284.02 233.306 284.09 232.879 284.09ZM235.841 281.24C235.841 280.673 235.954 280.177 236.181 279.75C236.414 279.317 236.734 278.983 237.141 278.75C237.547 278.517 238.014 278.4 238.541 278.4C239.207 278.4 239.757 278.56 240.191 278.88C240.631 279.193 240.927 279.643 241.081 280.23H239.851C239.751 279.957 239.591 279.743 239.371 279.59C239.151 279.437 238.874 279.36 238.541 279.36C238.074 279.36 237.701 279.527 237.421 279.86C237.147 280.187 237.011 280.647 237.011 281.24C237.011 281.833 237.147 282.297 237.421 282.63C237.701 282.963 238.074 283.13 238.541 283.13C239.201 283.13 239.637 282.84 239.851 282.26H241.081C240.921 282.82 240.621 283.267 240.181 283.6C239.741 283.927 239.194 284.09 238.541 284.09C238.014 284.09 237.547 283.973 237.141 283.74C236.734 283.5 236.414 283.167 236.181 282.74C235.954 282.307 235.841 281.807 235.841 281.24ZM244.607 284.09C244.087 284.09 243.617 283.973 243.197 283.74C242.777 283.5 242.447 283.167 242.207 282.74C241.967 282.307 241.847 281.807 241.847 281.24C241.847 280.68 241.97 280.183 242.217 279.75C242.463 279.317 242.8 278.983 243.227 278.75C243.653 278.517 244.13 278.4 244.657 278.4C245.183 278.4 245.66 278.517 246.087 278.75C246.513 278.983 246.85 279.317 247.097 279.75C247.343 280.183 247.467 280.68 247.467 281.24C247.467 281.8 247.34 282.297 247.087 282.73C246.833 283.163 246.487 283.5 246.047 283.74C245.613 283.973 245.133 284.09 244.607 284.09ZM244.607 283.1C244.9 283.1 245.173 283.03 245.427 282.89C245.687 282.75 245.897 282.54 246.057 282.26C246.217 281.98 246.297 281.64 246.297 281.24C246.297 280.84 246.22 280.503 246.067 280.23C245.913 279.95 245.71 279.74 245.457 279.6C245.203 279.46 244.93 279.39 244.637 279.39C244.343 279.39 244.07 279.46 243.817 279.6C243.57 279.74 243.373 279.95 243.227 280.23C243.08 280.503 243.007 280.84 243.007 281.24C243.007 281.833 243.157 282.293 243.457 282.62C243.763 282.94 244.147 283.1 244.607 283.1ZM249.734 279.29C249.9 279.01 250.12 278.793 250.394 278.64C250.674 278.48 251.004 278.4 251.384 278.4V279.58H251.094C250.647 279.58 250.307 279.693 250.074 279.92C249.847 280.147 249.734 280.54 249.734 281.1V284H248.594V278.49H249.734V279.29ZM252.052 281.22C252.052 280.667 252.165 280.177 252.392 279.75C252.625 279.323 252.938 278.993 253.332 278.76C253.732 278.52 254.175 278.4 254.662 278.4C255.022 278.4 255.375 278.48 255.722 278.64C256.075 278.793 256.355 279 256.562 279.26V276.6H257.712V284H256.562V283.17C256.375 283.437 256.115 283.657 255.782 283.83C255.455 284.003 255.078 284.09 254.652 284.09C254.172 284.09 253.732 283.97 253.332 283.73C252.938 283.483 252.625 283.143 252.392 282.71C252.165 282.27 252.052 281.773 252.052 281.22ZM256.562 281.24C256.562 280.86 256.482 280.53 256.322 280.25C256.168 279.97 255.965 279.757 255.712 279.61C255.458 279.463 255.185 279.39 254.892 279.39C254.598 279.39 254.325 279.463 254.072 279.61C253.818 279.75 253.612 279.96 253.452 280.24C253.298 280.513 253.222 280.84 253.222 281.22C253.222 281.6 253.298 281.933 253.452 282.22C253.612 282.507 253.818 282.727 254.072 282.88C254.332 283.027 254.605 283.1 254.892 283.1C255.185 283.1 255.458 283.027 255.712 282.88C255.965 282.733 256.168 282.52 256.322 282.24C256.482 281.953 256.562 281.62 256.562 281.24ZM266.797 278.49V284H265.657V283.35C265.477 283.577 265.24 283.757 264.947 283.89C264.66 284.017 264.353 284.08 264.027 284.08C263.593 284.08 263.203 283.99 262.857 283.81C262.517 283.63 262.247 283.363 262.047 283.01C261.853 282.657 261.757 282.23 261.757 281.73V278.49H262.887V281.56C262.887 282.053 263.01 282.433 263.257 282.7C263.503 282.96 263.84 283.09 264.267 283.09C264.693 283.09 265.03 282.96 265.277 282.7C265.53 282.433 265.657 282.053 265.657 281.56V278.49H266.797ZM270.301 284.09C269.867 284.09 269.477 284.013 269.131 283.86C268.791 283.7 268.521 283.487 268.321 283.22C268.121 282.947 268.014 282.643 268.001 282.31H269.181C269.201 282.543 269.311 282.74 269.511 282.9C269.717 283.053 269.974 283.13 270.281 283.13C270.601 283.13 270.847 283.07 271.021 282.95C271.201 282.823 271.291 282.663 271.291 282.47C271.291 282.263 271.191 282.11 270.991 282.01C270.797 281.91 270.487 281.8 270.061 281.68C269.647 281.567 269.311 281.457 269.051 281.35C268.791 281.243 268.564 281.08 268.371 280.86C268.184 280.64 268.091 280.35 268.091 279.99C268.091 279.697 268.177 279.43 268.351 279.19C268.524 278.943 268.771 278.75 269.091 278.61C269.417 278.47 269.791 278.4 270.211 278.4C270.837 278.4 271.341 278.56 271.721 278.88C272.107 279.193 272.314 279.623 272.341 280.17H271.201C271.181 279.923 271.081 279.727 270.901 279.58C270.721 279.433 270.477 279.36 270.171 279.36C269.871 279.36 269.641 279.417 269.481 279.53C269.321 279.643 269.241 279.793 269.241 279.98C269.241 280.127 269.294 280.25 269.401 280.35C269.507 280.45 269.637 280.53 269.791 280.59C269.944 280.643 270.171 280.713 270.471 280.8C270.871 280.907 271.197 281.017 271.451 281.13C271.711 281.237 271.934 281.397 272.121 281.61C272.307 281.823 272.404 282.107 272.411 282.46C272.411 282.773 272.324 283.053 272.151 283.3C271.977 283.547 271.731 283.74 271.411 283.88C271.097 284.02 270.727 284.09 270.301 284.09ZM273.263 281.22C273.263 280.667 273.376 280.177 273.603 279.75C273.836 279.323 274.149 278.993 274.543 278.76C274.943 278.52 275.383 278.4 275.863 278.4C276.296 278.4 276.673 278.487 276.993 278.66C277.319 278.827 277.579 279.037 277.773 279.29V278.49H278.923V284H277.773V283.18C277.579 283.44 277.316 283.657 276.983 283.83C276.649 284.003 276.269 284.09 275.843 284.09C275.369 284.09 274.936 283.97 274.543 283.73C274.149 283.483 273.836 283.143 273.603 282.71C273.376 282.27 273.263 281.773 273.263 281.22ZM277.773 281.24C277.773 280.86 277.693 280.53 277.533 280.25C277.379 279.97 277.176 279.757 276.923 279.61C276.669 279.463 276.396 279.39 276.103 279.39C275.809 279.39 275.536 279.463 275.283 279.61C275.029 279.75 274.823 279.96 274.663 280.24C274.509 280.513 274.433 280.84 274.433 281.22C274.433 281.6 274.509 281.933 274.663 282.22C274.823 282.507 275.029 282.727 275.283 282.88C275.543 283.027 275.816 283.1 276.103 283.1C276.396 283.1 276.669 283.027 276.923 282.88C277.176 282.733 277.379 282.52 277.533 282.24C277.693 281.953 277.773 281.62 277.773 281.24ZM283.2 278.4C283.633 278.4 284.02 278.49 284.36 278.67C284.707 278.85 284.977 279.117 285.17 279.47C285.363 279.823 285.46 280.25 285.46 280.75V284H284.33V280.92C284.33 280.427 284.207 280.05 283.96 279.79C283.713 279.523 283.377 279.39 282.95 279.39C282.523 279.39 282.183 279.523 281.93 279.79C281.683 280.05 281.56 280.427 281.56 280.92V284H280.42V278.49H281.56V279.12C281.747 278.893 281.983 278.717 282.27 278.59C282.563 278.463 282.873 278.4 283.2 278.4ZM286.534 281.22C286.534 280.667 286.647 280.177 286.874 279.75C287.107 279.323 287.421 278.993 287.814 278.76C288.214 278.52 288.657 278.4 289.144 278.4C289.504 278.4 289.857 278.48 290.204 278.64C290.557 278.793 290.837 279 291.044 279.26V276.6H292.194V284H291.044V283.17C290.857 283.437 290.597 283.657 290.264 283.83C289.937 284.003 289.561 284.09 289.134 284.09C288.654 284.09 288.214 283.97 287.814 283.73C287.421 283.483 287.107 283.143 286.874 282.71C286.647 282.27 286.534 281.773 286.534 281.22ZM291.044 281.24C291.044 280.86 290.964 280.53 290.804 280.25C290.651 279.97 290.447 279.757 290.194 279.61C289.941 279.463 289.667 279.39 289.374 279.39C289.081 279.39 288.807 279.463 288.554 279.61C288.301 279.75 288.094 279.96 287.934 280.24C287.781 280.513 287.704 280.84 287.704 281.22C287.704 281.6 287.781 281.933 287.934 282.22C288.094 282.507 288.301 282.727 288.554 282.88C288.814 283.027 289.087 283.1 289.374 283.1C289.667 283.1 289.941 283.027 290.194 282.88C290.447 282.733 290.651 282.52 290.804 282.24C290.964 281.953 291.044 281.62 291.044 281.24ZM296.081 284.09C295.561 284.09 295.091 283.973 294.671 283.74C294.251 283.5 293.921 283.167 293.681 282.74C293.441 282.307 293.321 281.807 293.321 281.24C293.321 280.68 293.445 280.183 293.691 279.75C293.938 279.317 294.275 278.983 294.701 278.75C295.128 278.517 295.605 278.4 296.131 278.4C296.658 278.4 297.135 278.517 297.561 278.75C297.988 278.983 298.325 279.317 298.571 279.75C298.818 280.183 298.941 280.68 298.941 281.24C298.941 281.8 298.815 282.297 298.561 282.73C298.308 283.163 297.961 283.5 297.521 283.74C297.088 283.973 296.608 284.09 296.081 284.09ZM296.081 283.1C296.375 283.1 296.648 283.03 296.901 282.89C297.161 282.75 297.371 282.54 297.531 282.26C297.691 281.98 297.771 281.64 297.771 281.24C297.771 280.84 297.695 280.503 297.541 280.23C297.388 279.95 297.185 279.74 296.931 279.6C296.678 279.46 296.405 279.39 296.111 279.39C295.818 279.39 295.545 279.46 295.291 279.6C295.045 279.74 294.848 279.95 294.701 280.23C294.555 280.503 294.481 280.84 294.481 281.24C294.481 281.833 294.631 282.293 294.931 282.62C295.238 282.94 295.621 283.1 296.081 283.1ZM311.716 277.05L309.656 284H308.366L306.906 278.74L305.356 284L304.076 284.01L302.106 277.05H303.316L304.756 282.71L306.316 277.05H307.596L309.046 282.68L310.496 277.05H311.716ZM312.276 281.22C312.276 280.667 312.39 280.177 312.616 279.75C312.85 279.323 313.163 278.993 313.556 278.76C313.956 278.52 314.396 278.4 314.876 278.4C315.31 278.4 315.686 278.487 316.006 278.66C316.333 278.827 316.593 279.037 316.786 279.29V278.49H317.936V284H316.786V283.18C316.593 283.44 316.33 283.657 315.996 283.83C315.663 284.003 315.283 284.09 314.856 284.09C314.383 284.09 313.95 283.97 313.556 283.73C313.163 283.483 312.85 283.143 312.616 282.71C312.39 282.27 312.276 281.773 312.276 281.22ZM316.786 281.24C316.786 280.86 316.706 280.53 316.546 280.25C316.393 279.97 316.19 279.757 315.936 279.61C315.683 279.463 315.41 279.39 315.116 279.39C314.823 279.39 314.55 279.463 314.296 279.61C314.043 279.75 313.836 279.96 313.676 280.24C313.523 280.513 313.446 280.84 313.446 281.22C313.446 281.6 313.523 281.933 313.676 282.22C313.836 282.507 314.043 282.727 314.296 282.88C314.556 283.027 314.83 283.1 315.116 283.1C315.41 283.1 315.683 283.027 315.936 282.88C316.19 282.733 316.393 282.52 316.546 282.24C316.706 281.953 316.786 281.62 316.786 281.24ZM320.574 276.6V284H319.434V276.6H320.574ZM323.21 276.6V284H322.07V276.6H323.21ZM329.757 281.11C329.757 281.317 329.744 281.503 329.717 281.67H325.507C325.54 282.11 325.704 282.463 325.997 282.73C326.29 282.997 326.65 283.13 327.077 283.13C327.69 283.13 328.124 282.873 328.377 282.36H329.607C329.44 282.867 329.137 283.283 328.697 283.61C328.264 283.93 327.724 284.09 327.077 284.09C326.55 284.09 326.077 283.973 325.657 283.74C325.244 283.5 324.917 283.167 324.677 282.74C324.444 282.307 324.327 281.807 324.327 281.24C324.327 280.673 324.44 280.177 324.667 279.75C324.9 279.317 325.224 278.983 325.637 278.75C326.057 278.517 326.537 278.4 327.077 278.4C327.597 278.4 328.06 278.513 328.467 278.74C328.874 278.967 329.19 279.287 329.417 279.7C329.644 280.107 329.757 280.577 329.757 281.11ZM328.567 280.75C328.56 280.33 328.41 279.993 328.117 279.74C327.824 279.487 327.46 279.36 327.027 279.36C326.634 279.36 326.297 279.487 326.017 279.74C325.737 279.987 325.57 280.323 325.517 280.75H328.567ZM332.209 279.42V282.47C332.209 282.677 332.256 282.827 332.349 282.92C332.449 283.007 332.616 283.05 332.849 283.05H333.549V284H332.649C332.136 284 331.742 283.88 331.469 283.64C331.196 283.4 331.059 283.01 331.059 282.47V279.42H330.409V278.49H331.059V277.12H332.209V278.49H333.549V279.42H332.209ZM334.22 280.51C334.22 279.83 334.376 279.22 334.69 278.68C335.01 278.14 335.44 277.72 335.98 277.42C336.526 277.113 337.123 276.96 337.77 276.96C338.51 276.96 339.166 277.143 339.74 277.51C340.32 277.87 340.74 278.383 341 279.05H339.63C339.45 278.683 339.2 278.41 338.88 278.23C338.56 278.05 338.19 277.96 337.77 277.96C337.31 277.96 336.9 278.063 336.54 278.27C336.18 278.477 335.896 278.773 335.69 279.16C335.49 279.547 335.39 279.997 335.39 280.51C335.39 281.023 335.49 281.473 335.69 281.86C335.896 282.247 336.18 282.547 336.54 282.76C336.9 282.967 337.31 283.07 337.77 283.07C338.19 283.07 338.56 282.98 338.88 282.8C339.2 282.62 339.45 282.347 339.63 281.98H341C340.74 282.647 340.32 283.16 339.74 283.52C339.166 283.88 338.51 284.06 337.77 284.06C337.116 284.06 336.52 283.91 335.98 283.61C335.44 283.303 335.01 282.88 334.69 282.34C334.376 281.8 334.22 281.19 334.22 280.51ZM344.724 284.09C344.204 284.09 343.734 283.973 343.314 283.74C342.894 283.5 342.564 283.167 342.324 282.74C342.084 282.307 341.964 281.807 341.964 281.24C341.964 280.68 342.087 280.183 342.334 279.75C342.581 279.317 342.917 278.983 343.344 278.75C343.771 278.517 344.247 278.4 344.774 278.4C345.301 278.4 345.777 278.517 346.204 278.75C346.631 278.983 346.967 279.317 347.214 279.75C347.461 280.183 347.584 280.68 347.584 281.24C347.584 281.8 347.457 282.297 347.204 282.73C346.951 283.163 346.604 283.5 346.164 283.74C345.731 283.973 345.251 284.09 344.724 284.09ZM344.724 283.1C345.017 283.1 345.291 283.03 345.544 282.89C345.804 282.75 346.014 282.54 346.174 282.26C346.334 281.98 346.414 281.64 346.414 281.24C346.414 280.84 346.337 280.503 346.184 280.23C346.031 279.95 345.827 279.74 345.574 279.6C345.321 279.46 345.047 279.39 344.754 279.39C344.461 279.39 344.187 279.46 343.934 279.6C343.687 279.74 343.491 279.95 343.344 280.23C343.197 280.503 343.124 280.84 343.124 281.24C343.124 281.833 343.274 282.293 343.574 282.62C343.881 282.94 344.264 283.1 344.724 283.1ZM351.491 278.4C351.924 278.4 352.311 278.49 352.651 278.67C352.998 278.85 353.268 279.117 353.461 279.47C353.654 279.823 353.751 280.25 353.751 280.75V284H352.621V280.92C352.621 280.427 352.498 280.05 352.251 279.79C352.004 279.523 351.668 279.39 351.241 279.39C350.814 279.39 350.474 279.523 350.221 279.79C349.974 280.05 349.851 280.427 349.851 280.92V284H348.711V278.49H349.851V279.12C350.038 278.893 350.274 278.717 350.561 278.59C350.854 278.463 351.164 278.4 351.491 278.4ZM357.985 278.4C358.418 278.4 358.805 278.49 359.145 278.67C359.492 278.85 359.762 279.117 359.955 279.47C360.148 279.823 360.245 280.25 360.245 280.75V284H359.115V280.92C359.115 280.427 358.992 280.05 358.745 279.79C358.498 279.523 358.162 279.39 357.735 279.39C357.308 279.39 356.968 279.523 356.715 279.79C356.468 280.05 356.345 280.427 356.345 280.92V284H355.205V278.49H356.345V279.12C356.532 278.893 356.768 278.717 357.055 278.59C357.348 278.463 357.658 278.4 357.985 278.4ZM366.749 281.11C366.749 281.317 366.736 281.503 366.709 281.67H362.499C362.533 282.11 362.696 282.463 362.989 282.73C363.283 282.997 363.643 283.13 364.069 283.13C364.683 283.13 365.116 282.873 365.369 282.36H366.599C366.433 282.867 366.129 283.283 365.689 283.61C365.256 283.93 364.716 284.09 364.069 284.09C363.543 284.09 363.069 283.973 362.649 283.74C362.236 283.5 361.909 283.167 361.669 282.74C361.436 282.307 361.319 281.807 361.319 281.24C361.319 280.673 361.433 280.177 361.659 279.75C361.893 279.317 362.216 278.983 362.629 278.75C363.049 278.517 363.529 278.4 364.069 278.4C364.589 278.4 365.053 278.513 365.459 278.74C365.866 278.967 366.183 279.287 366.409 279.7C366.636 280.107 366.749 280.577 366.749 281.11ZM365.559 280.75C365.553 280.33 365.403 279.993 365.109 279.74C364.816 279.487 364.453 279.36 364.019 279.36C363.626 279.36 363.289 279.487 363.009 279.74C362.729 279.987 362.563 280.323 362.509 280.75H365.559ZM367.491 281.24C367.491 280.673 367.604 280.177 367.831 279.75C368.064 279.317 368.384 278.983 368.791 278.75C369.198 278.517 369.664 278.4 370.191 278.4C370.858 278.4 371.408 278.56 371.841 278.88C372.281 279.193 372.578 279.643 372.731 280.23H371.501C371.401 279.957 371.241 279.743 371.021 279.59C370.801 279.437 370.524 279.36 370.191 279.36C369.724 279.36 369.351 279.527 369.071 279.86C368.798 280.187 368.661 280.647 368.661 281.24C368.661 281.833 368.798 282.297 369.071 282.63C369.351 282.963 369.724 283.13 370.191 283.13C370.851 283.13 371.288 282.84 371.501 282.26H372.731C372.571 282.82 372.271 283.267 371.831 283.6C371.391 283.927 370.844 284.09 370.191 284.09C369.664 284.09 369.198 283.973 368.791 283.74C368.384 283.5 368.064 283.167 367.831 282.74C367.604 282.307 367.491 281.807 367.491 281.24ZM375.197 279.42V282.47C375.197 282.677 375.244 282.827 375.337 282.92C375.437 283.007 375.604 283.05 375.837 283.05H376.537V284H375.637C375.124 284 374.731 283.88 374.457 283.64C374.184 283.4 374.047 283.01 374.047 282.47V279.42H373.397V278.49H374.047V277.12H375.197V278.49H376.537V279.42H375.197Z" fill="#0D2D5C"/>
<path d="M155.384 299.056C155.016 299.056 154.685 298.992 154.392 298.864C154.104 298.731 153.877 298.549 153.712 298.32C153.547 298.085 153.461 297.816 153.456 297.512H154.232C154.259 297.773 154.365 297.995 154.552 298.176C154.744 298.352 155.021 298.44 155.384 298.44C155.731 298.44 156.003 298.355 156.2 298.184C156.403 298.008 156.504 297.784 156.504 297.512C156.504 297.299 156.445 297.125 156.328 296.992C156.211 296.859 156.064 296.757 155.888 296.688C155.712 296.619 155.475 296.544 155.176 296.464C154.808 296.368 154.512 296.272 154.288 296.176C154.069 296.08 153.88 295.931 153.72 295.728C153.565 295.52 153.488 295.243 153.488 294.896C153.488 294.592 153.565 294.323 153.72 294.088C153.875 293.853 154.091 293.672 154.368 293.544C154.651 293.416 154.973 293.352 155.336 293.352C155.859 293.352 156.285 293.483 156.616 293.744C156.952 294.005 157.141 294.352 157.184 294.784H156.384C156.357 294.571 156.245 294.384 156.048 294.224C155.851 294.059 155.589 293.976 155.264 293.976C154.96 293.976 154.712 294.056 154.52 294.216C154.328 294.371 154.232 294.589 154.232 294.872C154.232 295.075 154.288 295.24 154.4 295.368C154.517 295.496 154.659 295.595 154.824 295.664C154.995 295.728 155.232 295.803 155.536 295.888C155.904 295.989 156.2 296.091 156.424 296.192C156.648 296.288 156.84 296.44 157 296.648C157.16 296.851 157.24 297.128 157.24 297.48C157.24 297.752 157.168 298.008 157.024 298.248C156.88 298.488 156.667 298.683 156.384 298.832C156.101 298.981 155.768 299.056 155.384 299.056ZM158.687 293.904C158.549 293.904 158.431 293.856 158.335 293.76C158.239 293.664 158.191 293.547 158.191 293.408C158.191 293.269 158.239 293.152 158.335 293.056C158.431 292.96 158.549 292.912 158.687 292.912C158.821 292.912 158.933 292.96 159.023 293.056C159.119 293.152 159.167 293.269 159.167 293.408C159.167 293.547 159.119 293.664 159.023 293.76C158.933 293.856 158.821 293.904 158.687 293.904ZM159.039 294.616V299H158.311V294.616H159.039ZM162.416 294.536C162.949 294.536 163.381 294.699 163.712 295.024C164.043 295.344 164.208 295.808 164.208 296.416V299H163.488V296.52C163.488 296.083 163.379 295.749 163.16 295.52C162.941 295.285 162.643 295.168 162.264 295.168C161.88 295.168 161.573 295.288 161.344 295.528C161.12 295.768 161.008 296.117 161.008 296.576V299H160.28V294.616H161.008V295.24C161.152 295.016 161.347 294.843 161.592 294.72C161.843 294.597 162.117 294.536 162.416 294.536ZM165.125 296.8C165.125 296.347 165.216 295.952 165.397 295.616C165.579 295.275 165.829 295.011 166.149 294.824C166.475 294.637 166.845 294.544 167.261 294.544C167.8 294.544 168.243 294.675 168.589 294.936C168.941 295.197 169.173 295.56 169.285 296.024H168.501C168.427 295.757 168.28 295.547 168.061 295.392C167.848 295.237 167.581 295.16 167.261 295.16C166.845 295.16 166.509 295.304 166.253 295.592C165.997 295.875 165.869 296.277 165.869 296.8C165.869 297.328 165.997 297.736 166.253 298.024C166.509 298.312 166.845 298.456 167.261 298.456C167.581 298.456 167.848 298.381 168.061 298.232C168.275 298.083 168.421 297.869 168.501 297.592H169.285C169.168 298.04 168.933 298.4 168.581 298.672C168.229 298.939 167.789 299.072 167.261 299.072C166.845 299.072 166.475 298.979 166.149 298.792C165.829 298.605 165.579 298.341 165.397 298C165.216 297.659 165.125 297.259 165.125 296.8ZM170.985 295.328C171.113 295.077 171.294 294.883 171.529 294.744C171.769 294.605 172.059 294.536 172.401 294.536V295.288H172.209C171.393 295.288 170.985 295.731 170.985 296.616V299H170.257V294.616H170.985V295.328ZM175.153 299.072C174.742 299.072 174.369 298.979 174.033 298.792C173.702 298.605 173.441 298.341 173.249 298C173.062 297.653 172.969 297.253 172.969 296.8C172.969 296.352 173.065 295.957 173.257 295.616C173.454 295.269 173.721 295.005 174.057 294.824C174.393 294.637 174.769 294.544 175.185 294.544C175.601 294.544 175.977 294.637 176.313 294.824C176.649 295.005 176.913 295.267 177.105 295.608C177.302 295.949 177.401 296.347 177.401 296.8C177.401 297.253 177.3 297.653 177.097 298C176.9 298.341 176.63 298.605 176.289 298.792C175.948 298.979 175.569 299.072 175.153 299.072ZM175.153 298.432C175.414 298.432 175.66 298.371 175.889 298.248C176.118 298.125 176.302 297.941 176.441 297.696C176.585 297.451 176.657 297.152 176.657 296.8C176.657 296.448 176.588 296.149 176.449 295.904C176.31 295.659 176.129 295.477 175.905 295.36C175.681 295.237 175.438 295.176 175.177 295.176C174.91 295.176 174.665 295.237 174.441 295.36C174.222 295.477 174.046 295.659 173.913 295.904C173.78 296.149 173.713 296.448 173.713 296.8C173.713 297.157 173.777 297.459 173.905 297.704C174.038 297.949 174.214 298.133 174.433 298.256C174.652 298.373 174.892 298.432 175.153 298.432ZM180.494 294.536C181.028 294.536 181.46 294.699 181.79 295.024C182.121 295.344 182.286 295.808 182.286 296.416V299H181.566V296.52C181.566 296.083 181.457 295.749 181.238 295.52C181.02 295.285 180.721 295.168 180.342 295.168C179.958 295.168 179.652 295.288 179.422 295.528C179.198 295.768 179.086 296.117 179.086 296.576V299H178.358V294.616H179.086V295.24C179.23 295.016 179.425 294.843 179.67 294.72C179.921 294.597 180.196 294.536 180.494 294.536ZM183.851 293.904C183.713 293.904 183.595 293.856 183.499 293.76C183.403 293.664 183.355 293.547 183.355 293.408C183.355 293.269 183.403 293.152 183.499 293.056C183.595 292.96 183.713 292.912 183.851 292.912C183.985 292.912 184.097 292.96 184.187 293.056C184.283 293.152 184.331 293.269 184.331 293.408C184.331 293.547 184.283 293.664 184.187 293.76C184.097 293.856 183.985 293.904 183.851 293.904ZM184.203 294.616V299H183.475V294.616H184.203ZM185.988 298.4H188.14V299H185.156V298.4L187.284 295.208H185.172V294.616H188.124V295.208L185.988 298.4ZM193.085 296.64C193.085 296.779 193.077 296.925 193.061 297.08H189.557C189.583 297.512 189.73 297.851 189.997 298.096C190.269 298.336 190.597 298.456 190.981 298.456C191.295 298.456 191.557 298.384 191.765 298.24C191.978 298.091 192.127 297.893 192.213 297.648H192.997C192.879 298.069 192.645 298.413 192.293 298.68C191.941 298.941 191.503 299.072 190.981 299.072C190.565 299.072 190.191 298.979 189.861 298.792C189.535 298.605 189.279 298.341 189.093 298C188.906 297.653 188.813 297.253 188.813 296.8C188.813 296.347 188.903 295.949 189.085 295.608C189.266 295.267 189.519 295.005 189.845 294.824C190.175 294.637 190.554 294.544 190.981 294.544C191.397 294.544 191.765 294.635 192.085 294.816C192.405 294.997 192.65 295.248 192.821 295.568C192.997 295.883 193.085 296.24 193.085 296.64ZM192.333 296.488C192.333 296.211 192.271 295.973 192.149 295.776C192.026 295.573 191.858 295.421 191.645 295.32C191.437 295.213 191.205 295.16 190.949 295.16C190.581 295.16 190.266 295.277 190.005 295.512C189.749 295.747 189.602 296.072 189.565 296.488H192.333ZM197.731 299.072C197.395 299.072 197.093 299.016 196.827 298.904C196.56 298.787 196.349 298.627 196.195 298.424C196.04 298.216 195.955 297.979 195.939 297.712H196.691C196.712 297.931 196.813 298.109 196.995 298.248C197.181 298.387 197.424 298.456 197.723 298.456C198 298.456 198.219 298.395 198.379 298.272C198.539 298.149 198.619 297.995 198.619 297.808C198.619 297.616 198.533 297.475 198.363 297.384C198.192 297.288 197.928 297.195 197.571 297.104C197.245 297.019 196.979 296.933 196.771 296.848C196.568 296.757 196.392 296.627 196.243 296.456C196.099 296.28 196.027 296.051 196.027 295.768C196.027 295.544 196.093 295.339 196.227 295.152C196.36 294.965 196.549 294.819 196.795 294.712C197.04 294.6 197.32 294.544 197.635 294.544C198.12 294.544 198.512 294.667 198.811 294.912C199.109 295.157 199.269 295.493 199.291 295.92H198.563C198.547 295.691 198.453 295.507 198.283 295.368C198.117 295.229 197.893 295.16 197.611 295.16C197.349 295.16 197.141 295.216 196.987 295.328C196.832 295.44 196.755 295.587 196.755 295.768C196.755 295.912 196.8 296.032 196.891 296.128C196.987 296.219 197.104 296.293 197.243 296.352C197.387 296.405 197.584 296.467 197.835 296.536C198.149 296.621 198.405 296.707 198.603 296.792C198.8 296.872 198.968 296.995 199.107 297.16C199.251 297.325 199.325 297.541 199.331 297.808C199.331 298.048 199.264 298.264 199.131 298.456C198.997 298.648 198.808 298.8 198.563 298.912C198.323 299.019 198.045 299.072 197.731 299.072ZM204.246 294.616V299H203.518V298.352C203.38 298.576 203.185 298.752 202.934 298.88C202.689 299.003 202.417 299.064 202.118 299.064C201.777 299.064 201.47 298.995 201.198 298.856C200.926 298.712 200.71 298.499 200.55 298.216C200.396 297.933 200.318 297.589 200.318 297.184V294.616H201.038V297.088C201.038 297.52 201.148 297.853 201.366 298.088C201.585 298.317 201.884 298.432 202.262 298.432C202.652 298.432 202.958 298.312 203.182 298.072C203.406 297.832 203.518 297.483 203.518 297.024V294.616H204.246ZM205.203 296.792C205.203 296.344 205.294 295.952 205.475 295.616C205.657 295.275 205.905 295.011 206.219 294.824C206.539 294.637 206.894 294.544 207.283 294.544C207.667 294.544 208.001 294.627 208.283 294.792C208.566 294.957 208.777 295.165 208.915 295.416V294.616H209.651V299H208.915V298.184C208.771 298.44 208.555 298.653 208.267 298.824C207.985 298.989 207.654 299.072 207.275 299.072C206.886 299.072 206.534 298.976 206.219 298.784C205.905 298.592 205.657 298.323 205.475 297.976C205.294 297.629 205.203 297.235 205.203 296.792ZM208.915 296.8C208.915 296.469 208.849 296.181 208.715 295.936C208.582 295.691 208.401 295.504 208.171 295.376C207.947 295.243 207.699 295.176 207.427 295.176C207.155 295.176 206.907 295.24 206.683 295.368C206.459 295.496 206.281 295.683 206.147 295.928C206.014 296.173 205.947 296.461 205.947 296.792C205.947 297.128 206.014 297.421 206.147 297.672C206.281 297.917 206.459 298.107 206.683 298.24C206.907 298.368 207.155 298.432 207.427 298.432C207.699 298.432 207.947 298.368 208.171 298.24C208.401 298.107 208.582 297.917 208.715 297.672C208.849 297.421 208.915 297.131 208.915 296.8ZM218.854 294.616L217.486 299H216.734L215.678 295.52L214.622 299H213.87L212.494 294.616H213.238L214.246 298.296L215.334 294.616H216.078L217.142 298.304L218.134 294.616H218.854ZM219.305 296.792C219.305 296.344 219.396 295.952 219.577 295.616C219.758 295.275 220.006 295.011 220.321 294.824C220.641 294.637 220.996 294.544 221.385 294.544C221.769 294.544 222.102 294.627 222.385 294.792C222.668 294.957 222.878 295.165 223.017 295.416V294.616H223.753V299H223.017V298.184C222.873 298.44 222.657 298.653 222.369 298.824C222.086 298.989 221.756 299.072 221.377 299.072C220.988 299.072 220.636 298.976 220.321 298.784C220.006 298.592 219.758 298.323 219.577 297.976C219.396 297.629 219.305 297.235 219.305 296.792ZM223.017 296.8C223.017 296.469 222.95 296.181 222.817 295.936C222.684 295.691 222.502 295.504 222.273 295.376C222.049 295.243 221.801 295.176 221.529 295.176C221.257 295.176 221.009 295.24 220.785 295.368C220.561 295.496 220.382 295.683 220.249 295.928C220.116 296.173 220.049 296.461 220.049 296.792C220.049 297.128 220.116 297.421 220.249 297.672C220.382 297.917 220.561 298.107 220.785 298.24C221.009 298.368 221.257 298.432 221.529 298.432C221.801 298.432 222.049 298.368 222.273 298.24C222.502 298.107 222.684 297.917 222.817 297.672C222.95 297.421 223.017 297.131 223.017 296.8ZM225.711 293.08V299H224.983V293.08H225.711ZM227.68 293.08V299H226.952V293.08H227.68ZM232.921 296.64C232.921 296.779 232.913 296.925 232.897 297.08H229.393C229.419 297.512 229.566 297.851 229.833 298.096C230.105 298.336 230.433 298.456 230.817 298.456C231.131 298.456 231.393 298.384 231.601 298.24C231.814 298.091 231.963 297.893 232.049 297.648H232.833C232.715 298.069 232.481 298.413 232.129 298.68C231.777 298.941 231.339 299.072 230.817 299.072C230.401 299.072 230.027 298.979 229.697 298.792C229.371 298.605 229.115 298.341 228.929 298C228.742 297.653 228.649 297.253 228.649 296.8C228.649 296.347 228.739 295.949 228.921 295.608C229.102 295.267 229.355 295.005 229.681 294.824C230.011 294.637 230.39 294.544 230.817 294.544C231.233 294.544 231.601 294.635 231.921 294.816C232.241 294.997 232.486 295.248 232.657 295.568C232.833 295.883 232.921 296.24 232.921 296.64ZM232.169 296.488C232.169 296.211 232.107 295.973 231.985 295.776C231.862 295.573 231.694 295.421 231.481 295.32C231.273 295.213 231.041 295.16 230.785 295.16C230.417 295.16 230.102 295.277 229.841 295.512C229.585 295.747 229.438 296.072 229.401 296.488H232.169ZM234.77 295.216V297.8C234.77 298.013 234.815 298.165 234.906 298.256C234.996 298.341 235.154 298.384 235.378 298.384H235.914V299H235.258C234.852 299 234.548 298.907 234.346 298.72C234.143 298.533 234.042 298.227 234.042 297.8V295.216H233.474V294.616H234.042V293.512H234.77V294.616H235.914V295.216H234.77ZM238.657 296.8C238.657 296.347 238.747 295.952 238.929 295.616C239.11 295.275 239.361 295.011 239.681 294.824C240.006 294.637 240.377 294.544 240.793 294.544C241.331 294.544 241.774 294.675 242.121 294.936C242.473 295.197 242.705 295.56 242.817 296.024H242.033C241.958 295.757 241.811 295.547 241.593 295.392C241.379 295.237 241.113 295.16 240.793 295.16C240.377 295.16 240.041 295.304 239.785 295.592C239.529 295.875 239.401 296.277 239.401 296.8C239.401 297.328 239.529 297.736 239.785 298.024C240.041 298.312 240.377 298.456 240.793 298.456C241.113 298.456 241.379 298.381 241.593 298.232C241.806 298.083 241.953 297.869 242.033 297.592H242.817C242.699 298.04 242.465 298.4 242.113 298.672C241.761 298.939 241.321 299.072 240.793 299.072C240.377 299.072 240.006 298.979 239.681 298.792C239.361 298.605 239.11 298.341 238.929 298C238.747 297.659 238.657 297.259 238.657 296.8ZM245.7 299.072C245.289 299.072 244.916 298.979 244.58 298.792C244.249 298.605 243.988 298.341 243.796 298C243.609 297.653 243.516 297.253 243.516 296.8C243.516 296.352 243.612 295.957 243.804 295.616C244.001 295.269 244.268 295.005 244.604 294.824C244.94 294.637 245.316 294.544 245.732 294.544C246.148 294.544 246.524 294.637 246.86 294.824C247.196 295.005 247.46 295.267 247.652 295.608C247.849 295.949 247.948 296.347 247.948 296.8C247.948 297.253 247.847 297.653 247.644 298C247.447 298.341 247.177 298.605 246.836 298.792C246.495 298.979 246.116 299.072 245.7 299.072ZM245.7 298.432C245.961 298.432 246.207 298.371 246.436 298.248C246.665 298.125 246.849 297.941 246.988 297.696C247.132 297.451 247.204 297.152 247.204 296.8C247.204 296.448 247.135 296.149 246.996 295.904C246.857 295.659 246.676 295.477 246.452 295.36C246.228 295.237 245.985 295.176 245.724 295.176C245.457 295.176 245.212 295.237 244.988 295.36C244.769 295.477 244.593 295.659 244.46 295.904C244.327 296.149 244.26 296.448 244.26 296.8C244.26 297.157 244.324 297.459 244.452 297.704C244.585 297.949 244.761 298.133 244.98 298.256C245.199 298.373 245.439 298.432 245.7 298.432ZM254.177 294.536C254.518 294.536 254.822 294.608 255.089 294.752C255.356 294.891 255.566 295.101 255.721 295.384C255.876 295.667 255.953 296.011 255.953 296.416V299H255.233V296.52C255.233 296.083 255.124 295.749 254.905 295.52C254.692 295.285 254.401 295.168 254.033 295.168C253.654 295.168 253.353 295.291 253.129 295.536C252.905 295.776 252.793 296.125 252.793 296.584V299H252.073V296.52C252.073 296.083 251.964 295.749 251.745 295.52C251.532 295.285 251.241 295.168 250.873 295.168C250.494 295.168 250.193 295.291 249.969 295.536C249.745 295.776 249.633 296.125 249.633 296.584V299H248.905V294.616H249.633V295.248C249.777 295.019 249.969 294.843 250.209 294.72C250.454 294.597 250.724 294.536 251.017 294.536C251.385 294.536 251.71 294.619 251.993 294.784C252.276 294.949 252.486 295.192 252.625 295.512C252.748 295.203 252.95 294.963 253.233 294.792C253.516 294.621 253.83 294.536 254.177 294.536ZM261.192 299.072C260.781 299.072 260.408 298.979 260.072 298.792C259.741 298.605 259.48 298.341 259.288 298C259.101 297.653 259.008 297.253 259.008 296.8C259.008 296.352 259.104 295.957 259.296 295.616C259.493 295.269 259.76 295.005 260.096 294.824C260.432 294.637 260.808 294.544 261.224 294.544C261.64 294.544 262.016 294.637 262.352 294.824C262.688 295.005 262.952 295.267 263.144 295.608C263.341 295.949 263.44 296.347 263.44 296.8C263.44 297.253 263.339 297.653 263.136 298C262.939 298.341 262.669 298.605 262.328 298.792C261.987 298.979 261.608 299.072 261.192 299.072ZM261.192 298.432C261.453 298.432 261.699 298.371 261.928 298.248C262.157 298.125 262.341 297.941 262.48 297.696C262.624 297.451 262.696 297.152 262.696 296.8C262.696 296.448 262.627 296.149 262.488 295.904C262.349 295.659 262.168 295.477 261.944 295.36C261.72 295.237 261.477 295.176 261.216 295.176C260.949 295.176 260.704 295.237 260.48 295.36C260.261 295.477 260.085 295.659 259.952 295.904C259.819 296.149 259.752 296.448 259.752 296.8C259.752 297.157 259.816 297.459 259.944 297.704C260.077 297.949 260.253 298.133 260.472 298.256C260.691 298.373 260.931 298.432 261.192 298.432ZM268.266 293.424C268.874 293.424 269.399 293.539 269.842 293.768C270.29 293.992 270.631 294.315 270.866 294.736C271.106 295.157 271.226 295.653 271.226 296.224C271.226 296.795 271.106 297.291 270.866 297.712C270.631 298.128 270.29 298.448 269.842 298.672C269.399 298.891 268.874 299 268.266 299H266.53V293.424H268.266ZM268.266 298.4C268.986 298.4 269.535 298.211 269.914 297.832C270.293 297.448 270.482 296.912 270.482 296.224C270.482 295.531 270.29 294.989 269.906 294.6C269.527 294.211 268.981 294.016 268.266 294.016H267.258V298.4H268.266ZM272.562 293.904C272.424 293.904 272.306 293.856 272.21 293.76C272.114 293.664 272.066 293.547 272.066 293.408C272.066 293.269 272.114 293.152 272.21 293.056C272.306 292.96 272.424 292.912 272.562 292.912C272.696 292.912 272.808 292.96 272.898 293.056C272.994 293.152 273.042 293.269 273.042 293.408C273.042 293.547 272.994 293.664 272.898 293.76C272.808 293.856 272.696 293.904 272.562 293.904ZM272.914 294.616V299H272.186V294.616H272.914ZM275.707 299.072C275.371 299.072 275.07 299.016 274.803 298.904C274.536 298.787 274.326 298.627 274.171 298.424C274.016 298.216 273.931 297.979 273.915 297.712H274.667C274.688 297.931 274.79 298.109 274.971 298.248C275.158 298.387 275.4 298.456 275.699 298.456C275.976 298.456 276.195 298.395 276.355 298.272C276.515 298.149 276.595 297.995 276.595 297.808C276.595 297.616 276.51 297.475 276.339 297.384C276.168 297.288 275.904 297.195 275.547 297.104C275.222 297.019 274.955 296.933 274.747 296.848C274.544 296.757 274.368 296.627 274.219 296.456C274.075 296.28 274.003 296.051 274.003 295.768C274.003 295.544 274.07 295.339 274.203 295.152C274.336 294.965 274.526 294.819 274.771 294.712C275.016 294.6 275.296 294.544 275.611 294.544C276.096 294.544 276.488 294.667 276.787 294.912C277.086 295.157 277.246 295.493 277.267 295.92H276.539C276.523 295.691 276.43 295.507 276.259 295.368C276.094 295.229 275.87 295.16 275.587 295.16C275.326 295.16 275.118 295.216 274.963 295.328C274.808 295.44 274.731 295.587 274.731 295.768C274.731 295.912 274.776 296.032 274.867 296.128C274.963 296.219 275.08 296.293 275.219 296.352C275.363 296.405 275.56 296.467 275.811 296.536C276.126 296.621 276.382 296.707 276.579 296.792C276.776 296.872 276.944 296.995 277.083 297.16C277.227 297.325 277.302 297.541 277.307 297.808C277.307 298.048 277.24 298.264 277.107 298.456C276.974 298.648 276.784 298.8 276.539 298.912C276.299 299.019 276.022 299.072 275.707 299.072ZM278.063 296.8C278.063 296.347 278.153 295.952 278.335 295.616C278.516 295.275 278.767 295.011 279.087 294.824C279.412 294.637 279.783 294.544 280.199 294.544C280.737 294.544 281.18 294.675 281.527 294.936C281.879 295.197 282.111 295.56 282.223 296.024H281.439C281.364 295.757 281.217 295.547 280.999 295.392C280.785 295.237 280.519 295.16 280.199 295.16C279.783 295.16 279.447 295.304 279.191 295.592C278.935 295.875 278.807 296.277 278.807 296.8C278.807 297.328 278.935 297.736 279.191 298.024C279.447 298.312 279.783 298.456 280.199 298.456C280.519 298.456 280.785 298.381 280.999 298.232C281.212 298.083 281.359 297.869 281.439 297.592H282.223C282.105 298.04 281.871 298.4 281.519 298.672C281.167 298.939 280.727 299.072 280.199 299.072C279.783 299.072 279.412 298.979 279.087 298.792C278.767 298.605 278.516 298.341 278.335 298C278.153 297.659 278.063 297.259 278.063 296.8ZM285.106 299.072C284.695 299.072 284.322 298.979 283.986 298.792C283.655 298.605 283.394 298.341 283.202 298C283.015 297.653 282.922 297.253 282.922 296.8C282.922 296.352 283.018 295.957 283.21 295.616C283.407 295.269 283.674 295.005 284.01 294.824C284.346 294.637 284.722 294.544 285.138 294.544C285.554 294.544 285.93 294.637 286.266 294.824C286.602 295.005 286.866 295.267 287.058 295.608C287.255 295.949 287.354 296.347 287.354 296.8C287.354 297.253 287.253 297.653 287.05 298C286.853 298.341 286.583 298.605 286.242 298.792C285.901 298.979 285.522 299.072 285.106 299.072ZM285.106 298.432C285.367 298.432 285.613 298.371 285.842 298.248C286.071 298.125 286.255 297.941 286.394 297.696C286.538 297.451 286.61 297.152 286.61 296.8C286.61 296.448 286.541 296.149 286.402 295.904C286.263 295.659 286.082 295.477 285.858 295.36C285.634 295.237 285.391 295.176 285.13 295.176C284.863 295.176 284.618 295.237 284.394 295.36C284.175 295.477 283.999 295.659 283.866 295.904C283.733 296.149 283.666 296.448 283.666 296.8C283.666 297.157 283.73 297.459 283.858 297.704C283.991 297.949 284.167 298.133 284.386 298.256C284.605 298.373 284.845 298.432 285.106 298.432ZM289.039 295.328C289.167 295.077 289.349 294.883 289.583 294.744C289.823 294.605 290.114 294.536 290.455 294.536V295.288H290.263C289.447 295.288 289.039 295.731 289.039 296.616V299H288.311V294.616H289.039V295.328ZM291.024 296.792C291.024 296.344 291.114 295.952 291.296 295.616C291.477 295.275 291.725 295.011 292.04 294.824C292.36 294.637 292.717 294.544 293.112 294.544C293.453 294.544 293.77 294.624 294.064 294.784C294.357 294.939 294.581 295.144 294.736 295.4V293.08H295.472V299H294.736V298.176C294.592 298.437 294.378 298.653 294.096 298.824C293.813 298.989 293.482 299.072 293.104 299.072C292.714 299.072 292.36 298.976 292.04 298.784C291.725 298.592 291.477 298.323 291.296 297.976C291.114 297.629 291.024 297.235 291.024 296.792ZM294.736 296.8C294.736 296.469 294.669 296.181 294.536 295.936C294.402 295.691 294.221 295.504 293.992 295.376C293.768 295.243 293.52 295.176 293.248 295.176C292.976 295.176 292.728 295.24 292.504 295.368C292.28 295.496 292.101 295.683 291.968 295.928C291.834 296.173 291.768 296.461 291.768 296.792C291.768 297.128 291.834 297.421 291.968 297.672C292.101 297.917 292.28 298.107 292.504 298.24C292.728 298.368 292.976 298.432 293.248 298.432C293.52 298.432 293.768 298.368 293.992 298.24C294.221 298.107 294.402 297.917 294.536 297.672C294.669 297.421 294.736 297.131 294.736 296.8ZM296.934 299.048C296.795 299.048 296.678 299 296.582 298.904C296.486 298.808 296.438 298.691 296.438 298.552C296.438 298.413 296.486 298.296 296.582 298.2C296.678 298.104 296.795 298.056 296.934 298.056C297.067 298.056 297.179 298.104 297.27 298.2C297.366 298.296 297.414 298.413 297.414 298.552C297.414 298.691 297.366 298.808 297.27 298.904C297.179 299 297.067 299.048 296.934 299.048Z" fill="white"/>
<g filter="url(#filter0_b_1707_102907)">
<rect x="474" y="278" width="67" height="19" rx="9.5" fill="#EFEFEF"/>
<path d="M487.6 290.556C487.227 290.556 486.891 290.492 486.592 290.364C486.293 290.231 486.059 290.044 485.888 289.804C485.717 289.564 485.632 289.284 485.632 288.964H486.608C486.629 289.204 486.723 289.401 486.888 289.556C487.059 289.711 487.296 289.788 487.6 289.788C487.915 289.788 488.16 289.713 488.336 289.564C488.512 289.409 488.6 289.212 488.6 288.972C488.6 288.785 488.544 288.633 488.432 288.516C488.325 288.399 488.189 288.308 488.024 288.244C487.864 288.18 487.64 288.111 487.352 288.036C486.989 287.94 486.693 287.844 486.464 287.748C486.24 287.647 486.048 287.492 485.888 287.284C485.728 287.076 485.648 286.799 485.648 286.452C485.648 286.132 485.728 285.852 485.888 285.612C486.048 285.372 486.272 285.188 486.56 285.06C486.848 284.932 487.181 284.868 487.56 284.868C488.099 284.868 488.539 285.004 488.88 285.276C489.227 285.543 489.419 285.911 489.456 286.38H488.448C488.432 286.177 488.336 286.004 488.16 285.86C487.984 285.716 487.752 285.644 487.464 285.644C487.203 285.644 486.989 285.711 486.824 285.844C486.659 285.977 486.576 286.169 486.576 286.42C486.576 286.591 486.627 286.732 486.728 286.844C486.835 286.951 486.968 287.036 487.128 287.1C487.288 287.164 487.507 287.233 487.784 287.308C488.152 287.409 488.451 287.511 488.68 287.612C488.915 287.713 489.112 287.871 489.272 288.084C489.437 288.292 489.52 288.572 489.52 288.924C489.52 289.207 489.443 289.473 489.288 289.724C489.139 289.975 488.917 290.177 488.624 290.332C488.336 290.481 487.995 290.556 487.6 290.556ZM491.06 285.508C490.895 285.508 490.756 285.452 490.644 285.34C490.532 285.228 490.476 285.089 490.476 284.924C490.476 284.759 490.532 284.62 490.644 284.508C490.756 284.396 490.895 284.34 491.06 284.34C491.22 284.34 491.356 284.396 491.468 284.508C491.58 284.62 491.636 284.759 491.636 284.924C491.636 285.089 491.58 285.228 491.468 285.34C491.356 285.452 491.22 285.508 491.06 285.508ZM491.508 286.092V290.5H490.596V286.092H491.508ZM494.929 286.02C495.276 286.02 495.585 286.092 495.857 286.236C496.135 286.38 496.351 286.593 496.505 286.876C496.66 287.159 496.737 287.5 496.737 287.9V290.5H495.833V288.036C495.833 287.641 495.735 287.34 495.537 287.132C495.34 286.919 495.071 286.812 494.729 286.812C494.388 286.812 494.116 286.919 493.913 287.132C493.716 287.34 493.617 287.641 493.617 288.036V290.5H492.705V286.092H493.617V286.596C493.767 286.415 493.956 286.273 494.185 286.172C494.42 286.071 494.668 286.02 494.929 286.02ZM497.597 288.292C497.597 287.839 497.687 287.441 497.869 287.1C498.055 286.753 498.311 286.487 498.637 286.3C498.962 286.113 499.335 286.02 499.757 286.02C500.29 286.02 500.73 286.148 501.077 286.404C501.429 286.655 501.666 287.015 501.789 287.484H500.805C500.725 287.265 500.597 287.095 500.421 286.972C500.245 286.849 500.023 286.788 499.757 286.788C499.383 286.788 499.085 286.921 498.861 287.188C498.642 287.449 498.533 287.817 498.533 288.292C498.533 288.767 498.642 289.137 498.861 289.404C499.085 289.671 499.383 289.804 499.757 289.804C500.285 289.804 500.634 289.572 500.805 289.108H501.789C501.661 289.556 501.421 289.913 501.069 290.18C500.717 290.441 500.279 290.572 499.757 290.572C499.335 290.572 498.962 290.479 498.637 290.292C498.311 290.1 498.055 289.833 497.869 289.492C497.687 289.145 497.597 288.745 497.597 288.292ZM503.61 286.732C503.743 286.508 503.919 286.335 504.138 286.212C504.362 286.084 504.626 286.02 504.93 286.02V286.964H504.698C504.34 286.964 504.068 287.055 503.882 287.236C503.7 287.417 503.61 287.732 503.61 288.18V290.5H502.698V286.092H503.61V286.732ZM507.68 290.572C507.264 290.572 506.888 290.479 506.552 290.292C506.216 290.1 505.952 289.833 505.76 289.492C505.568 289.145 505.472 288.745 505.472 288.292C505.472 287.844 505.571 287.447 505.768 287.1C505.965 286.753 506.235 286.487 506.576 286.3C506.917 286.113 507.299 286.02 507.72 286.02C508.141 286.02 508.523 286.113 508.864 286.3C509.205 286.487 509.475 286.753 509.672 287.1C509.869 287.447 509.968 287.844 509.968 288.292C509.968 288.74 509.867 289.137 509.664 289.484C509.461 289.831 509.184 290.1 508.832 290.292C508.485 290.479 508.101 290.572 507.68 290.572ZM507.68 289.78C507.915 289.78 508.133 289.724 508.336 289.612C508.544 289.5 508.712 289.332 508.84 289.108C508.968 288.884 509.032 288.612 509.032 288.292C509.032 287.972 508.971 287.703 508.848 287.484C508.725 287.26 508.563 287.092 508.36 286.98C508.157 286.868 507.939 286.812 507.704 286.812C507.469 286.812 507.251 286.868 507.048 286.98C506.851 287.092 506.693 287.26 506.576 287.484C506.459 287.703 506.4 287.972 506.4 288.292C506.4 288.767 506.52 289.135 506.76 289.396C507.005 289.652 507.312 289.78 507.68 289.78ZM513.094 286.02C513.44 286.02 513.75 286.092 514.022 286.236C514.299 286.38 514.515 286.593 514.67 286.876C514.824 287.159 514.902 287.5 514.902 287.9V290.5H513.998V288.036C513.998 287.641 513.899 287.34 513.702 287.132C513.504 286.919 513.235 286.812 512.894 286.812C512.552 286.812 512.28 286.919 512.078 287.132C511.88 287.34 511.782 287.641 511.782 288.036V290.5H510.87V286.092H511.782V286.596C511.931 286.415 512.12 286.273 512.35 286.172C512.584 286.071 512.832 286.02 513.094 286.02ZM516.529 285.508C516.364 285.508 516.225 285.452 516.113 285.34C516.001 285.228 515.945 285.089 515.945 284.924C515.945 284.759 516.001 284.62 516.113 284.508C516.225 284.396 516.364 284.34 516.529 284.34C516.689 284.34 516.825 284.396 516.937 284.508C517.049 284.62 517.105 284.759 517.105 284.924C517.105 285.089 517.049 285.228 516.937 285.34C516.825 285.452 516.689 285.508 516.529 285.508ZM516.977 286.092V290.5H516.065V286.092H516.977ZM518.982 289.756H520.982V290.5H517.926V289.756L519.934 286.836H517.926V286.092H520.982V286.836L518.982 289.756ZM521.636 288.276C521.636 287.833 521.727 287.441 521.908 287.1C522.095 286.759 522.345 286.495 522.66 286.308C522.98 286.116 523.332 286.02 523.716 286.02C524.063 286.02 524.364 286.089 524.62 286.228C524.881 286.361 525.089 286.529 525.244 286.732V286.092H526.164V290.5H525.244V289.844C525.089 290.052 524.879 290.225 524.612 290.364C524.345 290.503 524.041 290.572 523.7 290.572C523.321 290.572 522.975 290.476 522.66 290.284C522.345 290.087 522.095 289.815 521.908 289.468C521.727 289.116 521.636 288.719 521.636 288.276ZM525.244 288.292C525.244 287.988 525.18 287.724 525.052 287.5C524.929 287.276 524.767 287.105 524.564 286.988C524.361 286.871 524.143 286.812 523.908 286.812C523.673 286.812 523.455 286.871 523.252 286.988C523.049 287.1 522.884 287.268 522.756 287.492C522.633 287.711 522.572 287.972 522.572 288.276C522.572 288.58 522.633 288.847 522.756 289.076C522.884 289.305 523.049 289.481 523.252 289.604C523.46 289.721 523.679 289.78 523.908 289.78C524.143 289.78 524.361 289.721 524.564 289.604C524.767 289.487 524.929 289.316 525.052 289.092C525.18 288.863 525.244 288.596 525.244 288.292ZM528.274 286.732C528.407 286.508 528.583 286.335 528.802 286.212C529.026 286.084 529.29 286.02 529.594 286.02V286.964H529.362C529.004 286.964 528.732 287.055 528.546 287.236C528.364 287.417 528.274 287.732 528.274 288.18V290.5H527.362V286.092H528.274V286.732Z" fill="#383857"/>
<rect x="474.5" y="278.5" width="66" height="18" rx="9" stroke="#295BA6"/>
</g>
<path d="M152 254.5H541" stroke="white"/>
<path d="M152 221H541" stroke="white"/>
<path d="M152 184H541" stroke="white"/>
<path d="M152 149H541" stroke="white"/>
<path d="M152 111H541" stroke="white"/>
<path d="M152 75H541" stroke="white"/>
<rect x="31" y="59" width="70" height="6" rx="3" fill="#94B8ED"/>
<rect x="44" y="69" width="44" height="6" rx="3" fill="#94B8ED"/>
<rect x="31" y="119" width="70" height="6" rx="3" fill="#94B8ED"/>
<rect x="152" y="56" width="70" height="6" rx="3" fill="#94B8ED"/>
<rect x="152" y="91" width="106" height="6" rx="3" fill="#94B8ED"/>
<rect x="152" y="127" width="106" height="6" rx="3" fill="#94B8ED"/>
<rect x="152" y="166" width="106" height="6" rx="3" fill="#94B8ED"/>
<rect x="152" y="200" width="106" height="6" rx="3" fill="#94B8ED"/>
<rect x="152" y="235" width="106" height="6" rx="3" fill="#94B8ED"/>
<rect x="495" y="52" width="46" height="16" rx="8" fill="#94B8ED"/>
<rect x="348" y="233" width="46" height="16" rx="8" fill="#94B8ED"/>
<rect x="495" y="86" width="46" height="16" rx="8" fill="#94B8ED"/>
<rect x="495" y="122" width="46" height="16" rx="8" fill="#94B8ED"/>
<rect x="495" y="156" width="46" height="16" rx="8" fill="#94B8ED"/>
<rect x="438" y="52" width="46" height="16" rx="8" fill="#94B8ED"/>
<rect x="381" y="52" width="46" height="16" rx="8" fill="#94B8ED"/>
<rect x="31" y="141" width="70" height="6" rx="3" fill="#94B8ED"/>
<rect x="31" y="163" width="70" height="6" rx="3" fill="#94B8ED"/>
<rect x="31" y="185" width="70" height="6" rx="3" fill="#94B8ED"/>
<rect x="31" y="207" width="70" height="6" rx="3" fill="#94B8ED"/>
<rect x="31" y="229" width="70" height="6" rx="3" fill="#94B8ED"/>
<rect x="31" y="251" width="70" height="6" rx="3" fill="#94B8ED"/>
<defs>
<filter id="filter0_b_1707_102907" x="470" y="274" width="75" height="27" filterUnits="userSpaceOnUse" color-interpolation-filters="sRGB">
<feFlood flood-opacity="0" result="BackgroundImageFix"/>
<feGaussianBlur in="BackgroundImageFix" stdDeviation="2"/>
<feComposite in2="SourceAlpha" operator="in" result="effect1_backgroundBlur_1707_102907"/>
<feBlend mode="normal" in="SourceGraphic" in2="effect1_backgroundBlur_1707_102907" result="shape"/>
</filter>
</defs>
</svg>
