<svg width="580" height="389" viewBox="0 0 580 389" fill="none" xmlns="http://www.w3.org/2000/svg">
<rect width="580" height="389" rx="8" fill="#35394C"/>
<circle cx="33.5" cy="91.5" r="16.5" fill="#4E8EEE"/>
<rect x="17" y="60" width="33" height="3" fill="#4E8EEE"/>
<path d="M66 24C66 19.5817 69.5817 16 74 16H152V352H66V24Z" fill="#5682C3"/>
<rect x="66" y="352" width="86" height="37" fill="#466BA4"/>
<path d="M497 41H580V381C580 385.418 576.418 389 572 389H497V41Z" fill="#5682C3"/>
<rect x="160" y="361" width="329" height="20" rx="4" fill="#466BA4"/>
<rect x="187" y="235" width="70" height="6" rx="3" fill="#5682C3"/>
<rect x="94" y="361" width="44" height="4" rx="2" fill="#95A9C8"/>
<rect x="94" y="367" width="21" height="4" rx="2" fill="#95A9C8"/>
<rect x="160" y="255" width="302" height="6" rx="3" fill="#5682C3"/>
<rect x="160" y="265" width="302" height="6" rx="3" fill="#5682C3"/>
<rect x="160" y="275" width="302" height="6" rx="3" fill="#5682C3"/>
<rect x="160" y="285" width="278" height="6" rx="3" fill="#5682C3"/>
<rect x="160" y="295" width="217" height="6" rx="3" fill="#5682C3"/>
<rect x="160" y="305" width="157" height="6" rx="3" fill="#5682C3"/>
<rect x="160" y="315" width="73" height="6" rx="3" fill="#5682C3"/>
<rect x="160" y="328" width="43" height="19" rx="4" fill="#5682C3"/>
<circle cx="169.5" cy="238.5" r="9.5" fill="#4E8EEE"/>
<path d="M123.417 379.667C123.477 379.667 123.535 379.688 123.581 379.728C123.627 379.768 123.656 379.823 123.664 379.883L123.667 379.917V380.083C123.667 380.651 123.452 381.198 123.066 381.614C122.679 382.03 122.15 382.285 121.584 382.327L121.583 383.083C121.583 383.147 121.559 383.207 121.516 383.254C121.473 383.3 121.414 383.328 121.35 383.333C121.287 383.337 121.225 383.317 121.176 383.277C121.126 383.237 121.094 383.18 121.086 383.117L121.083 383.083V382.327C120.531 382.286 120.012 382.042 119.628 381.643C119.244 381.243 119.021 380.716 119.001 380.162L119 380.083V379.917C119 379.853 119.024 379.792 119.067 379.746C119.111 379.7 119.17 379.671 119.233 379.667C119.296 379.663 119.359 379.683 119.408 379.723C119.457 379.763 119.489 379.82 119.498 379.883L119.5 379.917V380.083C119.5 380.535 119.675 380.969 119.987 381.295C120.3 381.621 120.727 381.813 121.178 381.832L121.25 381.833H121.417C121.868 381.833 122.303 381.659 122.628 381.346C122.954 381.033 123.147 380.606 123.165 380.155L123.167 380.083V379.917C123.167 379.85 123.193 379.787 123.24 379.74C123.287 379.693 123.35 379.667 123.417 379.667ZM121.333 376.667C121.687 376.667 122.026 376.807 122.276 377.057C122.526 377.307 122.667 377.646 122.667 378V380C122.667 380.353 122.526 380.693 122.276 380.943C122.026 381.193 121.687 381.333 121.333 381.333C120.98 381.333 120.641 381.193 120.391 380.943C120.14 380.693 120 380.353 120 380V378C120 377.646 120.14 377.307 120.391 377.057C120.641 376.807 120.98 376.667 121.333 376.667Z" fill="#95A9C8"/>
<path d="M134.333 380.167V382.5C134.333 382.677 134.263 382.847 134.138 382.972C134.013 383.097 133.844 383.167 133.667 383.167H133C132.823 383.167 132.654 383.097 132.529 382.972C132.404 382.847 132.333 382.677 132.333 382.5V380.833C132.333 380.657 132.404 380.487 132.529 380.362C132.654 380.237 132.823 380.167 133 380.167H133.667C133.667 379.46 133.386 378.781 132.886 378.281C132.386 377.781 131.707 377.5 131 377.5C130.293 377.5 129.615 377.781 129.114 378.281C128.614 378.781 128.333 379.46 128.333 380.167H129C129.177 380.167 129.346 380.237 129.471 380.362C129.597 380.487 129.667 380.657 129.667 380.833V382.5C129.667 382.677 129.597 382.847 129.471 382.972C129.346 383.097 129.177 383.167 129 383.167H128.333C128.157 383.167 127.987 383.097 127.862 382.972C127.737 382.847 127.667 382.677 127.667 382.5V380.167C127.667 378.326 129.159 376.833 131 376.833C132.841 376.833 134.333 378.326 134.333 380.167Z" fill="#95A9C8"/>
<path d="M142.94 383.333H141.727C141.651 383.333 141.577 383.307 141.518 383.26C141.458 383.212 141.417 383.145 141.401 383.071L141.265 382.443C141.084 382.364 140.913 382.265 140.754 382.148L140.141 382.343C140.069 382.366 139.991 382.363 139.92 382.336C139.849 382.308 139.789 382.257 139.751 382.192L139.143 381.141C139.106 381.075 139.092 380.998 139.103 380.923C139.115 380.848 139.152 380.78 139.208 380.728L139.683 380.295C139.661 380.099 139.661 379.9 139.683 379.704L139.208 379.272C139.152 379.22 139.115 379.152 139.103 379.076C139.091 379.001 139.106 378.924 139.143 378.859L139.75 377.808C139.788 377.742 139.847 377.691 139.918 377.663C139.989 377.636 140.067 377.633 140.14 377.657L140.752 377.852C140.834 377.792 140.918 377.736 141.006 377.685C141.09 377.638 141.177 377.595 141.265 377.556L141.401 376.929C141.417 376.855 141.459 376.788 141.518 376.74C141.577 376.693 141.651 376.667 141.727 376.667H142.94C143.016 376.667 143.09 376.693 143.149 376.74C143.208 376.788 143.249 376.855 143.265 376.929L143.403 377.557C143.583 377.636 143.755 377.735 143.914 377.852L144.527 377.657C144.599 377.634 144.678 377.637 144.748 377.664C144.819 377.691 144.879 377.742 144.917 377.808L145.523 378.859C145.601 378.995 145.574 379.167 145.459 379.272L144.984 379.706C145.006 379.902 145.006 380.1 144.984 380.296L145.459 380.73C145.574 380.836 145.601 381.007 145.523 381.143L144.917 382.194C144.879 382.259 144.819 382.31 144.748 382.338C144.677 382.365 144.599 382.368 144.527 382.345L143.914 382.15C143.755 382.267 143.584 382.366 143.403 382.445L143.265 383.071C143.249 383.145 143.208 383.212 143.149 383.259C143.09 383.307 143.016 383.333 142.94 383.333ZM142.332 378.667C141.978 378.667 141.639 378.807 141.389 379.057C141.139 379.307 140.999 379.646 140.999 380C140.999 380.353 141.139 380.693 141.389 380.943C141.639 381.193 141.978 381.333 142.332 381.333C142.686 381.333 143.025 381.193 143.275 380.943C143.525 380.693 143.665 380.353 143.665 380C143.665 379.646 143.525 379.307 143.275 379.057C143.025 378.807 142.686 378.667 142.332 378.667Z" fill="#95A9C8"/>
<circle cx="80" cy="366" r="10" fill="#95A9C8"/>
<path d="M80.0001 365.417C80.4616 365.417 80.9127 365.28 81.2964 365.023C81.6801 364.767 81.9792 364.403 82.1558 363.976C82.3324 363.55 82.3786 363.081 82.2886 362.628C82.1985 362.176 81.9763 361.76 81.65 361.433C81.3237 361.107 80.9079 360.885 80.4553 360.795C80.0027 360.705 79.5335 360.751 79.1072 360.928C78.6808 361.104 78.3164 361.403 78.06 361.787C77.8036 362.171 77.6667 362.622 77.6667 363.083C77.6667 363.702 77.9126 364.296 78.3502 364.733C78.7878 365.171 79.3812 365.417 80.0001 365.417ZM83.5001 371.25C83.6548 371.25 83.8032 371.189 83.9126 371.079C84.022 370.97 84.0834 370.821 84.0834 370.667C84.0834 369.584 83.6532 368.545 82.8874 367.779C82.1217 367.014 81.083 366.583 80.0001 366.583C78.9171 366.583 77.8785 367.014 77.1127 367.779C76.347 368.545 75.9167 369.584 75.9167 370.667C75.9167 370.821 75.9782 370.97 76.0876 371.079C76.197 371.189 76.3454 371.25 76.5001 371.25H83.5001Z" fill="#295BA6"/>
<path d="M78.259 52.557C78.259 52.081 78.3687 51.654 78.588 51.276C78.812 50.898 79.113 50.604 79.491 50.394C79.8737 50.1793 80.2913 50.072 80.744 50.072C81.262 50.072 81.7217 50.2003 82.123 50.457C82.529 50.709 82.823 51.0683 83.005 51.535H82.046C81.92 51.2783 81.745 51.087 81.521 50.961C81.297 50.835 81.038 50.772 80.744 50.772C80.422 50.772 80.135 50.8443 79.883 50.989C79.631 51.1337 79.4327 51.3413 79.288 51.612C79.148 51.8827 79.078 52.1977 79.078 52.557C79.078 52.9163 79.148 53.2313 79.288 53.502C79.4327 53.7727 79.631 53.9827 79.883 54.132C80.135 54.2767 80.422 54.349 80.744 54.349C81.038 54.349 81.297 54.286 81.521 54.16C81.745 54.034 81.92 53.8427 82.046 53.586H83.005C82.823 54.0527 82.529 54.412 82.123 54.664C81.7217 54.916 81.262 55.042 80.744 55.042C80.2867 55.042 79.869 54.937 79.491 54.727C79.113 54.5123 78.812 54.216 78.588 53.838C78.3687 53.46 78.259 53.033 78.259 52.557ZM86.1581 55.049C85.7054 55.049 85.2877 54.944 84.9051 54.734C84.5271 54.5193 84.2261 54.223 84.0021 53.845C83.7827 53.4623 83.6731 53.033 83.6731 52.557C83.6731 52.081 83.7827 51.654 84.0021 51.276C84.2261 50.898 84.5271 50.604 84.9051 50.394C85.2877 50.1793 85.7054 50.072 86.1581 50.072C86.6154 50.072 87.0331 50.1793 87.4111 50.394C87.7937 50.604 88.0947 50.898 88.3141 51.276C88.5334 51.654 88.6431 52.081 88.6431 52.557C88.6431 53.033 88.5334 53.4623 88.3141 53.845C88.0947 54.223 87.7937 54.5193 87.4111 54.734C87.0331 54.944 86.6154 55.049 86.1581 55.049ZM86.1581 54.356C86.4801 54.356 86.7671 54.2837 87.0191 54.139C87.2711 53.9897 87.4671 53.7797 87.6071 53.509C87.7517 53.2337 87.8241 52.9163 87.8241 52.557C87.8241 52.1977 87.7517 51.8827 87.6071 51.612C87.4671 51.3413 87.2711 51.1337 87.0191 50.989C86.7671 50.8443 86.4801 50.772 86.1581 50.772C85.8361 50.772 85.5491 50.8443 85.2971 50.989C85.0451 51.1337 84.8467 51.3413 84.7021 51.612C84.5621 51.8827 84.4921 52.1977 84.4921 52.557C84.4921 52.9163 84.5621 53.2337 84.7021 53.509C84.8467 53.7797 85.0451 53.9897 85.2971 54.139C85.5491 54.2837 85.8361 54.356 86.1581 54.356ZM94.5523 50.135V55H93.7543V51.668L92.2703 55H91.7173L90.2263 51.668V55H89.4283V50.135H90.2893L91.9973 53.95L93.6983 50.135H94.5523ZM96.3992 50.779V52.207H98.0792V52.858H96.3992V54.349H98.2892V55H95.6012V50.128H98.2892V50.779H96.3992ZM101.491 54.349C101.785 54.349 102.044 54.286 102.268 54.16C102.492 54.034 102.667 53.8427 102.793 53.586H103.752C103.584 54.0153 103.323 54.356 102.968 54.608C102.613 54.8553 102.203 54.9977 101.736 55.035V55.336C102.007 55.336 102.226 55.399 102.394 55.525C102.562 55.6557 102.646 55.8377 102.646 56.071C102.646 56.3043 102.562 56.4887 102.394 56.624C102.226 56.764 102.014 56.834 101.757 56.834H100.833V56.33H101.596C101.727 56.33 101.825 56.3113 101.89 56.274C101.955 56.2367 101.988 56.169 101.988 56.071C101.988 55.973 101.955 55.9053 101.89 55.868C101.825 55.8307 101.727 55.812 101.596 55.812H101.211V55.028C100.8 54.986 100.427 54.8553 100.091 54.636C99.7551 54.4167 99.4891 54.1273 99.2931 53.768C99.1017 53.404 99.0061 53.0003 99.0061 52.557C99.0061 52.081 99.1157 51.654 99.3351 51.276C99.5591 50.898 99.8601 50.604 100.238 50.394C100.621 50.1793 101.038 50.072 101.491 50.072C102.009 50.072 102.469 50.2003 102.87 50.457C103.276 50.709 103.57 51.0683 103.752 51.535H102.793C102.667 51.2783 102.492 51.087 102.268 50.961C102.044 50.835 101.785 50.772 101.491 50.772C101.169 50.772 100.882 50.8443 100.63 50.989C100.378 51.1337 100.18 51.3413 100.035 51.612C99.8951 51.8827 99.8251 52.1977 99.8251 52.557C99.8251 52.9163 99.8951 53.2313 100.035 53.502C100.18 53.7727 100.378 53.9827 100.63 54.132C100.882 54.2767 101.169 54.349 101.491 54.349ZM105.484 50.779V52.207H107.164V52.858H105.484V54.349H107.374V55H104.686V50.128H107.374V50.779H105.484ZM113.108 54.006H111.071L110.721 55H109.888L111.631 50.128H112.555L114.298 55H113.458L113.108 54.006ZM112.884 53.355L112.093 51.094L111.295 53.355H112.884ZM118.822 55.882L117.968 54.958C117.758 55.0187 117.527 55.049 117.275 55.049C116.823 55.049 116.405 54.944 116.022 54.734C115.644 54.5193 115.343 54.223 115.119 53.845C114.9 53.4623 114.79 53.033 114.79 52.557C114.79 52.081 114.9 51.654 115.119 51.276C115.343 50.898 115.644 50.604 116.022 50.394C116.405 50.1793 116.823 50.072 117.275 50.072C117.733 50.072 118.15 50.1793 118.528 50.394C118.911 50.604 119.212 50.898 119.431 51.276C119.651 51.654 119.76 52.081 119.76 52.557C119.76 53.005 119.662 53.411 119.466 53.775C119.275 54.1343 119.009 54.4237 118.668 54.643L119.837 55.882H118.822ZM115.609 52.557C115.609 52.9163 115.679 53.2337 115.819 53.509C115.964 53.7797 116.162 53.9897 116.414 54.139C116.666 54.2837 116.953 54.356 117.275 54.356C117.597 54.356 117.884 54.2837 118.136 54.139C118.388 53.9897 118.584 53.7797 118.724 53.509C118.869 53.2337 118.941 52.9163 118.941 52.557C118.941 52.1977 118.869 51.8827 118.724 51.612C118.584 51.3413 118.388 51.1337 118.136 50.989C117.884 50.8443 117.597 50.772 117.275 50.772C116.953 50.772 116.666 50.8443 116.414 50.989C116.162 51.1337 115.964 51.3413 115.819 51.612C115.679 51.8827 115.609 52.1977 115.609 52.557ZM121.357 50.135V53.236C121.357 53.6047 121.453 53.8823 121.644 54.069C121.84 54.2557 122.111 54.349 122.456 54.349C122.806 54.349 123.077 54.2557 123.268 54.069C123.464 53.8823 123.562 53.6047 123.562 53.236V50.135H124.36V53.222C124.36 53.6187 124.274 53.9547 124.101 54.23C123.928 54.5053 123.697 54.7107 123.408 54.846C123.119 54.9813 122.799 55.049 122.449 55.049C122.099 55.049 121.779 54.9813 121.49 54.846C121.205 54.7107 120.979 54.5053 120.811 54.23C120.643 53.9547 120.559 53.6187 120.559 53.222V50.135H121.357ZM126.197 50.135V55H125.399V50.135H126.197Z" fill="#0E3D85"/>
<path d="M82.606 67.794L82.347 69.005H83.271V69.705H82.2L81.92 71H81.157L81.437 69.705H80.065L79.785 71H79.022L79.302 69.705H78.217V69.005H79.449L79.708 67.794H78.63V67.094H79.855L80.128 65.82H80.891L80.618 67.094H81.99L82.263 65.82H83.026L82.753 67.094H83.684V67.794H82.606ZM81.843 67.794H80.471L80.212 69.005H81.584L81.843 67.794ZM86.0295 71.063C85.7262 71.063 85.4532 71.0093 85.2105 70.902C84.9725 70.79 84.7835 70.6407 84.6435 70.454C84.5035 70.2627 84.4288 70.0503 84.4195 69.817H85.2455C85.2595 69.9803 85.3365 70.118 85.4765 70.23C85.6212 70.3373 85.8008 70.391 86.0155 70.391C86.2395 70.391 86.4122 70.349 86.5335 70.265C86.6595 70.1763 86.7225 70.0643 86.7225 69.929C86.7225 69.7843 86.6525 69.677 86.5125 69.607C86.3772 69.537 86.1602 69.46 85.8615 69.376C85.5722 69.2967 85.3365 69.2197 85.1545 69.145C84.9725 69.0703 84.8138 68.956 84.6785 68.802C84.5478 68.648 84.4825 68.445 84.4825 68.193C84.4825 67.9877 84.5432 67.801 84.6645 67.633C84.7858 67.4603 84.9585 67.325 85.1825 67.227C85.4112 67.129 85.6725 67.08 85.9665 67.08C86.4052 67.08 86.7575 67.192 87.0235 67.416C87.2942 67.6353 87.4388 67.9363 87.4575 68.319H86.6595C86.6455 68.1463 86.5755 68.0087 86.4495 67.906C86.3235 67.8033 86.1532 67.752 85.9385 67.752C85.7285 67.752 85.5675 67.7917 85.4555 67.871C85.3435 67.9503 85.2875 68.0553 85.2875 68.186C85.2875 68.2887 85.3248 68.375 85.3995 68.445C85.4742 68.515 85.5652 68.571 85.6725 68.613C85.7798 68.6503 85.9385 68.6993 86.1485 68.76C86.4285 68.8347 86.6572 68.9117 86.8345 68.991C87.0165 69.0657 87.1728 69.1777 87.3035 69.327C87.4342 69.4763 87.5018 69.6747 87.5065 69.922C87.5065 70.1413 87.4458 70.3373 87.3245 70.51C87.2032 70.6827 87.0305 70.818 86.8065 70.916C86.5872 71.014 86.3282 71.063 86.0295 71.063ZM91.8618 67.143V71H91.0638V70.545C90.9378 70.7037 90.7721 70.8297 90.5668 70.923C90.3661 71.0117 90.1514 71.056 89.9228 71.056C89.6194 71.056 89.3464 70.993 89.1038 70.867C88.8658 70.741 88.6768 70.5543 88.5368 70.307C88.4014 70.0597 88.3338 69.761 88.3338 69.411V67.143H89.1248V69.292C89.1248 69.6373 89.2111 69.9033 89.3838 70.09C89.5564 70.272 89.7921 70.363 90.0908 70.363C90.3894 70.363 90.6251 70.272 90.7978 70.09C90.9751 69.9033 91.0638 69.6373 91.0638 69.292V67.143H91.8618ZM93.7126 67.71C93.848 67.5327 94.0323 67.3833 94.2656 67.262C94.499 67.1407 94.7626 67.08 95.0566 67.08C95.3926 67.08 95.6983 67.164 95.9736 67.332C96.2536 67.4953 96.473 67.7263 96.6316 68.025C96.7903 68.3237 96.8696 68.6667 96.8696 69.054C96.8696 69.4413 96.7903 69.789 96.6316 70.097C96.473 70.4003 96.2536 70.6383 95.9736 70.811C95.6983 70.979 95.3926 71.063 95.0566 71.063C94.7626 71.063 94.5013 71.0047 94.2726 70.888C94.044 70.7667 93.8573 70.6173 93.7126 70.44V72.834H92.9146V67.143H93.7126V67.71ZM96.0576 69.054C96.0576 68.788 96.0016 68.5593 95.8896 68.368C95.7823 68.172 95.6376 68.025 95.4556 67.927C95.2783 67.8243 95.087 67.773 94.8816 67.773C94.681 67.773 94.4896 67.8243 94.3076 67.927C94.1303 68.0297 93.9856 68.179 93.8736 68.375C93.7663 68.571 93.7126 68.802 93.7126 69.068C93.7126 69.334 93.7663 69.5673 93.8736 69.768C93.9856 69.964 94.1303 70.1133 94.3076 70.216C94.4896 70.3187 94.681 70.37 94.8816 70.37C95.087 70.37 95.2783 70.3187 95.4556 70.216C95.6376 70.1087 95.7823 69.9547 95.8896 69.754C96.0016 69.5533 96.0576 69.32 96.0576 69.054ZM101.194 68.977C101.194 69.1217 101.184 69.2523 101.166 69.369H98.2188C98.2421 69.677 98.3565 69.9243 98.5618 70.111C98.7671 70.2977 99.0191 70.391 99.3178 70.391C99.7471 70.391 100.05 70.2113 100.228 69.852H101.089C100.972 70.2067 100.76 70.4983 100.452 70.727C100.148 70.951 99.7705 71.063 99.3178 71.063C98.9491 71.063 98.6178 70.9813 98.3238 70.818C98.0345 70.65 97.8058 70.4167 97.6378 70.118C97.4745 69.8147 97.3928 69.4647 97.3928 69.068C97.3928 68.6713 97.4721 68.3237 97.6308 68.025C97.7941 67.7217 98.0205 67.4883 98.3098 67.325C98.6038 67.1617 98.9398 67.08 99.3178 67.08C99.6818 67.08 100.006 67.1593 100.291 67.318C100.575 67.4767 100.797 67.7007 100.956 67.99C101.114 68.2747 101.194 68.6037 101.194 68.977ZM100.361 68.725C100.356 68.431 100.251 68.1953 100.046 68.018C99.8405 67.8407 99.5861 67.752 99.2828 67.752C99.0075 67.752 98.7718 67.8407 98.5758 68.018C98.3798 68.1907 98.2631 68.4263 98.2258 68.725H100.361ZM102.777 67.703C102.894 67.507 103.048 67.3553 103.239 67.248C103.435 67.136 103.666 67.08 103.932 67.08V67.906H103.729C103.416 67.906 103.178 67.9853 103.015 68.144C102.856 68.3027 102.777 68.578 102.777 68.97V71H101.979V67.143H102.777V67.703ZM106.283 67.794H105.569V71H104.764V67.794H104.309V67.143H104.764V66.87C104.764 66.4267 104.88 66.1047 105.114 65.904C105.352 65.6987 105.723 65.596 106.227 65.596V66.261C105.984 66.261 105.814 66.3077 105.716 66.401C105.618 66.4897 105.569 66.646 105.569 66.87V67.143H106.283V67.794ZM107.788 67.143V71H106.99V67.143H107.788ZM108.11 66.107L106.563 66.87V66.282L108.11 65.428V66.107ZM108.57 69.068C108.57 68.6713 108.649 68.3237 108.808 68.025C108.971 67.7217 109.195 67.4883 109.48 67.325C109.764 67.1617 110.091 67.08 110.46 67.08C110.926 67.08 111.311 67.192 111.615 67.416C111.923 67.6353 112.13 67.9503 112.238 68.361H111.377C111.307 68.1697 111.195 68.0203 111.041 67.913C110.887 67.8057 110.693 67.752 110.46 67.752C110.133 67.752 109.872 67.8687 109.676 68.102C109.484 68.3307 109.389 68.6527 109.389 69.068C109.389 69.4833 109.484 69.8077 109.676 70.041C109.872 70.2743 110.133 70.391 110.46 70.391C110.922 70.391 111.227 70.188 111.377 69.782H112.238C112.126 70.174 111.916 70.4867 111.608 70.72C111.3 70.9487 110.917 71.063 110.46 71.063C110.091 71.063 109.764 70.9813 109.48 70.818C109.195 70.65 108.971 70.4167 108.808 70.118C108.649 69.8147 108.57 69.4647 108.57 69.068ZM113.439 66.632C113.294 66.632 113.173 66.583 113.075 66.485C112.977 66.387 112.928 66.2657 112.928 66.121C112.928 65.9763 112.977 65.855 113.075 65.757C113.173 65.659 113.294 65.61 113.439 65.61C113.579 65.61 113.698 65.659 113.796 65.757C113.894 65.855 113.943 65.9763 113.943 66.121C113.943 66.2657 113.894 66.387 113.796 66.485C113.698 66.583 113.579 66.632 113.439 66.632ZM113.831 67.143V71H113.033V67.143H113.831ZM118.414 68.977C118.414 69.1217 118.404 69.2523 118.386 69.369H115.439C115.462 69.677 115.576 69.9243 115.782 70.111C115.987 70.2977 116.239 70.391 116.538 70.391C116.967 70.391 117.27 70.2113 117.448 69.852H118.309C118.192 70.2067 117.98 70.4983 117.672 70.727C117.368 70.951 116.99 71.063 116.538 71.063C116.169 71.063 115.838 70.9813 115.544 70.818C115.254 70.65 115.026 70.4167 114.858 70.118C114.694 69.8147 114.613 69.4647 114.613 69.068C114.613 68.6713 114.692 68.3237 114.851 68.025C115.014 67.7217 115.24 67.4883 115.53 67.325C115.824 67.1617 116.16 67.08 116.538 67.08C116.902 67.08 117.226 67.1593 117.511 67.318C117.795 67.4767 118.017 67.7007 118.176 67.99C118.334 68.2747 118.414 68.6037 118.414 68.977ZM117.581 68.725C117.576 68.431 117.471 68.1953 117.266 68.018C117.06 67.8407 116.806 67.752 116.503 67.752C116.227 67.752 115.992 67.8407 115.796 68.018C115.6 68.1907 115.483 68.4263 115.446 68.725H117.581Z" fill="#0E3D85"/>
<circle cx="33.5" cy="36.5" r="16.5" fill="#4E8EEE"/>
<g clip-path="url(#clip0_1707_100758)">
<path d="M41.4832 28.5012C39.9748 27.7907 38.3791 27.2858 36.7381 27C36.5337 27.372 36.2949 27.8724 36.1303 28.2705C34.3611 28.0027 32.6081 28.0027 30.8714 28.2705C30.7068 27.8725 30.4626 27.372 30.2564 27C28.6138 27.286 27.0167 27.7921 25.5077 28.5049C22.5047 33.0736 21.6907 37.5286 22.0977 41.9206C24.0894 43.4181 26.0196 44.3278 27.9173 44.923C28.3889 44.2701 28.8058 43.5788 29.1637 42.8563C28.4823 42.5951 27.8255 42.2733 27.201 41.8946C27.3653 41.772 27.5258 41.6441 27.6822 41.5113C31.4666 43.2934 35.5785 43.2934 39.3178 41.5113C39.4749 41.6433 39.6353 41.7711 39.7989 41.8946C39.1734 42.2743 38.5153 42.5968 37.8326 42.8582C38.1925 43.5836 38.6087 44.2756 39.079 44.9248C40.9785 44.3297 42.9105 43.42 44.9022 41.9206C45.3799 36.8293 44.0865 32.415 41.4832 28.5011V28.5012ZM29.6793 39.2196C28.5432 39.2196 27.6115 38.1519 27.6115 36.8516C27.6115 35.5514 28.5234 34.4818 29.6793 34.4818C30.8353 34.4818 31.7669 35.5495 31.7471 36.8516C31.7488 38.1519 30.8353 39.2196 29.6793 39.2196ZM37.3206 39.2196C36.1845 39.2196 35.2529 38.1519 35.2529 36.8516C35.2529 35.5514 36.1647 34.4818 37.3206 34.4818C38.4766 34.4818 39.4082 35.5495 39.3884 36.8516C39.3884 38.1519 38.4766 39.2196 37.3206 39.2196Z" fill="white"/>
</g>
<path d="M66 24C66 19.5817 69.5817 16 74 16H580V41H66V24Z" fill="#295BA6" fill-opacity="0.63"/>
<path d="M81.927 27.584C81.927 27.8313 81.8687 28.0647 81.752 28.284C81.6353 28.5033 81.4487 28.683 81.192 28.823C80.9353 28.9583 80.6063 29.026 80.205 29.026H79.323V31H78.525V26.135H80.205C80.5783 26.135 80.8933 26.2003 81.15 26.331C81.4113 26.457 81.605 26.6297 81.731 26.849C81.8617 27.0683 81.927 27.3133 81.927 27.584ZM80.205 28.375C80.5083 28.375 80.7347 28.3073 80.884 28.172C81.0333 28.032 81.108 27.836 81.108 27.584C81.108 27.052 80.807 26.786 80.205 26.786H79.323V28.375H80.205ZM83.4861 27.703C83.6028 27.507 83.7568 27.3553 83.9481 27.248C84.1441 27.136 84.3751 27.08 84.6411 27.08V27.906H84.4381C84.1254 27.906 83.8874 27.9853 83.7241 28.144C83.5654 28.3027 83.4861 28.578 83.4861 28.97V31H82.6881V27.143H83.4861V27.703ZM85.7806 26.632C85.6359 26.632 85.5146 26.583 85.4166 26.485C85.3186 26.387 85.2696 26.2657 85.2696 26.121C85.2696 25.9763 85.3186 25.855 85.4166 25.757C85.5146 25.659 85.6359 25.61 85.7806 25.61C85.9206 25.61 86.0396 25.659 86.1376 25.757C86.2356 25.855 86.2846 25.9763 86.2846 26.121C86.2846 26.2657 86.2356 26.387 86.1376 26.485C86.0396 26.583 85.9206 26.632 85.7806 26.632ZM86.1726 27.143V31H85.3746V27.143H86.1726ZM91.8893 27.08C92.1926 27.08 92.4633 27.143 92.7013 27.269C92.944 27.395 93.133 27.5817 93.2683 27.829C93.4083 28.0763 93.4783 28.375 93.4783 28.725V31H92.6873V28.844C92.6873 28.4987 92.601 28.235 92.4283 28.053C92.2556 27.8663 92.02 27.773 91.7213 27.773C91.4226 27.773 91.1846 27.8663 91.0073 28.053C90.8346 28.235 90.7483 28.4987 90.7483 28.844V31H89.9573V28.844C89.9573 28.4987 89.871 28.235 89.6983 28.053C89.5256 27.8663 89.29 27.773 88.9913 27.773C88.6926 27.773 88.4546 27.8663 88.2773 28.053C88.1046 28.235 88.0183 28.4987 88.0183 28.844V31H87.2203V27.143H88.0183V27.584C88.149 27.4253 88.3146 27.3017 88.5153 27.213C88.716 27.1243 88.9306 27.08 89.1593 27.08C89.4673 27.08 89.7426 27.1453 89.9853 27.276C90.228 27.4067 90.4146 27.5957 90.5453 27.843C90.662 27.6097 90.844 27.4253 91.0913 27.29C91.3386 27.15 91.6046 27.08 91.8893 27.08ZM98.0288 28.977C98.0288 29.1217 98.0194 29.2523 98.0008 29.369H95.0538C95.0771 29.677 95.1914 29.9243 95.3968 30.111C95.6021 30.2977 95.8541 30.391 96.1528 30.391C96.5821 30.391 96.8854 30.2113 97.0628 29.852H97.9237C97.8071 30.2067 97.5948 30.4983 97.2868 30.727C96.9834 30.951 96.6054 31.063 96.1528 31.063C95.7841 31.063 95.4528 30.9813 95.1588 30.818C94.8694 30.65 94.6408 30.4167 94.4728 30.118C94.3094 29.8147 94.2278 29.4647 94.2278 29.068C94.2278 28.6713 94.3071 28.3237 94.4658 28.025C94.6291 27.7217 94.8554 27.4883 95.1448 27.325C95.4388 27.1617 95.7748 27.08 96.1528 27.08C96.5168 27.08 96.8411 27.1593 97.1258 27.318C97.4104 27.4767 97.6321 27.7007 97.7908 27.99C97.9494 28.2747 98.0288 28.6037 98.0288 28.977ZM97.1958 28.725C97.1911 28.431 97.0861 28.1953 96.8808 28.018C96.6754 27.8407 96.4211 27.752 96.1178 27.752C95.8424 27.752 95.6068 27.8407 95.4108 28.018C95.2148 28.1907 95.0981 28.4263 95.0608 28.725H97.1958ZM100.417 31.049C100.09 31.049 99.7964 30.993 99.5351 30.881C99.2737 30.7643 99.0684 30.601 98.9191 30.391C98.7697 30.181 98.6951 29.936 98.6951 29.656H99.5491C99.5677 29.866 99.6494 30.0387 99.7941 30.174C99.9434 30.3093 100.151 30.377 100.417 30.377C100.692 30.377 100.907 30.3117 101.061 30.181C101.215 30.0457 101.292 29.873 101.292 29.663C101.292 29.4997 101.243 29.3667 101.145 29.264C101.052 29.1613 100.933 29.082 100.788 29.026C100.648 28.97 100.452 28.9093 100.2 28.844C99.8827 28.76 99.6237 28.676 99.4231 28.592C99.2271 28.5033 99.0591 28.368 98.9191 28.186C98.7791 28.004 98.7091 27.7613 98.7091 27.458C98.7091 27.178 98.7791 26.933 98.9191 26.723C99.0591 26.513 99.2551 26.352 99.5071 26.24C99.7591 26.128 100.051 26.072 100.382 26.072C100.853 26.072 101.238 26.191 101.537 26.429C101.84 26.6623 102.008 26.9843 102.041 27.395H101.159C101.145 27.2177 101.061 27.066 100.907 26.94C100.753 26.814 100.55 26.751 100.298 26.751C100.069 26.751 99.8827 26.8093 99.7381 26.926C99.5934 27.0427 99.5211 27.2107 99.5211 27.43C99.5211 27.5793 99.5654 27.703 99.6541 27.801C99.7474 27.8943 99.8641 27.969 100.004 28.025C100.144 28.081 100.335 28.1417 100.578 28.207C100.9 28.2957 101.161 28.3843 101.362 28.473C101.567 28.5617 101.74 28.6993 101.88 28.886C102.025 29.068 102.097 29.313 102.097 29.621C102.097 29.8683 102.029 30.1017 101.894 30.321C101.763 30.5403 101.57 30.7177 101.313 30.853C101.061 30.9837 100.762 31.049 100.417 31.049ZM106.574 28.977C106.574 29.1217 106.564 29.2523 106.546 29.369H103.599C103.622 29.677 103.736 29.9243 103.942 30.111C104.147 30.2977 104.399 30.391 104.698 30.391C105.127 30.391 105.43 30.2113 105.608 29.852H106.469C106.352 30.2067 106.14 30.4983 105.832 30.727C105.528 30.951 105.15 31.063 104.698 31.063C104.329 31.063 103.998 30.9813 103.704 30.818C103.414 30.65 103.186 30.4167 103.018 30.118C102.854 29.8147 102.773 29.4647 102.773 29.068C102.773 28.6713 102.852 28.3237 103.011 28.025C103.174 27.7217 103.4 27.4883 103.69 27.325C103.984 27.1617 104.32 27.08 104.698 27.08C105.062 27.08 105.386 27.1593 105.671 27.318C105.955 27.4767 106.177 27.7007 106.336 27.99C106.494 28.2747 106.574 28.6037 106.574 28.977ZM105.741 28.725C105.736 28.431 105.631 28.1953 105.426 28.018C105.22 27.8407 104.966 27.752 104.663 27.752C104.387 27.752 104.152 27.8407 103.956 28.018C103.76 28.1907 103.643 28.4263 103.606 28.725H105.741ZM107.093 29.054C107.093 28.6667 107.172 28.3237 107.331 28.025C107.494 27.7263 107.714 27.4953 107.989 27.332C108.269 27.164 108.577 27.08 108.913 27.08C109.216 27.08 109.48 27.1407 109.704 27.262C109.933 27.3787 110.115 27.5257 110.25 27.703V27.143H111.055V31H110.25V30.426C110.115 30.608 109.93 30.7597 109.697 30.881C109.464 31.0023 109.198 31.063 108.899 31.063C108.568 31.063 108.264 30.979 107.989 30.811C107.714 30.6383 107.494 30.4003 107.331 30.097C107.172 29.789 107.093 29.4413 107.093 29.054ZM110.25 29.068C110.25 28.802 110.194 28.571 110.082 28.375C109.975 28.179 109.832 28.0297 109.655 27.927C109.478 27.8243 109.286 27.773 109.081 27.773C108.876 27.773 108.684 27.8243 108.507 27.927C108.33 28.025 108.185 28.172 108.073 28.368C107.966 28.5593 107.912 28.788 107.912 29.054C107.912 29.32 107.966 29.5533 108.073 29.754C108.185 29.9547 108.33 30.1087 108.507 30.216C108.689 30.3187 108.88 30.37 109.081 30.37C109.286 30.37 109.478 30.3187 109.655 30.216C109.832 30.1133 109.975 29.964 110.082 29.768C110.194 29.5673 110.25 29.334 110.25 29.068Z" fill="white"/>
<path d="M169.323 335.779V337.207H171.003V337.858H169.323V339.349H171.213V340H168.525V335.128H171.213V335.779H169.323ZM174.142 336.08C174.445 336.08 174.716 336.143 174.954 336.269C175.197 336.395 175.386 336.582 175.521 336.829C175.656 337.076 175.724 337.375 175.724 337.725V340H174.933V337.844C174.933 337.499 174.847 337.235 174.674 337.053C174.501 336.866 174.266 336.773 173.967 336.773C173.668 336.773 173.43 336.866 173.253 337.053C173.08 337.235 172.994 337.499 172.994 337.844V340H172.196V336.143H172.994V336.584C173.125 336.425 173.29 336.302 173.491 336.213C173.696 336.124 173.913 336.08 174.142 336.08ZM177.673 336.794V338.929C177.673 339.074 177.705 339.179 177.771 339.244C177.841 339.305 177.957 339.335 178.121 339.335H178.611V340H177.981C177.621 340 177.346 339.916 177.155 339.748C176.963 339.58 176.868 339.307 176.868 338.929V336.794H176.413V336.143H176.868V335.184H177.673V336.143H178.611V336.794H177.673ZM182.881 337.977C182.881 338.122 182.872 338.252 182.853 338.369H179.906C179.93 338.677 180.044 338.924 180.249 339.111C180.455 339.298 180.707 339.391 181.005 339.391C181.435 339.391 181.738 339.211 181.915 338.852H182.776C182.66 339.207 182.447 339.498 182.139 339.727C181.836 339.951 181.458 340.063 181.005 340.063C180.637 340.063 180.305 339.981 180.011 339.818C179.722 339.65 179.493 339.417 179.325 339.118C179.162 338.815 179.08 338.465 179.08 338.068C179.08 337.671 179.16 337.324 179.318 337.025C179.482 336.722 179.708 336.488 179.997 336.325C180.291 336.162 180.627 336.08 181.005 336.08C181.369 336.08 181.694 336.159 181.978 336.318C182.263 336.477 182.485 336.701 182.643 336.99C182.802 337.275 182.881 337.604 182.881 337.977ZM182.048 337.725C182.044 337.431 181.939 337.195 181.733 337.018C181.528 336.841 181.274 336.752 180.97 336.752C180.695 336.752 180.459 336.841 180.263 337.018C180.067 337.191 179.951 337.426 179.913 337.725H182.048ZM185.613 336.08C185.916 336.08 186.187 336.143 186.425 336.269C186.667 336.395 186.856 336.582 186.992 336.829C187.127 337.076 187.195 337.375 187.195 337.725V340H186.404V337.844C186.404 337.499 186.317 337.235 186.145 337.053C185.972 336.866 185.736 336.773 185.438 336.773C185.139 336.773 184.901 336.866 184.724 337.053C184.551 337.235 184.465 337.499 184.465 337.844V340H183.667V336.143H184.465V336.584C184.595 336.425 184.761 336.302 184.962 336.213C185.167 336.124 185.384 336.08 185.613 336.08ZM187.947 338.054C187.947 337.667 188.026 337.324 188.185 337.025C188.348 336.726 188.567 336.495 188.843 336.332C189.123 336.164 189.433 336.08 189.774 336.08C190.026 336.08 190.273 336.136 190.516 336.248C190.763 336.355 190.959 336.5 191.104 336.682V334.82H191.909V340H191.104V339.419C190.973 339.606 190.791 339.76 190.558 339.881C190.329 340.002 190.065 340.063 189.767 340.063C189.431 340.063 189.123 339.979 188.843 339.811C188.567 339.638 188.348 339.4 188.185 339.097C188.026 338.789 187.947 338.441 187.947 338.054ZM191.104 338.068C191.104 337.802 191.048 337.571 190.936 337.375C190.828 337.179 190.686 337.03 190.509 336.927C190.331 336.824 190.14 336.773 189.935 336.773C189.729 336.773 189.538 336.824 189.361 336.927C189.183 337.025 189.039 337.172 188.927 337.368C188.819 337.559 188.766 337.788 188.766 338.054C188.766 338.32 188.819 338.553 188.927 338.754C189.039 338.955 189.183 339.109 189.361 339.216C189.543 339.319 189.734 339.37 189.935 339.37C190.14 339.37 190.331 339.319 190.509 339.216C190.686 339.113 190.828 338.964 190.936 338.768C191.048 338.567 191.104 338.334 191.104 338.068ZM193.363 335.632C193.218 335.632 193.097 335.583 192.999 335.485C192.901 335.387 192.852 335.266 192.852 335.121C192.852 334.976 192.901 334.855 192.999 334.757C193.097 334.659 193.218 334.61 193.363 334.61C193.503 334.61 193.622 334.659 193.72 334.757C193.818 334.855 193.867 334.976 193.867 335.121C193.867 335.266 193.818 335.387 193.72 335.485C193.622 335.583 193.503 335.632 193.363 335.632ZM193.755 336.143V340H192.957V336.143H193.755Z" fill="white"/>
<defs>
<clipPath id="clip0_1707_100758">
<rect width="23" height="18" fill="white" transform="translate(22 27)"/>
</clipPath>
</defs>
</svg>
