<svg width="169" height="33" viewBox="0 0 169 33" fill="none" xmlns="http://www.w3.org/2000/svg">
<path d="M0.5 31.986V0.013916H10.9896V2.41937H3.15884V29.5771H10.9896V31.986H0.5Z" fill="white"/>
<path d="M168.608 31.986H158.118V29.5771H165.949V2.41937H158.118V0.013916H168.608V31.986Z" fill="white"/>
<path d="M16.2342 26.7793L14.9395 5.22394H17.817L18.6397 23.8428H19.0493L21.0417 5.22394H25.436L27.4597 23.8428H27.838L28.6919 5.22394H31.5694L30.2747 26.7793H25.3458L23.4506 9.01435H23.0722L21.177 26.7793H16.2342Z" fill="white"/>
<path d="M63.5484 15.842C65.9192 16.4112 67.3423 17.9905 67.3423 20.7084V20.9305C67.3423 24.6932 64.9091 26.7793 60.7681 26.7793H52.8645V5.22394H59.9767C64.1802 5.22394 66.5509 7.31005 66.5509 10.8505V11.1039C66.5509 13.3775 65.4749 14.8006 63.5484 15.4671V15.842ZM56.3112 8.47633V14.2279H60.0392C62.3162 14.2279 63.0729 13.4053 63.0729 11.3191V11.1942C63.0729 9.23302 62.3162 8.47633 60.0392 8.47633H56.3112ZM63.8643 20.3925C63.8643 18.2752 63.0729 17.4525 60.8306 17.4525H56.3112V23.52H60.8306C63.0764 23.52 63.8643 22.6973 63.8643 20.5487V20.3925Z" fill="white"/>
<path d="M89.963 23.5234H99.6681V26.7793H86.4572V5.22394H89.9665V23.5234H89.963Z" fill="white"/>
<path d="M108.548 27.0952C104.247 27.0952 101.213 24.4711 101.213 19.195V12.8082C101.213 7.52873 104.247 4.9046 108.548 4.9046H108.739C113.036 4.9046 116.073 7.52873 116.073 12.8082V19.195C116.073 24.4745 113.039 27.0952 108.739 27.0952H108.548ZM108.739 23.933C111.363 23.933 112.564 22.7633 112.564 19.1915V12.8048C112.564 9.23304 111.363 8.06328 108.739 8.06328H108.548C105.924 8.06328 104.723 9.23304 104.723 12.8048V19.1915C104.723 22.7633 105.924 23.933 108.548 23.933H108.739Z" fill="white"/>
<path d="M127.287 27.0952C122.987 27.0952 119.953 24.4711 119.953 19.195V12.8082C119.953 7.52873 122.987 4.9046 127.287 4.9046H127.478C131.776 4.9046 134.813 7.52873 134.813 12.8082H131.303C131.303 9.2365 130.102 8.06675 127.478 8.06675H127.287C124.663 8.06675 123.462 9.2365 123.462 12.8082V19.195C123.462 22.7668 124.663 23.9365 127.287 23.9365H127.478C130.102 23.9365 131.303 22.7668 131.303 19.195H134.813C134.813 24.4745 131.779 27.0952 127.478 27.0952H127.287Z" fill="white"/>
<path d="M147.833 14.1029L154.786 26.7793H150.992L145.872 17.3588H145.494L142.932 20.9618V26.7793H139.454V5.22394H142.932V15.1477H143.279L150.076 5.22394H154.154L147.833 14.1029Z" fill="white"/>
<path d="M35.53 5.22052H49.0915V26.7759H35.53V23.52H45.5823V17.5463H37.8383V14.3217H45.5823V8.47291H35.53V5.22052Z" fill="white"/>
<path d="M70.6055 32.0033L80.6855 0H83.1882L73.1082 32.0033H70.6055Z" fill="white"/>
</svg>
