<svg width="178" height="91" viewBox="0 0 178 91" fill="none" xmlns="http://www.w3.org/2000/svg">
<path d="M159.105 28.9042L173.43 45.0989C173.671 45.3811 173.8 45.7423 173.793 46.1135C173.785 46.4847 173.64 46.84 173.387 47.1116L160.423 61.3868C160.281 61.54 160.11 61.6623 159.918 61.7459C159.727 61.8295 159.521 61.8727 159.313 61.8727C159.104 61.8727 158.898 61.8295 158.707 61.7459C158.516 61.6623 158.344 61.54 158.202 61.3868L149.084 51.7387C148.942 51.5899 148.772 51.4713 148.583 51.3903C148.394 51.3094 148.19 51.2676 147.985 51.2676C147.779 51.2676 147.576 51.3094 147.387 51.3903C147.198 51.4713 147.027 51.5899 146.885 51.7387L137.688 61.437C137.547 61.5782 137.38 61.6902 137.196 61.7666C137.011 61.8431 136.814 61.8824 136.614 61.8824C136.414 61.8824 136.217 61.8431 136.033 61.7666C135.848 61.6902 135.681 61.5782 135.54 61.437L126.042 51.6743C125.902 51.5313 125.735 51.4178 125.55 51.3402C125.366 51.2627 125.168 51.2228 124.968 51.2228C124.767 51.2228 124.569 51.2627 124.385 51.3402C124.2 51.4178 124.033 51.5313 123.893 51.6743L114.08 61.4943C113.939 61.6355 113.772 61.7475 113.587 61.8239C113.403 61.9004 113.205 61.9397 113.006 61.9397C112.806 61.9397 112.609 61.9004 112.424 61.8239C112.24 61.7475 112.073 61.6355 111.932 61.4943L102.513 51.6743C102.376 51.5287 102.212 51.4116 102.03 51.3296C101.848 51.2476 101.651 51.2023 101.452 51.1963C101.252 51.1903 101.053 51.2238 100.867 51.2947C100.68 51.3657 100.509 51.4727 100.364 51.6098L88.8104 62.2105C88.529 62.4632 88.1644 62.6034 87.7862 62.6045H84.2765C84.0258 62.604 83.7794 62.5399 83.5602 62.4183C79.6858 71.093 72.9513 78.1752 64.4824 82.481C56.0134 86.7868 46.3232 88.0553 37.0313 86.0746C27.7394 84.0938 19.4089 78.9839 13.4321 71.5987C7.45526 64.2135 4.19434 55.0007 4.19434 45.5C4.19434 35.9994 7.45526 26.7865 13.4321 19.4014C19.4089 12.0162 27.7394 6.90626 37.0313 4.92553C46.3232 2.9448 56.0134 4.21334 64.4824 8.51914C72.9513 12.8249 79.6858 19.9071 83.5602 28.5818C83.7794 28.4602 84.0258 28.3961 84.2765 28.3956H157.973C158.187 28.3955 158.398 28.4407 158.594 28.5284C158.789 28.6161 158.963 28.7441 159.105 28.9042Z" stroke-width="7.16266" stroke-linecap="round" stroke-linejoin="round"/>
<path d="M45.8239 45.5003C45.8239 52.0709 40.4973 57.3975 33.9267 57.3975C27.3561 57.3975 22.0295 52.0709 22.0295 45.5003C22.0295 38.9297 27.3561 33.6031 33.9267 33.6031C40.4973 33.6031 45.8239 38.9297 45.8239 45.5003Z" stroke-width="0.716266"/>
</svg>
